<?xml version="1.0" encoding="UTF-8"?>
<svg id="c" data-name="Background" xmlns="http://www.w3.org/2000/svg" width="2380.4" height="1310.63" xmlns:xlink="http://www.w3.org/1999/xlink" viewBox="0 0 2380.4 1310.63">
  <defs>
    <style>
      .e, .f {
        fill: #fff;
      }

      .g {
        opacity: .5;
      }

      .h {
        clip-path: url(#d);
      }

      .f {
        stroke-width: 2.5px;
      }

      .f, .i {
        stroke: #666;
        stroke-linecap: round;
        stroke-linejoin: round;
      }

      .i {
        fill: none;
        stroke-width: 7px;
      }
    </style>
    <symbol id="a" data-name="Background Outdoor Window" viewBox="0 0 294.51 418.22">
      <g>
        <g>
          <polygon class="i" points="291.01 347.41 17.83 395.58 3.5 387.31 3.5 406.44 17.83 414.72 291.01 366.55 291.01 347.41"/>
          <path class="i" d="M276.68,339.14l-6.33,1.12-.08-334.51L17.69,50.28l.08,334.51h-.08s0-334.51,0-334.51L270.19,5.75l-3.89-2.25L13.8,48.04v337.46s-10.3,1.82-10.3,1.82l14.33,8.27,273.18-48.17-14.33-8.27ZM44.56,368.42v-.03l179.45-31.64-.06-282.88h0s.22,282.88.22,282.88l-179.62,31.67ZM230.56,340.43l9.08,5.24h0l-9.08-5.24Z"/>
        </g>
        <g>
          <polygon class="f" points="291.01 366.55 17.83 414.72 17.83 395.58 291.01 347.41 291.01 366.55"/>
          <polygon class="f" points="3.5 387.31 17.83 395.58 17.83 414.72 3.5 406.44 3.5 387.31"/>
          <polygon class="f" points="276.68 339.14 239.64 345.67 230.56 340.43 224.18 336.74 25.2 371.83 40.66 380.75 3.5 387.31 17.83 395.58 291.01 347.41 276.68 339.14"/>
          <polygon class="f" points="31.19 356.18 31.13 80.36 208.04 49.17 208.1 324.98 31.19 356.18"/>
          <path class="f" d="M223.95,39.15L24.96,74.23l.07,297.6,198.98-35.09-.07-297.6ZM36.06,358.99l-.06-275.81,176.92-31.2.06,275.81-176.92,31.2Z"/>
          <polygon class="f" points="36.06 358.99 31.19 356.18 208.1 324.98 212.98 327.8 36.06 358.99"/>
          <polygon class="f" points="208.1 324.98 208.04 49.17 212.92 51.98 212.98 327.8 208.1 324.98"/>
          <polygon class="f" points="243.55 347.93 243.48 50.41 223.95 39.15 224.18 336.74 230.56 340.43 243.55 347.93"/>
          <polygon class="f" points="13.8 48.04 17.69 50.28 17.69 387.74 13.8 385.49 13.8 48.04"/>
          <polygon class="f" points="13.8 48.04 266.3 3.5 270.19 5.75 17.69 50.28 13.8 48.04"/>
          <polygon class="f" points="44.5 85.5 243.48 50.41 243.55 347.93 270.34 343.2 270.27 5.75 17.69 50.28 17.77 387.74 44.57 383.01 44.5 85.5"/>
        </g>
      </g>
    </symbol>
    <symbol id="b" data-name="World Plant" viewBox="0 0 492.71 689.87">
      <g>
        <g>
          <path class="i" d="M380.83,487.29c0-19.65-45.06-35.57-100.65-35.57s-100.65,15.93-100.65,35.57v30.61c0,6.03,4.25,11.7,11.73,16.68l19.27,127.17c0,13.59,31.18,24.61,69.64,24.61s69.64-11.02,69.64-24.61l19.27-127.17c7.49-4.97,11.74-10.65,11.74-16.68v-30.61h0ZM380.7,489.15s0-.01,0-.02c0,0,0,.01,0,.02ZM380.28,491.03s.02-.06.03-.09c0,.03-.02.06-.03.09Z"/>
          <g>
            <ellipse class="f" cx="280.18" cy="487.29" rx="100.65" ry="35.57"/>
            <path class="f" d="M190.16,527.24l20.38,134.51c0,13.59,31.18,24.61,69.64,24.61s69.64-11.02,69.64-24.61l20.38-134.51h-180.05Z"/>
            <ellipse class="f" cx="280.18" cy="504.62" rx="90.03" ry="31.82"/>
            <path class="f" d="M280.18,522.87c-55.59,0-100.65-15.93-100.65-35.57v30.61c0,19.65,45.06,35.57,100.65,35.57s100.65-15.93,100.65-35.57v-30.61c0,19.64-45.06,35.57-100.65,35.57Z"/>
            <path class="f" d="M380.83,487.29c0,19.65-45.06,35.57-100.65,35.57s-100.65-15.93-100.65-35.57,45.06-35.57,100.65-35.57,100.65,15.93,100.65,35.57ZM375.87,487.29c0-14.48-39.3-30.61-95.69-30.61s-95.69,16.13-95.69,30.61,39.3,30.61,95.69,30.61,95.69-16.13,95.69-30.61Z"/>
          </g>
        </g>
        <g>
          <path class="i" d="M421.91,124.71c-31.58,29.81-71.17,52.6-90.2,55.48,0,0-23.48,44.78-31.77,103.08-.04.04-.08.07-.12.11,5.52-31.75-7.46-67.26-23.22-93.57C205.79,71.61,208.82,3.5,208.82,3.5c0,0-24.05,80.04-6.12,140.39s44.7,56.92,59.02,136.08c2.39,11.41,5.05,20.49,7.45,27.67-.47.32-.94.63-1.41.93-15.29-23.79-27.65-32.63-52.09-65.11-29.3-38.92-32.36-29.3-71.29-62.54C105.45,147.68,3.55,116.63,3.55,116.63c0,0-5.35,50.36,93.75,110.15,52.92,31.93,49.67,53.31,102.62,84.03,12.49,7.25,26.13,11.72,38.43,14.27-11.9,5.56-19.48,7.75-19.48,7.75,0,0,18.16,10.49,55,4.07.29,39.56-.51,122.61-11.26,165.62,0,0,7,10.5,32.8.88,0,0-5.89-113.53,1.69-172.3,31.04-11.35,42.9-52.88,47.33-80.92,19.48-28.14,42.08-62,61.91-94.84-.62,1.28-.98,2.03-.98,2.03,42.06-16.74,77.13-37.21,77.13-37.21,21.34-32.22-10.66-83.94-60.58,4.54Z"/>
          <g>
            <path class="f" d="M273.54,314.9s3.5,129.89-10.93,187.62c0,0,7,10.5,32.8.87,0,0-6.56-126.4,3.06-181.5l-24.93-7Z"/>
            <path class="f" d="M277.33,324.81c2.62,4.81-41.99,6.56-77.41-14-52.96-30.73-49.7-52.11-102.62-84.03C-1.8,166.99,3.55,116.63,3.55,116.63c0,0,101.9,31.05,140.83,64.29,38.92,33.24,41.99,23.62,71.29,62.54,29.3,38.92,41.23,43.88,61.67,81.35Z"/>
            <path class="f" d="M287.84,312.98c25.74-37.02,9.7-88.23-11.23-123.17C205.79,71.61,208.82,3.5,208.82,3.5c0,0-24.05,80.04-6.12,140.39,17.93,60.35,44.7,56.92,59.02,136.08,2.49,11.91,5.28,21.27,7.76,28.59,2.42,7.16,4.8,12.36,6.78,15.98"/>
            <g>
              <path class="f" d="M434.49,111.96c-32.8,35.86-81.11,64.94-102.78,68.23,0,0-32.8,62.54-34.55,136.02,0,0,69.4-92.74,116.77-173.63l20.56-30.61Z"/>
              <path class="f" d="M421.26,125.85c50.3-90.09,82.66-38.05,61.23-5.69,0,0-35.07,20.48-77.13,37.21,0,0,10.61-22.04,15.9-31.52Z"/>
            </g>
            <path class="f" d="M218.87,332.83s79.43-22.88,128.07-109.38c.32-.57-1.67,93.2-52.41,108.51-50.73,15.31-75.66.87-75.66.87Z"/>
          </g>
        </g>
      </g>
    </symbol>
    <clipPath id="d">
      <polygon class="e" points="1046.67 276.63 1046.72 507.35 1198.02 480.68 1197.97 249.95 1046.67 276.63"/>
    </clipPath>
  </defs>
  <g>
    <path class="i" d="M1757.78,734.93c.94-15.14-10.02-30.38-34.24-44.36L753.48,130.5l-197.36,34.8,843.88,487.21v71.47S3.5,970.23,3.5,970.23v161.76l1396.35-246.21,176.85-31.18,36.34-6.41c92.24-18.82,144.67-50.28,144.81-81.95v-33.06c0,.58-.03,1.17-.07,1.75ZM1757.74,735.32c-.04.48-.09.96-.15,1.44.06-.48.11-.96.15-1.44ZM1757.5,737.51c-.05.34-.12.69-.18,1.03.06-.34.13-.69.18-1.03ZM1756.9,740.42c-.02.08-.04.17-.06.25.02-.08.04-.17.06-.25Z"/>
    <g>
      <path class="f" d="M1723.53,690.56L753.48,130.5l-197.36,34.8,843.88,487.21v71.47S3.5,970.23,3.5,970.23v128.8l1396.34-246.21,213.18-37.59c134.73-27.5,184.51-81.93,110.51-124.66Z"/>
      <path class="f" d="M1613.04,815.13l-48.34,8.52v.09l-164.86,29.07L3.5,1099.03v32.96l1396.35-246.21,176.85-31.18,36.34-6.41c92.24-18.82,144.67-50.28,144.81-81.95v-33.06c-.14,31.68-52.56,63.13-144.81,81.95Z"/>
    </g>
  </g>
  <g>
    <polygon class="i" points="1400.01 723.98 1400.01 607.93 1408.81 606.38 1408.81 587.24 1400.01 582.16 1400.01 163.98 1399.97 163.98 1399.97 3.5 3.5 3.5 3.5 163.98 3.5 276.41 3.5 295.58 3.5 321.09 3.5 828.37 3.5 828.37 3.5 828.89 3.5 835.03 3.5 854.17 3.5 970.08 3.5 970.23 167.97 941.23 201.92 960.83 201.92 960.83 201.92 960.83 201.92 960.83 400.91 925.75 400.91 925.75 400.91 925.75 400.91 925.74 400.9 900.16 1400.01 723.98"/>
    <g>
      <polygon class="f" points="3.5 163.98 3.5 970.23 1400.01 723.98 1400.01 163.98 3.5 163.98"/>
      <g>
        <polygon class="i" points="212.06 271.96 24.83 304.98 24.93 709.07 212.16 676.06 212.06 271.96"/>
        <g>
          <polygon class="f" points="24.83 304.98 24.93 709.07 212.16 676.06 212.06 271.96 24.83 304.98"/>
          <polygon class="f" points="182.73 488.72 54.26 511.37 54.22 327.62 182.69 304.96 182.73 488.72"/>
          <polygon class="f" points="182.77 643.48 54.3 666.13 54.28 599.27 182.75 576.62 182.77 643.48"/>
          <polygon class="f" points="182.75 544.92 54.27 567.57 54.27 542.23 182.74 519.58 182.75 544.92"/>
        </g>
      </g>
      <polygon class="f" points="1399.97 582.14 367.62 764.17 367.62 905.88 1399.98 723.85 1399.97 582.14"/>
      <polygon class="f" points="1408.81 587.24 371.98 770.06 371.98 789.2 1408.81 606.38 1408.81 587.24"/>
      <polygon class="f" points="367.62 767.1 371.98 769.62 371.98 770.06 1408.81 587.24 1399.97 582.14 394.41 759.44 394.42 762.38 367.62 767.1"/>
      <g>
        <polygon class="i" points="371.99 789.2 371.98 770.06 367.63 767.54 367.57 360.07 212.16 330.41 212.24 848.73 367.64 878.39 367.63 786.68 371.99 789.2"/>
        <polygon class="f" points="371.99 789.2 371.98 770.06 367.63 767.54 367.57 360.07 212.16 330.41 212.24 848.73 367.64 878.39 367.63 786.68 371.99 789.2"/>
      </g>
      <g>
        <polygon class="i" points="400.91 925.75 400.9 890.56 367.31 871.17 353.72 863.32 353.71 828.14 306.53 800.9 306.52 765.72 259.34 738.48 259.34 703.29 212.16 676.06 13.17 711.14 60.35 738.38 60.36 773.56 107.54 800.8 107.55 835.99 154.73 863.23 154.74 898.41 154.74 898.41 154.74 933.59 201.92 960.83 201.92 949.11 201.92 960.83 400.91 925.75"/>
        <g>
          <polygon class="f" points="13.17 711.14 212.16 676.06 259.34 703.29 60.35 738.38 13.17 711.14"/>
          <polygon class="f" points="259.34 738.48 60.36 773.56 60.35 738.38 259.34 703.29 259.34 738.48"/>
          <polygon class="f" points="60.36 773.56 259.34 738.48 306.52 765.72 107.54 800.8 60.36 773.56"/>
          <polygon class="f" points="306.53 800.9 107.55 835.99 107.54 800.8 306.52 765.72 306.53 800.9"/>
          <polygon class="f" points="107.55 835.99 306.53 800.9 353.71 828.14 154.73 863.23 107.55 835.99"/>
          <polygon class="f" points="353.72 863.32 154.74 898.41 154.73 863.23 353.71 828.14 353.72 863.32"/>
          <polygon class="f" points="201.92 925.65 154.74 898.41 154.74 933.59 201.92 960.83 201.92 925.65"/>
          <polygon class="f" points="154.74 898.41 353.72 863.32 367.31 871.17 400.9 890.56 201.92 925.65 154.74 898.41"/>
          <polygon class="f" points="400.91 925.75 201.92 960.83 201.92 925.65 400.9 890.56 400.91 925.75"/>
        </g>
      </g>
      <polygon class="f" points="3.5 828.37 3.5 970.08 168.64 940.97 168.64 799.25 3.5 828.37"/>
      <polygon class="f" points="3.5 835.03 3.5 854.17 173.58 824.18 173.58 805.04 3.5 835.03"/>
      <polygon class="f" points="3.5 835.03 173.58 805.04 168.64 802.19 141.76 806.92 137.87 804.67 3.5 828.37 3.5 835.03"/>
      <polygon class="f" points="1399.97 582.14 1399.97 3.5 3.5 3.5 3.5 828.89 168.63 799.77 168.62 373.1 367.61 338.02 367.61 764.17 1399.97 582.14"/>
      <polygon class="f" points="3.5 321.09 1399.85 74.87 1399.85 49.36 3.5 295.58 3.5 321.09"/>
      <polygon class="f" points="3.5 295.58 1399.85 49.36 1399.84 30.2 3.5 276.41 3.5 295.58"/>
      <polygon class="f" points="394.26 315.54 390.37 313.29 137.87 357.83 141.76 360.07 394.26 315.54"/>
      <polygon class="f" points="367.55 360.21 367.62 764.16 367.62 767.1 367.62 767.1 394.42 762.38 394.41 759.44 394.34 315.54 141.76 360.07 141.84 806.92 168.64 802.19 168.64 802.19 168.57 395.29 348.02 363.65 367.55 360.21"/>
      <polygon class="f" points="141.76 360.07 137.87 357.83 137.87 804.67 137.87 804.67 141.76 806.92 141.76 803.98 141.76 360.07"/>
      <use width="294.51" height="418.22" transform="translate(562.72 232.45)" xlink:href="#a"/>
      <use width="294.51" height="418.22" transform="translate(991.74 156.8)" xlink:href="#a"/>
    </g>
  </g>
  <g class="g">
    <polygon class="e" points="1046.67 276.63 1046.72 507.35 1198.02 480.68 1197.97 249.95 1046.67 276.63"/>
    <g class="h">
      <use width="492.71" height="689.87" transform="translate(1216.47 338.06) rotate(-180) scale(.32 -.32)" xlink:href="#b"/>
    </g>
  </g>
</svg>