<?xml version="1.0" encoding="UTF-8"?>
<svg id="b" data-name="Background" xmlns="http://www.w3.org/2000/svg" width="4116.02" height="1754.06" xmlns:xlink="http://www.w3.org/1999/xlink" viewBox="0 0 4116.02 1754.06">
  <defs>
    <style>
      .c {
        fill: #fff;
        stroke-width: 2.5px;
      }

      .c, .d {
        stroke: #666;
        stroke-linecap: round;
        stroke-linejoin: round;
      }

      .d {
        fill: none;
        stroke-width: 7px;
      }
    </style>
    <symbol id="a" data-name="Background Indoor Room" viewBox="0 0 4116.02 1754.06">
      <g>
        <polygon class="c" points="4112.52 1522.48 4112.52 3.5 3223.91 3.5 3223.91 1003.96 3760.7 1317.19 3760.7 1317.19 4112.52 1522.48"/>
        <polygon class="c" points="1613.7 3.5 3.5 3.5 3.5 1578.81 224.83 1539.31 224.83 1539.31 1613.7 1291.39 1835.03 1251.88 1835.03 1251.88 3223.91 1003.96 3223.91 3.5 1613.7 3.5"/>
        <g>
          <polygon class="d" points="3819.99 961.79 3819.99 3.5 3576.95 3.5 3561.97 3.5 3552.14 3.5 3531.74 3.5 3486.16 3.5 3486.16 851.18 3455.06 856.67 3455.06 868.41 3788.89 1064.18 3819.99 1058.69 3819.99 1046.95 3819.99 1012.88 3531.74 843.15 3531.74 843.15 3819.99 1012.88 3819.99 988.01 3819.99 973.09 3819.99 973.09 3819.99 961.79 3576.95 818.16 3576.95 818.16 3819.99 961.79"/>
          <g>
            <polygon class="c" points="3486.16 3.5 3486.16 851.18 3531.74 843.15 3531.74 3.5 3486.16 3.5"/>
            <polygon class="c" points="3552.14 3.5 3531.74 3.5 3531.74 843.15 3819.99 1012.88 3819.99 988.01 3552.14 830.06 3552.14 3.5"/>
            <polygon class="c" points="3561.97 3.5 3552.14 3.5 3552.14 830.06 3819.99 988.01 3819.99 973.09 3561.97 820.8 3561.97 3.5"/>
            <polygon class="c" points="3819.99 961.79 3576.95 818.16 3561.97 820.8 3819.99 973.09 3819.99 961.79"/>
            <polygon class="c" points="3561.97 3.5 3561.97 820.8 3576.95 818.16 3576.95 3.5 3561.97 3.5"/>
            <polygon class="c" points="3576.95 3.5 3576.95 818.16 3819.99 961.79 3819.99 3.5 3576.95 3.5"/>
            <polygon class="c" points="3819.99 1046.95 3819.99 1012.88 3531.74 843.15 3455.06 856.67 3788.89 1052.44 3819.99 1046.95"/>
            <g>
              <polygon class="c" points="3455.06 856.67 3455.06 868.41 3788.89 1064.18 3788.89 1052.44 3455.06 856.67"/>
              <polygon class="c" points="3819.99 1046.95 3788.89 1052.44 3788.89 1064.18 3819.99 1058.69 3819.99 1046.95"/>
            </g>
          </g>
        </g>
        <g>
          <polygon class="d" points="3223.91 1003.96 1835.03 1251.88 1613.71 1291.39 224.83 1539.31 3.5 1578.81 3.5 1750.56 4112.52 1750.56 4112.52 1522.48 3223.91 1003.96"/>
          <polygon class="c" points="4112.52 1750.56 4112.52 1522.48 3223.91 1003.96 1835.03 1251.88 1613.7 1291.39 224.83 1539.31 3.5 1578.81 3.5 1750.56 4112.52 1750.56"/>
        </g>
      </g>
    </symbol>
  </defs>
  <use width="4116.02" height="1754.06" xlink:href="#a"/>
</svg>