<?xml version="1.0" encoding="UTF-8"?>
<svg id="b" data-name="Background" xmlns="http://www.w3.org/2000/svg" width="322.21" height="393.64" xmlns:xlink="http://www.w3.org/1999/xlink" viewBox="0 0 322.21 393.64">
  <defs>
    <style>
      .c {
        fill: #fff;
        stroke-width: 2px;
      }

      .c, .d {
        stroke: #666;
        stroke-linecap: round;
        stroke-linejoin: round;
      }

      .d {
        fill: none;
        stroke-width: 7px;
      }
    </style>
    <symbol id="a" data-name="World Table" viewBox="0 0 322.21 393.64">
      <g>
        <g>
          <path class="c" d="M152.5,52.74l-12.8,3.08c16.06,61.37,19.64,190.41.05,231.98-2.85,6.04-10.39,10.23-14.25,12.1l11.66-1.32,5.92-1.05c30.65-14.93,28.29-175.94,9.41-244.78Z"/>
          <path class="c" d="M139.7,55.82l-1.98.48c15.84,62.93,20.14,186.25-.32,226.02-1.24,2.41-2.79,4.73-4.65,6.73-4.44,4.76-10.7,7.69-19.04,5.72l8.78,4.26c4.15,1.64,7.93-.31,11.23-3.31,2.34-2.13,4.57-4.81,6.04-7.91,19.59-41.56,16.01-170.6-.05-231.98Z"/>
          <path class="c" d="M132.74,289.04l-22.19,3.94,3.15,1.78c8.34,1.97,14.6-.96,19.04-5.72Z"/>
        </g>
        <g>
          <path class="c" d="M114.89,100.15c58.31,68.64,40.66,217.78-113.89,251.93h0s4.41,2.54,4.41,2.54h0s0,0,0,0c156.13-34.58,171.3-188.1,109.47-254.47Z"/>
          <polygon class="c" points="5.41 354.63 1 352.09 1 355.95 5.42 358.49 5.42 354.63 5.41 354.63"/>
          <path class="c" d="M93.26,74.76l-3.59,3.84c9.51,5.68,17.96,12.99,25.23,21.55,61.82,66.37,46.66,219.89-109.47,254.47h0v3.87c1.67-.37,3.32-.7,4.95-1.01,11.47-2.17,22.07-3.13,32.08-7.1,143.18-56.78,136.08-230.05,50.8-275.62Z"/>
        </g>
        <g>
          <polygon class="c" points="321.21 329.03 321.21 329.03 321.21 329.03 321.21 329.03"/>
          <path class="c" d="M321.21,329.03l-6.74-3.9c-19.33,3.54-47.86-4.14-74.39-21.02,28.49,19.89,60.34,29.06,81.14,24.91Z"/>
          <path class="c" d="M219.74,75.15l-2.99.56-5.9,1.1c-53.06,62.79-54.83,117.17-34.45,158.15-9.71-26.89-10.76-58.41,2.7-93.54,8-20.89,21.14-43.05,40.65-66.27Z"/>
          <path class="c" d="M321.21,329.03c-20.8,4.15-52.65-5.03-81.14-24.91-9.89-6.91-19.38-15.1-27.85-24.48-40.86-45.23-58.24-117.96,15.54-205.97l-8.02,1.49c-19.5,23.22-32.64,45.38-40.65,66.27-13.46,35.12-12.16,66.56-2.7,93.54,24.43,69.68,104.34,108.11,144.81,98.55v-4.48h0Z"/>
        </g>
        <g>
          <path class="c" d="M189.72,88.58l-13.55,2.34c-37.09,70.14-8.53,253.17,17.72,301.13l13.49-2.36c-26.25-48.07-54.77-231.03-17.66-301.12Z"/>
          <path class="c" d="M176.18,90.91l-4.7.81c-34.73,73.63-8.01,244.44,19.02,300.92l3.4-.59c-26.25-47.97-54.81-230.99-17.72-301.13Z"/>
        </g>
        <g>
          <path class="d" d="M161.22,3.5C87.26,3.5,27.31,22.19,27.31,45.25v15.07c0,23.06,59.95,41.75,133.91,41.75s133.91-18.69,133.91-41.75v-15.07c0-23.06-59.95-41.75-133.91-41.75Z"/>
          <g>
            <path class="c" d="M27.31,45.25v15.07c0,23.06,59.95,41.75,133.91,41.75s133.91-18.69,133.91-41.75v-15.07H27.31Z"/>
            <ellipse class="c" cx="161.22" cy="45.25" rx="133.91" ry="41.75"/>
          </g>
        </g>
      </g>
    </symbol>
  </defs>
  <use width="322.21" height="393.64" xlink:href="#a"/>
</svg>