<?xml version="1.0" encoding="UTF-8"?>
<svg id="b" data-name="Background" xmlns="http://www.w3.org/2000/svg" width="492.71" height="689.87" xmlns:xlink="http://www.w3.org/1999/xlink" viewBox="0 0 492.71 689.87">
  <defs>
    <style>
      .c {
        fill: #fff;
        stroke-width: 2.5px;
      }

      .c, .d {
        stroke: #666;
        stroke-linecap: round;
        stroke-linejoin: round;
      }

      .d {
        fill: none;
        stroke-width: 7px;
      }
    </style>
    <symbol id="a" data-name="World Plant" viewBox="0 0 492.71 689.87">
      <g>
        <g>
          <path class="d" d="M380.83,487.29c0-19.65-45.06-35.57-100.65-35.57s-100.65,15.93-100.65,35.57v30.61c0,6.03,4.25,11.7,11.73,16.68l19.27,127.17c0,13.59,31.18,24.61,69.64,24.61s69.64-11.02,69.64-24.61l19.27-127.17c7.49-4.97,11.74-10.65,11.74-16.68v-30.61h0ZM380.7,489.15s0-.01,0-.02c0,0,0,.01,0,.02ZM380.28,491.03s.02-.06.03-.09c0,.03-.02.06-.03.09Z"/>
          <g>
            <ellipse class="c" cx="280.18" cy="487.29" rx="100.65" ry="35.57"/>
            <path class="c" d="M190.16,527.24l20.38,134.51c0,13.59,31.18,24.61,69.64,24.61s69.64-11.02,69.64-24.61l20.38-134.51h-180.05Z"/>
            <ellipse class="c" cx="280.18" cy="504.62" rx="90.03" ry="31.82"/>
            <path class="c" d="M280.18,522.87c-55.59,0-100.65-15.93-100.65-35.57v30.61c0,19.65,45.06,35.57,100.65,35.57s100.65-15.93,100.65-35.57v-30.61c0,19.64-45.06,35.57-100.65,35.57Z"/>
            <path class="c" d="M380.83,487.29c0,19.65-45.06,35.57-100.65,35.57s-100.65-15.93-100.65-35.57,45.06-35.57,100.65-35.57,100.65,15.93,100.65,35.57ZM375.87,487.29c0-14.48-39.3-30.61-95.69-30.61s-95.69,16.13-95.69,30.61,39.3,30.61,95.69,30.61,95.69-16.13,95.69-30.61Z"/>
          </g>
        </g>
        <g>
          <path class="d" d="M421.91,124.71c-31.58,29.81-71.17,52.6-90.2,55.48,0,0-23.48,44.78-31.77,103.08-.04.04-.08.07-.12.11,5.52-31.75-7.46-67.26-23.22-93.57C205.79,71.61,208.82,3.5,208.82,3.5c0,0-24.05,80.04-6.12,140.39s44.7,56.92,59.02,136.08c2.39,11.41,5.05,20.49,7.45,27.67-.47.32-.94.63-1.41.93-15.29-23.79-27.65-32.63-52.09-65.11-29.3-38.92-32.36-29.3-71.29-62.54C105.45,147.68,3.55,116.63,3.55,116.63c0,0-5.35,50.36,93.75,110.15,52.92,31.93,49.67,53.31,102.62,84.03,12.49,7.25,26.13,11.72,38.43,14.27-11.9,5.56-19.48,7.75-19.48,7.75,0,0,18.16,10.49,55,4.07.29,39.56-.51,122.61-11.26,165.62,0,0,7,10.5,32.8.88,0,0-5.89-113.53,1.69-172.3,31.04-11.35,42.9-52.88,47.33-80.92,19.48-28.14,42.08-62,61.91-94.84-.62,1.28-.98,2.03-.98,2.03,42.06-16.74,77.13-37.21,77.13-37.21,21.34-32.22-10.66-83.94-60.58,4.54Z"/>
          <g>
            <path class="c" d="M273.54,314.9s3.5,129.89-10.93,187.62c0,0,7,10.5,32.8.87,0,0-6.56-126.4,3.06-181.5l-24.93-7Z"/>
            <path class="c" d="M277.33,324.81c2.62,4.81-41.99,6.56-77.41-14-52.96-30.73-49.7-52.11-102.62-84.03C-1.8,166.99,3.55,116.63,3.55,116.63c0,0,101.9,31.05,140.83,64.29,38.92,33.24,41.99,23.62,71.29,62.54,29.3,38.92,41.23,43.88,61.67,81.35Z"/>
            <path class="c" d="M287.84,312.98c25.74-37.02,9.7-88.23-11.23-123.17C205.79,71.61,208.82,3.5,208.82,3.5c0,0-24.05,80.04-6.12,140.39,17.93,60.35,44.7,56.92,59.02,136.08,2.49,11.91,5.28,21.27,7.76,28.59,2.42,7.16,4.8,12.36,6.78,15.98"/>
            <g>
              <path class="c" d="M434.49,111.96c-32.8,35.86-81.11,64.94-102.78,68.23,0,0-32.8,62.54-34.55,136.02,0,0,69.4-92.74,116.77-173.63l20.56-30.61Z"/>
              <path class="c" d="M421.26,125.85c50.3-90.09,82.66-38.05,61.23-5.69,0,0-35.07,20.48-77.13,37.21,0,0,10.61-22.04,15.9-31.52Z"/>
            </g>
            <path class="c" d="M218.87,332.83s79.43-22.88,128.07-109.38c.32-.57-1.67,93.2-52.41,108.51-50.73,15.31-75.66.87-75.66.87Z"/>
          </g>
        </g>
      </g>
    </symbol>
  </defs>
  <use width="492.71" height="689.87" xlink:href="#a"/>
</svg>