<?xml version="1.0" encoding="UTF-8"?>
<svg id="b" data-name="Background" xmlns="http://www.w3.org/2000/svg" width="678.58" height="612.22" xmlns:xlink="http://www.w3.org/1999/xlink" viewBox="0 0 678.58 612.22">
  <defs>
    <style>
      .c {
        fill: #e0e0e0;
      }

      .c, .d, .e {
        stroke-width: 2.5px;
      }

      .c, .d, .e, .f {
        stroke: #666;
        stroke-linecap: round;
        stroke-linejoin: round;
      }

      .d {
        fill: #fff;
      }

      .e, .f {
        fill: none;
      }

      .f {
        stroke-width: 7px;
      }
    </style>
    <symbol id="a" data-name="World Picture Frame" viewBox="0 0 678.58 612.22">
      <g>
        <polygon class="f" points="663.14 3.5 3.5 119.81 3.5 601.83 15.44 608.72 454.79 531.25 675.08 492.41 675.08 10.39 663.14 3.5"/>
        <g>
          <polygon class="d" points="675.08 10.39 235.73 87.86 235.73 87.86 15.44 126.71 15.44 608.72 454.79 531.26 454.79 531.26 675.08 492.41 675.08 10.39"/>
          <polygon class="d" points="15.44 126.71 3.5 119.81 3.5 601.83 15.44 608.72 15.44 126.71"/>
          <polygon class="d" points="15.44 126.71 3.5 119.81 663.14 3.5 675.08 10.39 15.44 126.71"/>
          <polygon class="d" points="675.08 10.39 235.73 87.86 235.73 87.86 15.44 126.71 15.44 608.72 454.79 531.26 454.79 531.26 675.08 492.41 675.08 10.39"/>
          <polygon class="d" points="54.86 159.78 635.66 57.37 635.66 459.34 54.86 561.75 54.86 159.78"/>
          <polygon class="c" points="54.86 159.78 629.69 58.42 629.69 455.89 54.86 557.25 54.86 159.78"/>
          <polygon class="d" points="202.93 302.73 128.36 407.52 171.81 399.86 202.93 302.73"/>
          <polygon class="d" points="202.93 302.73 276.89 381.33 171.81 399.86 202.93 302.73"/>
          <polygon class="d" points="629.69 395.48 54.86 496.84 54.86 557.25 629.69 455.89 629.69 395.48"/>
          <polygon class="d" points="629.69 395.48 54.86 496.84 54.86 467.83 629.69 366.48 629.69 395.48"/>
          <polygon class="d" points="629.69 339.96 54.86 441.32 54.86 467.83 629.69 366.48 629.69 339.96"/>
          <polygon class="d" points="629.69 339.96 54.86 441.32 54.86 420.48 629.69 319.12 629.69 339.96"/>
          <polygon class="d" points="315.79 251.39 215.64 392.13 273.99 381.84 315.79 251.39"/>
          <polygon class="d" points="315.79 251.39 415.11 356.96 273.99 381.84 315.79 251.39"/>
          <path class="d" d="M499.34,218.57c0,14.65-10.75,28.41-24,30.75-13.26,2.34-24-7.64-24-22.29s10.75-28.41,24-30.75,24,7.64,24,22.29Z"/>
          <polygon class="e" points="629.69 455.89 629.69 58.42 54.86 159.78 54.86 557.25 629.69 455.89"/>
        </g>
      </g>
    </symbol>
  </defs>
  <use width="678.58" height="612.22" xlink:href="#a"/>
</svg>