<?xml version="1.0" encoding="UTF-8"?>
<svg id="b" data-name="Background" xmlns="http://www.w3.org/2000/svg" width="570.4" height="635.19" xmlns:xlink="http://www.w3.org/1999/xlink" viewBox="0 0 570.4 635.19">
  <defs>
    <style>
      .c {
        fill: #fff;
        stroke-width: 2.5px;
      }

      .c, .d {
        stroke: #666;
        stroke-linecap: round;
        stroke-linejoin: round;
      }

      .d {
        fill: none;
        stroke-width: 7px;
      }
    </style>
    <symbol id="a" data-name="World Chair" viewBox="0 0 570.4 635.19">
      <g>
        <path class="c" d="M22.3,217.8c-5.1-1.71-8.41-6.28-8.43-11.66-.03-5.38,3.24-9.99,8.32-11.74l107.26-37.1,4.89,14.15-100.01,34.59"/>
        <path class="c" d="M525.83,557.71c-2.53,0-5.07-.39-7.58-1.18l-213.36-67.69,4.53-14.27,213.36,67.69c3.02.95,6.22.43,8.77-1.44,2.56-1.87,4.02-4.76,4.02-7.93v-249.81c0-30.7-19.65-57.6-48.89-66.95l-212.91-68.03,4.56-14.26,212.91,68.03c35.47,11.33,59.31,43.97,59.31,81.21v249.81c0,7.99-3.7,15.29-10.15,20.01-4.33,3.17-9.4,4.81-14.57,4.81Z"/>
        <g>
          <path class="d" d="M566.71,360.2c-.14-16.11-10.96-30.17-26.5-34.42l-238.31-65.16-224.99,71.72,16,55.95c1.63,5.68,6.1,10.1,11.81,11.65l237.27,64.32h0l216.01-68.86c5.34-1.7,8.95-6.68,8.9-12.29l-.19-22.91Z"/>
          <g>
            <path class="c" d="M566.71,360.2c-.14-16.11-10.96-30.17-26.5-34.42l-238.31-65.16,18.62,65.11-215.8,74.22,237.27,64.32,216.01-68.86c5.34-1.7,8.95-6.68,8.9-12.29l-.19-22.91Z"/>
            <polygon class="c" points="301.9 260.61 76.9 332.34 315.21 397.5 540.2 325.78 301.9 260.61"/>
            <path class="c" d="M76.9,332.34l238.31,65.16c15.54,4.25,26.37,18.31,26.5,34.42l.27,32.34-237.27-64.32c-5.7-1.55-10.18-5.96-11.81-11.65l-16-55.95Z"/>
          </g>
        </g>
        <g>
          <path class="d" d="M342.42,254.61L272.81,17.02c-4.36-10.13-15.46-15.57-26.14-12.79L9.44,78.87c-4.35,1.13-6.89,5.64-5.61,9.94l68.06,228.94c.76,2.56,2.8,4.54,5.39,5.22l42.69,11.26,216.8-69c4.46-1.42,6.97-6.13,5.65-10.62Z"/>
          <g>
            <path class="c" d="M272.81,17.02l69.61,237.59c1.31,4.49-1.2,9.2-5.65,10.62l-216.8,69L9.44,78.87,246.67,4.22c10.68-2.77,21.78,2.66,26.14,12.8h0"/>
            <path class="c" d="M119.97,334.23L47.82,88.49h0c-4.36-10.13-15.46-15.57-26.14-12.8l-12.24,3.18c-4.35,1.13-6.89,5.64-5.61,9.94l68.06,228.93c.76,2.56,2.8,4.54,5.39,5.22l42.69,11.26L47.82,88.49"/>
          </g>
        </g>
        <path class="c" d="M22.3,217.8l228.06,76.43c28.5,9.55,47.65,36.17,47.65,66.23v247.59c0,3.52-1.63,6.74-4.48,8.81-2.85,2.07-6.41,2.64-9.76,1.57l-3.79-1.22-4.71,14.21,3.91,1.26c2.64.85,5.34,1.27,8.01,1.27,5.37,0,10.64-1.7,15.16-4.99,6.76-4.93,10.64-12.55,10.64-20.91v-247.59c0-36.51-23.26-68.83-57.87-80.43L34.33,206.04"/>
        <g>
          <path class="d" d="M311.75,318.51l-.03-.07c-8.05-22.23-26-40.13-49.45-47.62l-162.09-51.79-22.29,6.97h0v13.99l166.79,53.29c17.41,5.56,31.07,18.22,38.23,34.17.99,2.2,1.85,4.45,2.58,6.77l2.95-.92h0l19.02-5.95c3.71-1.16,5.72-5.23,4.28-8.84Z"/>
          <g>
            <path class="c" d="M292.71,324.4l-7.21,9.83,21.97-6.87c3.71-1.16,5.72-5.23,4.28-8.84l-.03-.07-19.02,5.95Z"/>
            <path class="c" d="M292.71,324.4l19.02-5.95c-8.05-22.23-26-40.13-49.45-47.63l-162.09-51.79-22.29,6.97,166.26,53.12c22.62,7.23,40.12,24.14,48.55,45.27Z"/>
            <path class="c" d="M292.73,324.46l-.03-.07c-8.44-21.13-25.94-38.05-48.55-45.27l-166.26-53.12h0v13.99l166.79,53.29c17.41,5.56,31.07,18.22,38.23,34.17.99,2.2,1.85,4.45,2.58,6.77l2.95-.92c3.71-1.16,5.72-5.23,4.28-8.84Z"/>
          </g>
        </g>
        <path class="c" d="M279.18,632.67l-232.16-74.72c-5.43-1.75-9.06-6.75-9.04-12.46.02-5.7,3.69-10.68,9.13-12.39l211.27-66.27c8.77-2.75,18.03-2.73,26.78.04l12.84,4.07v15.71l-17.37-5.51c-5.81-1.84-11.96-1.85-17.77-.03l-205.45,64.45,226.35,72.85"/>
        <g>
          <path class="d" d="M553.92,242.73l-.03-.07c-8.05-22.23-26-40.13-49.45-47.62l-162.09-51.79-22.29,6.97h0v13.99l166.79,53.29c17.41,5.56,31.07,18.22,38.23,34.17.99,2.2,1.85,4.45,2.58,6.77l2.95-.92s0,0,0,0l19.02-5.95c3.71-1.16,5.72-5.23,4.28-8.84Z"/>
          <g>
            <path class="c" d="M534.87,248.61l-7.21,9.83,21.97-6.87c3.71-1.16,5.72-5.23,4.28-8.84l-.03-.07-19.02,5.95Z"/>
            <path class="c" d="M534.87,248.61l19.02-5.95c-8.05-22.23-26-40.13-49.45-47.63l-162.09-51.79-22.29,6.97,166.26,53.12c22.62,7.23,40.12,24.14,48.55,45.27Z"/>
            <path class="c" d="M534.9,248.68l-.03-.07c-8.44-21.13-25.94-38.05-48.55-45.27l-166.26-53.12h0v13.99l166.79,53.29c17.41,5.56,31.07,18.22,38.23,34.17.99,2.2,1.85,4.45,2.58,6.77l2.95-.92c3.71-1.16,5.72-5.23,4.28-8.84Z"/>
          </g>
        </g>
      </g>
    </symbol>
  </defs>
  <use width="570.4" height="635.19" xlink:href="#a"/>
</svg>