<?xml version="1.0" encoding="UTF-8"?>
<svg id="d" data-name="Background" xmlns="http://www.w3.org/2000/svg" width="1909.26" height="612.03" xmlns:xlink="http://www.w3.org/1999/xlink" viewBox="0 0 1909.26 612.03">
  <defs>
    <style>
      .e {
        mask: url(#b);
      }

      .f {
        fill: url(#c);
        stroke: #000;
      }

      .f, .g {
        stroke-miterlimit: 10;
      }

      .g {
        fill: none;
        stroke: #90ff00;
        stroke-width: 10px;
      }
    </style>
    <radialGradient id="c" cx="1005.37" cy="122.86" fx="1005.37" fy="122.86" r="804.26" gradientTransform="translate(2011.47 186.3) rotate(179.4) scale(1 .6)" gradientUnits="userSpaceOnUse">
      <stop offset="0" stop-color="#fff"/>
      <stop offset="1" stop-color="#000"/>
    </radialGradient>
    <mask id="b" data-name="mask" x="-12.28" y="-3.36" width="1933.81" height="618.74" maskUnits="userSpaceOnUse">
      <polygon class="f" points="1781.84 316.45 1643.59 236.63 1505.33 156.81 1367.08 76.99 1228.82 -2.83 980.89 40.89 732.96 84.6 485.03 128.32 237.1 172.04 -10.84 215.75 127.42 295.57 265.67 375.4 403.93 455.22 542.18 535.04 680.44 614.86 928.37 571.14 1176.3 527.43 1424.23 483.71 1672.17 439.99 1920.1 396.28 1781.84 316.45"/>
    </mask>
    <symbol id="a" data-name="Detected Floor" viewBox="0 0 1909.26 612.03">
      <g class="e">
        <g>
          <polygon class="g" points="1142.68 323.6 1277.32 401.33 1518.77 358.76 1384.13 281.02 1142.68 323.6"/>
          <polygon class="g" points="901.23 366.17 1035.87 443.9 1277.32 401.33 1142.68 323.6 901.23 366.17"/>
          <polygon class="g" points="766.58 288.43 525.13 331.01 659.77 408.74 901.23 366.17 766.58 288.43"/>
          <polygon class="g" points="659.77 408.74 794.42 486.48 1035.87 443.9 901.23 366.17 659.77 408.74"/>
          <polygon class="g" points="1384.13 281.02 1625.58 238.45 1490.94 160.71 1249.49 203.29 1384.13 281.02"/>
          <polygon class="g" points="1518.77 358.76 1760.22 316.18 1625.58 238.45 1384.13 281.02 1518.77 358.76"/>
          <polygon class="g" points="1249.49 203.29 1490.94 160.71 1356.3 82.98 1114.85 125.55 1249.49 203.29"/>
          <polygon class="g" points="766.58 288.43 901.23 366.17 1142.68 323.6 1008.04 245.86 766.58 288.43"/>
          <polygon class="g" points="1142.68 323.6 1384.13 281.02 1249.49 203.29 1008.04 245.86 1142.68 323.6"/>
          <polygon class="g" points="1653.41 436.49 1894.86 393.92 1760.22 316.18 1518.77 358.76 1653.41 436.49"/>
          <polygon class="g" points="1249.49 203.29 1114.85 125.55 873.39 168.12 1008.04 245.86 1249.49 203.29"/>
          <polygon class="g" points="631.94 210.7 390.49 253.27 525.13 331.01 766.58 288.43 631.94 210.7"/>
          <polygon class="g" points="1008.04 245.86 873.39 168.12 631.94 210.7 766.58 288.43 1008.04 245.86"/>
          <polygon class="g" points="1114.85 125.55 980.2 47.81 738.75 90.39 873.39 168.12 1114.85 125.55"/>
          <polygon class="g" points="525.13 331.01 283.68 373.58 418.32 451.32 659.77 408.74 525.13 331.01"/>
          <polygon class="g" points="659.77 408.74 418.32 451.32 552.96 529.05 794.42 486.48 659.77 408.74"/>
          <polygon class="g" points="1356.3 82.98 1221.66 5.24 980.2 47.81 1114.85 125.55 1356.3 82.98"/>
          <polygon class="g" points="552.96 529.05 687.6 606.79 929.06 564.21 794.42 486.48 552.96 529.05"/>
          <polygon class="g" points="1035.87 443.9 1170.51 521.64 1411.96 479.07 1277.32 401.33 1035.87 443.9"/>
          <polygon class="g" points="1518.77 358.76 1277.32 401.33 1411.96 479.07 1653.41 436.49 1518.77 358.76"/>
          <polygon class="g" points="794.42 486.48 929.06 564.21 1170.51 521.64 1035.87 443.9 794.42 486.48"/>
          <polygon class="g" points="390.49 253.27 149.04 295.85 283.68 373.58 525.13 331.01 390.49 253.27"/>
          <polygon class="g" points="873.39 168.12 738.75 90.39 497.3 132.96 631.94 210.7 873.39 168.12"/>
          <polygon class="g" points="255.85 175.54 14.4 218.11 149.04 295.85 390.49 253.27 255.85 175.54"/>
          <polygon class="g" points="631.94 210.7 497.3 132.96 255.85 175.54 390.49 253.27 631.94 210.7"/>
        </g>
      </g>
    </symbol>
  </defs>
  <use width="1909.26" height="612.03" xlink:href="#a"/>
</svg>