<?xml version="1.0" encoding="UTF-8"?>
<svg id="d" data-name="Background" xmlns="http://www.w3.org/2000/svg" width="592.39" height="659.44" xmlns:xlink="http://www.w3.org/1999/xlink" viewBox="0 0 592.39 659.44">
  <defs>
    <style>
      .e, .f, .g, .h {
        fill: none;
      }

      .i {
        fill: url(#b);
      }

      .f {
        stroke-width: 5px;
      }

      .f, .g {
        stroke: #90ff00;
      }

      .f, .j, .h {
        stroke-linecap: round;
        stroke-linejoin: round;
      }

      .g {
        stroke-miterlimit: 10;
      }

      .g, .j {
        stroke-width: 2.5px;
      }

      .j {
        fill: #fff;
      }

      .j, .h {
        stroke: #666;
      }

      .h {
        stroke-width: 7px;
      }
    </style>
    <pattern id="b" data-name="Detected Hatch flat" x="0" y="0" width="56.12" height="56.12" patternTransform="translate(266.55 289.13)" patternUnits="userSpaceOnUse" viewBox="0 0 56.12 56.12">
      <g>
        <rect class="e" y="0" width="56.12" height="56.12"/>
        <line class="g" x1="28.06" x2="28.06" y2="56.12"/>
        <line class="g" y1="28.06" x2="56.12" y2="28.06"/>
        <rect class="e" y="0" width="56.12" height="56.12"/>
      </g>
    </pattern>
    <symbol id="a" data-name="Detected Chair Border Grid" viewBox="0 0 592.39 659.44">
      <g>
        <use width="570.4" height="635.19" transform="translate(10.99 11)" xlink:href="#c"/>
        <g>
          <path class="i" d="M298.18,656.94c-3.95,0-7.88-.62-11.69-1.85l-232.15-74.72c-10.43-3.35-17.41-12.97-17.36-23.92.04-10.95,7.09-20.52,17.54-23.79l211.27-66.27c1.41-.44,2.84-.83,4.28-1.16l-157.49-42.69c-9.7-2.63-17.44-10.27-20.21-19.93l-18.74-65.52c-.96-1.51-1.72-3.16-2.24-4.9l-25.74-86.57-16.17-5.42c-9.89-3.31-16.57-12.55-16.62-22.98-.05-10.43,6.54-19.73,16.4-23.14l.96-.33L3.32,103.23c-1.53-5.15-.9-10.8,1.75-15.48,2.58-4.57,6.93-7.98,11.98-9.4L254.35,3.68l.29-.08c2.83-.73,5.73-1.11,8.64-1.11,13.73,0,26.11,8.15,31.54,20.77l.29.67,35.6,121.53,5.19,1.66,17.48-5.47,165.7,52.94c26.28,8.4,47.59,28.89,57.03,54.83,1.84,4.8,1.63,10.13-.56,14.73-1.17,2.45-2.85,4.6-4.9,6.32,1.91,7.68,2.87,15.58,2.87,23.6v41.51c10.11,8.95,16.04,21.8,16.16,35.51l.19,22.91c.09,10.61-6.44,19.94-16.35,23.51v126.37c0,11.86-5.49,22.69-15.06,29.69-6.37,4.66-13.86,7.13-21.66,7.13-3.78,0-7.55-.59-11.21-1.75l-189.64-60.16v100.24c0,12.24-5.68,23.4-15.57,30.61-6.54,4.77-14.23,7.29-22.22,7.29h0ZM297,617.53v-111.1l-9-2.85c-1.73-.55-3.51-.83-5.3-.83s-3.54.27-5.25.81l-169.41,53.14,188.97,60.82ZM534.56,540.92v-110.95l-174.44,55.61,174.44,55.34ZM534.56,319.79v-25.71c0-3.54-.31-7.05-.94-10.49l-2.8.88-3.61-11.4c-.59-1.85-1.29-3.69-2.09-5.47-5.92-13.18-17.19-23.26-30.94-27.65l-149.83-47.87,20.56,70.17c1.1,3.77,1.06,7.62.07,11.19l169.57,46.37Z"/>
          <path class="f" d="M298.18,656.94c-3.95,0-7.88-.62-11.69-1.85l-232.15-74.72c-10.43-3.35-17.41-12.97-17.36-23.92.04-10.95,7.09-20.52,17.54-23.79l211.27-66.27c1.41-.44,2.84-.83,4.28-1.16l-157.49-42.69c-9.7-2.63-17.44-10.27-20.21-19.93l-18.74-65.52c-.96-1.51-1.72-3.16-2.24-4.9l-25.74-86.57-16.17-5.42c-9.89-3.31-16.57-12.55-16.62-22.98-.05-10.43,6.54-19.73,16.4-23.14l.96-.33L3.32,103.23c-1.53-5.15-.9-10.8,1.75-15.48,2.58-4.57,6.93-7.98,11.98-9.4L254.35,3.68l.29-.08c2.83-.73,5.73-1.11,8.64-1.11,13.73,0,26.11,8.15,31.54,20.77l.29.67,35.6,121.53,5.19,1.66,17.48-5.47,165.7,52.94c26.28,8.4,47.59,28.89,57.03,54.83,1.84,4.8,1.63,10.13-.56,14.73-1.17,2.45-2.85,4.6-4.9,6.32,1.91,7.68,2.87,15.58,2.87,23.6v41.51c10.11,8.95,16.04,21.8,16.16,35.51l.19,22.91c.09,10.61-6.44,19.94-16.35,23.51v126.37c0,11.86-5.49,22.69-15.06,29.69-6.37,4.66-13.86,7.13-21.66,7.13-3.78,0-7.55-.59-11.21-1.75l-189.64-60.16v100.24c0,12.24-5.68,23.4-15.57,30.61-6.54,4.77-14.23,7.29-22.22,7.29h0ZM297,617.53v-111.1l-9-2.85c-1.73-.55-3.51-.83-5.3-.83s-3.54.27-5.25.81l-169.41,53.14,188.97,60.82ZM534.56,540.92v-110.95l-174.44,55.61,174.44,55.34ZM534.56,319.79v-25.71c0-3.54-.31-7.05-.94-10.49l-2.8.88-3.61-11.4c-.59-1.85-1.29-3.69-2.09-5.47-5.92-13.18-17.19-23.26-30.94-27.65l-149.83-47.87,20.56,70.17c1.1,3.77,1.06,7.62.07,11.19l169.57,46.37Z"/>
        </g>
      </g>
    </symbol>
    <symbol id="c" data-name="World Chair" viewBox="0 0 570.4 635.19">
      <g>
        <path class="j" d="M22.3,217.8c-5.1-1.71-8.41-6.28-8.43-11.66-.03-5.38,3.24-9.99,8.32-11.74l107.26-37.1,4.89,14.15-100.01,34.59"/>
        <path class="j" d="M525.83,557.71c-2.53,0-5.07-.39-7.58-1.18l-213.36-67.69,4.53-14.27,213.36,67.69c3.02.95,6.22.43,8.77-1.44,2.56-1.87,4.02-4.76,4.02-7.93v-249.81c0-30.7-19.65-57.6-48.89-66.95l-212.91-68.03,4.56-14.26,212.91,68.03c35.47,11.33,59.31,43.97,59.31,81.21v249.81c0,7.99-3.7,15.29-10.15,20.01-4.33,3.17-9.4,4.81-14.57,4.81Z"/>
        <g>
          <path class="h" d="M566.71,360.2c-.14-16.11-10.96-30.17-26.5-34.42l-238.31-65.16-224.99,71.72,16,55.95c1.63,5.68,6.1,10.1,11.81,11.65l237.27,64.32h0l216.01-68.86c5.34-1.7,8.95-6.68,8.9-12.29l-.19-22.91Z"/>
          <g>
            <path class="j" d="M566.71,360.2c-.14-16.11-10.96-30.17-26.5-34.42l-238.31-65.16,18.62,65.11-215.8,74.22,237.27,64.32,216.01-68.86c5.34-1.7,8.95-6.68,8.9-12.29l-.19-22.91Z"/>
            <polygon class="j" points="301.9 260.61 76.9 332.34 315.21 397.5 540.2 325.78 301.9 260.61"/>
            <path class="j" d="M76.9,332.34l238.31,65.16c15.54,4.25,26.37,18.31,26.5,34.42l.27,32.34-237.27-64.32c-5.7-1.55-10.18-5.96-11.81-11.65l-16-55.95Z"/>
          </g>
        </g>
        <g>
          <path class="h" d="M342.42,254.61L272.81,17.02c-4.36-10.13-15.46-15.57-26.14-12.79L9.44,78.87c-4.35,1.13-6.89,5.64-5.61,9.94l68.06,228.94c.76,2.56,2.8,4.54,5.39,5.22l42.69,11.26,216.8-69c4.46-1.42,6.97-6.13,5.65-10.62Z"/>
          <g>
            <path class="j" d="M272.81,17.02l69.61,237.59c1.31,4.49-1.2,9.2-5.65,10.62l-216.8,69L9.44,78.87,246.67,4.22c10.68-2.77,21.78,2.66,26.14,12.8h0"/>
            <path class="j" d="M119.97,334.23L47.82,88.49h0c-4.36-10.13-15.46-15.57-26.14-12.8l-12.24,3.18c-4.35,1.13-6.89,5.64-5.61,9.94l68.06,228.93c.76,2.56,2.8,4.54,5.39,5.22l42.69,11.26L47.82,88.49"/>
          </g>
        </g>
        <path class="j" d="M22.3,217.8l228.06,76.43c28.5,9.55,47.65,36.17,47.65,66.23v247.59c0,3.52-1.63,6.74-4.48,8.81-2.85,2.07-6.41,2.64-9.76,1.57l-3.79-1.22-4.71,14.21,3.91,1.26c2.64.85,5.34,1.27,8.01,1.27,5.37,0,10.64-1.7,15.16-4.99,6.76-4.93,10.64-12.55,10.64-20.91v-247.59c0-36.51-23.26-68.83-57.87-80.43L34.33,206.04"/>
        <g>
          <path class="h" d="M311.75,318.51l-.03-.07c-8.05-22.23-26-40.13-49.45-47.62l-162.09-51.79-22.29,6.97h0v13.99l166.79,53.29c17.41,5.56,31.07,18.22,38.23,34.17.99,2.2,1.85,4.45,2.58,6.77l2.95-.92h0l19.02-5.95c3.71-1.16,5.72-5.23,4.28-8.84Z"/>
          <g>
            <path class="j" d="M292.71,324.4l-7.21,9.83,21.97-6.87c3.71-1.16,5.72-5.23,4.28-8.84l-.03-.07-19.02,5.95Z"/>
            <path class="j" d="M292.71,324.4l19.02-5.95c-8.05-22.23-26-40.13-49.45-47.63l-162.09-51.79-22.29,6.97,166.26,53.12c22.62,7.23,40.12,24.14,48.55,45.27Z"/>
            <path class="j" d="M292.73,324.46l-.03-.07c-8.44-21.13-25.94-38.05-48.55-45.27l-166.26-53.12h0v13.99l166.79,53.29c17.41,5.56,31.07,18.22,38.23,34.17.99,2.2,1.85,4.45,2.58,6.77l2.95-.92c3.71-1.16,5.72-5.23,4.28-8.84Z"/>
          </g>
        </g>
        <path class="j" d="M279.18,632.67l-232.16-74.72c-5.43-1.75-9.06-6.75-9.04-12.46.02-5.7,3.69-10.68,9.13-12.39l211.27-66.27c8.77-2.75,18.03-2.73,26.78.04l12.84,4.07v15.71l-17.37-5.51c-5.81-1.84-11.96-1.85-17.77-.03l-205.45,64.45,226.35,72.85"/>
        <g>
          <path class="h" d="M553.92,242.73l-.03-.07c-8.05-22.23-26-40.13-49.45-47.62l-162.09-51.79-22.29,6.97h0v13.99l166.79,53.29c17.41,5.56,31.07,18.22,38.23,34.17.99,2.2,1.85,4.45,2.58,6.77l2.95-.92s0,0,0,0l19.02-5.95c3.71-1.16,5.72-5.23,4.28-8.84Z"/>
          <g>
            <path class="j" d="M534.87,248.61l-7.21,9.83,21.97-6.87c3.71-1.16,5.72-5.23,4.28-8.84l-.03-.07-19.02,5.95Z"/>
            <path class="j" d="M534.87,248.61l19.02-5.95c-8.05-22.23-26-40.13-49.45-47.63l-162.09-51.79-22.29,6.97,166.26,53.12c22.62,7.23,40.12,24.14,48.55,45.27Z"/>
            <path class="j" d="M534.9,248.68l-.03-.07c-8.44-21.13-25.94-38.05-48.55-45.27l-166.26-53.12h0v13.99l166.79,53.29c17.41,5.56,31.07,18.22,38.23,34.17.99,2.2,1.85,4.45,2.58,6.77l2.95-.92c3.71-1.16,5.72-5.23,4.28-8.84Z"/>
          </g>
        </g>
      </g>
    </symbol>
  </defs>
  <use width="592.39" height="659.44" transform="translate(0 0)" xlink:href="#a"/>
</svg>