<?xml version="1.0" encoding="UTF-8"?>
<svg id="a" data-name="Background" xmlns="http://www.w3.org/2000/svg" width="718.21" height="957.38" xmlns:xlink="http://www.w3.org/1999/xlink" viewBox="0 0 718.21 957.38">
  <defs>
    <style>
      .c, .d, .e {
        fill: none;
      }

      .f {
        fill: url(#b);
      }

      .d {
        stroke: #90ff00;
        stroke-miterlimit: 10;
      }

      .d, .g {
        stroke-width: 2.5px;
      }

      .g {
        fill: #fff;
      }

      .g, .e {
        stroke: #3c00ab;
        stroke-linecap: round;
        stroke-linejoin: round;
      }

      .e {
        stroke-width: 5px;
      }
    </style>
    <pattern id="b" data-name="Detected Hatch flat" x="0" y="0" width="56.12" height="56.12" patternTransform="translate(-2173.67 -2108.12)" patternUnits="userSpaceOnUse" viewBox="0 0 56.12 56.12">
      <g>
        <rect class="c" y="0" width="56.12" height="56.12"/>
        <line class="d" x1="28.06" x2="28.06" y2="56.12"/>
        <line class="d" y1="28.06" x2="56.12" y2="28.06"/>
        <rect class="c" y="0" width="56.12" height="56.12"/>
      </g>
    </pattern>
  </defs>
  <path class="e" d="M652.69,294.29c-2.73-6.38-8-10.95-15.47-12.15-6.4.04-12.24,2.51-17.61,5.85-3.67,2.32-7.15,5.17-10.55,8.27-33.48,35.53-79.7,62.78-115.35,94.38-1.63,1.02-3.92.26-5.83.39-5.79-.36-11.13-1.52-16.2-5.46,15.07-32.67,44.27-56.84,59.89-89.46.97-1.91,3.09-4.53,3.62-6.42.81-1.51,3.16-5.34,4.12-6.87.16-1.05.65-1.77,1.25-2.74,9.34-14.17,18.06-32.68,27.4-45.94,1.18-1.19,1.89-2.99,2.85-4.23.53-.44.98-.93,1.3-1.57,4.68-8.06,10.34-17.05,14.56-25.15,5.58-9.62,12.98-20.13,13.05-31.23.3-8.36-4.28-14.99-12.09-20.01-9.3-4.23-18.6-5.78-24.85-2.26-3.03,1.52-5.5,4.32-7.34,7.68-4.87,6.6-9.08,13.64-13.06,20.77-4.34,7.73-8.49,15.58-13.29,23.21-20.81,40.27-50.14,74.24-75.77,110.76-4.03,6.39-6.69,15.54-12.9,19.93-4.41,3.25-9.32,3.89-12.06,1.87-5.82-4.66,1.54-15.75,4.94-20.78,5.18-7.16,10.65-14.02,15.88-21.2,3.69-6.44,8.71-12.76,11.89-19.6.97-1.79,2.53-3.76,3.13-5.72,25.35-47.63,46.08-98.19,74.18-142.72,10.35-20.89-4.82-34.63-25.86-36.61-11.72-.49-20.74,9.61-26.31,19.29-6.87,14.08-14.85,27.07-22.22,40.97-3.13,5.21-4.65,11.17-8.64,15.79-10.63,16.21-23.49,36.76-32.91,53.6-12.92,28.81-25.26,58.56-39.82,86.81-5.08,8.67-20.32,9.38-26.23,1.08-5.42-7.34-2.96-17.31-.57-25.53,10.18-28.86,15.17-58.99,23.05-88.5,5.11-21.3,13.64-44.8,21.69-67.38,4.53-15.53,17.72-38.82-1.03-49.57-13.65-9.03-27.95-5.41-37.63,6.49-3.01,3.68-5.38,8.51-8.21,12.53-8.51,16.05-12.88,33.56-17.62,50.71-2.29,5.57-4.85,11.06-7.42,16.55-25.83,47.99-27.34,106-49.65,156.83-4.19,10.58-6.51,22.23-12.87,31.75-2.77,5.13-4.95,10.53-8.16,15.21-2.06,3.13-4.68,5.94-7.64,8.32-9.18,8.13-16.24,22.17-27.53,27.54-12.34,4.79-26.65,9.71-39.68,1.65-19.86-15.88-33.94-39.83-44.73-62.24-6.83-26.58-68.33-84.6-98.03-49.26-4.11,6.35-5.04,13.44-2.47,17.78,2.23,4.21,5.34,7.21,8.94,10.88,10.28,13.22,20.83,26.11,29.08,41.22,3.41,6.26,8.83,11.39,10.11,18.63,6.01,10.72,12.65,20.37,18.66,30.68,6.01,10.32,11.22,21.46,14.07,35.09.78,4.58,1.34,10.27,2.75,15.09,4.74,15.63,12.31,29.65,19.08,43.69,6.81,13.82,13.47,26.81,16.05,40.91,6.07,74.5-84.92,221.27-157.36,329.96v83.51h197.71c37.35-64.34,84.94-148.88,96.06-173.44,15.32-33.84,34.36-65.57,50.19-99.11,3.47-7.36,6.65-14.16,9.99-20.26,15.1-24.71,39.74-44.32,58.59-66.26,11.19-13.03,21.58-28.53,32.26-43.01,10.32-14.1,19.04-28.19,25.85-42.89,8.82-15.37,17.44-30.15,27.66-43.9,2.23-3.23,4.55-6.47,5.94-10.18,2.2-5.42,5.08-10.29,8.43-14.76,11.81-15.74,29.55-26.55,44.46-38.58,17.38-12.39,34.92-27.54,50.26-43.01,12.35-6.36,20.68-19.16,30.24-29.45,4.76-5.72,9.73-11.6,13.34-18.07,4.36-5.77,5.25-13.48,2.41-20.13Z"/>
  <path class="g" d="M652.69,294.29c-2.73-6.38-8-10.95-15.47-12.15-6.4.04-12.24,2.51-17.61,5.85-3.67,2.32-7.15,5.17-10.55,8.27-33.48,35.53-79.7,62.78-115.35,94.38-1.63,1.02-3.92.26-5.83.39-5.79-.36-11.13-1.52-16.2-5.46,15.07-32.67,44.27-56.84,59.89-89.46.97-1.91,3.09-4.53,3.62-6.42.81-1.51,3.16-5.34,4.12-6.87.16-1.05.65-1.77,1.25-2.74,9.34-14.17,18.06-32.68,27.4-45.94,1.18-1.19,1.89-2.99,2.85-4.23.53-.44.98-.93,1.3-1.57,4.68-8.06,10.34-17.05,14.56-25.15,5.58-9.62,12.98-20.13,13.05-31.23.3-8.36-4.28-14.99-12.09-20.01-9.3-4.23-18.6-5.78-24.85-2.26-3.03,1.52-5.5,4.32-7.34,7.68-4.87,6.6-9.08,13.64-13.06,20.77-4.34,7.73-8.49,15.58-13.29,23.21-20.81,40.27-50.14,74.24-75.77,110.76-4.03,6.39-6.69,15.54-12.9,19.93-4.41,3.25-9.32,3.89-12.06,1.87-5.82-4.66,1.54-15.75,4.94-20.78,5.18-7.16,10.65-14.02,15.88-21.2,3.69-6.44,8.71-12.76,11.89-19.6.97-1.79,2.53-3.76,3.13-5.72,25.35-47.63,46.08-98.19,74.18-142.72,10.35-20.89-4.82-34.63-25.86-36.61-11.72-.49-20.74,9.61-26.31,19.29-6.87,14.08-14.85,27.07-22.22,40.97-3.13,5.21-4.65,11.17-8.64,15.79-10.63,16.21-23.49,36.76-32.91,53.6-12.92,28.81-25.26,58.56-39.82,86.81-5.08,8.67-20.32,9.38-26.23,1.08-5.42-7.34-2.96-17.31-.57-25.53,10.18-28.86,15.17-58.99,23.05-88.5,5.11-21.3,13.64-44.8,21.69-67.38,4.53-15.53,17.72-38.82-1.03-49.57-13.65-9.03-27.95-5.41-37.63,6.49-3.01,3.68-5.38,8.51-8.21,12.53-8.51,16.05-12.88,33.56-17.62,50.71-2.29,5.57-4.85,11.06-7.42,16.55-25.83,47.99-27.34,106-49.65,156.83-4.19,10.58-6.51,22.23-12.87,31.75-2.77,5.13-4.95,10.53-8.16,15.21-2.06,3.13-4.68,5.94-7.64,8.32-9.18,8.13-16.24,22.17-27.53,27.54-12.34,4.79-26.65,9.71-39.68,1.65-19.86-15.88-33.94-39.83-44.73-62.24-6.83-26.58-68.33-84.6-98.03-49.26-4.11,6.35-5.04,13.44-2.47,17.78,2.23,4.21,5.34,7.21,8.94,10.88,10.28,13.22,20.83,26.11,29.08,41.22,3.41,6.26,8.83,11.39,10.11,18.63,6.01,10.72,12.65,20.37,18.66,30.68,6.01,10.32,11.22,21.46,14.07,35.09.78,4.58,1.34,10.27,2.75,15.09,4.74,15.63,12.31,29.65,19.08,43.69,6.81,13.82,13.47,26.81,16.05,40.91,6.07,74.5-84.92,221.27-157.36,329.96v83.51h197.71c37.35-64.34,84.94-148.88,96.06-173.44,15.32-33.84,34.36-65.57,50.19-99.11,3.47-7.36,6.65-14.16,9.99-20.26,15.1-24.71,39.74-44.32,58.59-66.26,11.19-13.03,21.58-28.53,32.26-43.01,10.32-14.1,19.04-28.19,25.85-42.89,8.82-15.37,17.44-30.15,27.66-43.9,2.23-3.23,4.55-6.47,5.94-10.18,2.2-5.42,5.08-10.29,8.43-14.76,11.81-15.74,29.55-26.55,44.46-38.58,17.38-12.39,34.92-27.54,50.26-43.01,12.35-6.36,20.68-19.16,30.24-29.45,4.76-5.72,9.73-11.6,13.34-18.07,4.36-5.77,5.25-13.48,2.41-20.13Z"/>
  <path class="f" d="M-15.72,972.33v-103.05l2.52-3.78c30.27-45.42,74.33-113.12,107.3-176.41,33.76-64.81,49.79-113,47.65-143.26-2.17-11.07-7.7-22.26-13.55-34.1l-1.12-2.27c-1.22-2.53-2.47-5.07-3.72-7.61-5.89-11.95-11.97-24.3-16.2-38.24l-.04-.14c-1.3-4.46-1.97-9-2.56-13.01-.18-1.21-.35-2.39-.53-3.5-2.14-10.04-5.94-19.41-12.3-30.34-2.55-4.38-5.22-8.63-8.04-13.13-3.55-5.65-7.22-11.5-10.73-17.76l-1.25-2.22-.44-2.51c-.28-1.6-2-4.08-3.83-6.71-1.49-2.14-3.17-4.57-4.69-7.36-6.7-12.26-15.17-23.1-24.14-34.57-1.02-1.31-2.04-2.61-3.06-3.92l-.1-.1c-3.72-3.77-7.56-7.66-10.65-13.38-5.36-9.4-4.23-22.08,2.98-33.23l.51-.78.6-.71c9.04-10.76,21.16-16.45,35.05-16.45,23.64,0,45.69,16.42,56.73,26.2,12.46,11.05,27.13,28.18,31.82,43.82,8.17,16.84,20.95,40.23,39.22,55.21,2.06,1.12,4.27,1.65,6.89,1.65,5.47,0,11.95-2.27,18.17-4.67,3.81-2.02,7.97-7.18,12-12.18,3.54-4.39,7.2-8.93,11.64-12.85l.27-.24.28-.22c1.8-1.44,3.35-3.13,4.51-4.88l.16-.24c1.5-2.18,2.89-5.01,4.36-8.01.92-1.88,1.88-3.82,2.96-5.83l.34-.62.4-.59c3.19-4.78,5.27-11.08,7.46-17.75,1.2-3.63,2.43-7.39,3.93-11.18l.1-.25.11-.25c9.66-22,15.17-45.33,21.01-70.04,6.95-29.41,14.14-59.83,28.96-87.5,2.25-4.82,4.57-9.78,6.61-14.7.36-1.29.71-2.59,1.06-3.88,4.44-16.21,9.02-32.96,17.52-48.98l.44-.83.54-.77c.87-1.24,1.8-2.78,2.79-4.41,1.71-2.83,3.64-6.03,6.09-9.01,8.92-10.97,20.86-17.04,33.59-17.04,8.04,0,16.17,2.52,23.53,7.29,11.39,6.72,17.37,17.92,16.85,31.59-.37,9.58-3.68,18.83-6.61,26.99-1.04,2.91-2.03,5.66-2.7,7.96l-.12.42-1.54,4.33c-7.48,20.96-15.21,42.64-19.83,61.93l-.09.37c-2.75,10.28-5.2,20.93-7.58,31.23-4.39,19.04-8.93,38.74-15.68,57.96-2.26,7.88-2.2,10.71-1.81,11.73.18.04.42.07.71.07.39,0,.73-.06.97-.12,10.36-20.23,19.78-41.66,28.89-62.4,3.23-7.34,6.56-14.93,9.89-22.34l.27-.61.32-.58c12.01-21.47,27.4-45.28,33.46-54.51l.54-.82.64-.74c1.04-1.21,2.09-3.51,3.2-5.94,1.03-2.25,2.18-4.79,3.73-7.42,2.93-5.51,5.95-10.89,8.88-16.09,4.61-8.2,8.97-15.95,12.95-24.1l.23-.46.26-.45c9.96-17.29,23.63-26.82,38.49-26.82.48,0,.97.01,1.46.03l.39.02.38.04c17.61,1.66,31.62,9.61,38.43,21.83,5.97,10.71,5.78,23.62-.53,36.37l-.34.69-.41.65c-10.3,16.33-19.52,33.36-28.49,51.03,1.17-2.08,2.33-4.18,3.53-6.34,1.06-1.92,2.13-3.85,3.2-5.76,3.38-6.06,7.96-13.95,13.53-21.58,3.32-5.71,7.76-10.1,12.9-12.77,4.5-2.46,9.67-3.71,15.37-3.71,6.98,0,14.64,1.87,22.74,5.55l.99.45.91.59c12.64,8.12,19.37,19.81,18.98,32.94-.16,13.5-7.09,25.08-12.67,34.4-.76,1.27-1.51,2.52-2.23,3.76-3.04,5.81-6.65,11.84-10.13,17.68-1.53,2.56-3.03,5.08-4.45,7.51-.74,1.35-1.62,2.59-2.66,3.75-.6,1.04-1.5,2.53-2.81,4.08-4.43,6.39-8.81,14.23-13.45,22.51-4.01,7.17-8.15,14.56-12.5,21.26l-.14.93-1.67,2.66c-.94,1.49-2.38,3.86-3.15,5.18-.96,2.34-2.23,4.31-3.22,5.84-.22.34-.54.84-.69,1.09-8.4,17.42-20.01,32.22-31.24,46.55-3.7,4.71-7.32,9.34-10.78,13.97,9.55-7.56,19.42-14.93,29.09-22.15,23.2-17.32,47.19-35.22,66.13-55.32l.39-.42.42-.39c4.56-4.15,8.57-7.28,12.62-9.85l.1-.06c8.7-5.42,17.03-8.08,25.46-8.12h1.24s1.22.19,1.22.19c12.2,1.96,22,9.63,26.89,21.06,4.81,11.28,3.42,24.26-3.58,34.17-4.08,7.07-9.26,13.3-13.85,18.82l-.85,1.02-.28.3c-2.25,2.43-4.49,5.08-6.85,7.88-6.89,8.17-14.65,17.36-25.28,23.48-15.99,15.95-33.34,30.73-50.29,42.84-4.02,3.23-8.2,6.35-12.25,9.38-11.24,8.41-21.87,16.35-29.29,26.24-2.75,3.67-4.87,7.36-6.47,11.26-1.95,5.1-4.82,9.24-7.13,12.59l-.57.83-.16.21c-9.36,12.59-17.5,26.42-26.37,41.87-6.82,14.59-15.68,29.26-27.07,44.83-3.01,4.08-6.03,8.3-8.96,12.38-7.66,10.67-15.58,21.71-24.02,31.54-7.08,8.24-14.88,16.11-22.43,23.73-13.25,13.37-25.77,26-34.56,40.28-2.87,5.28-5.75,11.39-8.8,17.85l-.61,1.3c-7.47,15.83-15.7,31.37-23.66,46.4-9.04,17.08-18.39,34.74-26.43,52.49-12.23,27.02-64.56,119.33-96.75,174.78l-4.34,7.47H-15.72Z"/>
</svg>