<?xml version="1.0" encoding="UTF-8"?>
<svg id="d" data-name="Background" xmlns="http://www.w3.org/2000/svg" width="140.27" height="44.74" xmlns:xlink="http://www.w3.org/1999/xlink" viewBox="0 0 140.27 44.74">
  <defs>
    <style>
      .e {
        fill: none;
      }

      .f {
        fill: #ff6e00;
      }
    </style>
    <symbol id="a" data-name="Anchor 3D Floor" viewBox="0 0 140.27 44.74">
      <g>
        <polygon class="e" points="140.27 28.81 49.89 44.74 0 15.94 90.38 0 140.27 28.81"/>
        <path class="f" d="M54.02,13.07c16.09-2.84,36.41-.97,45.3,4.16,8.88,5.13,3.02,11.61-13.07,14.45-16.09,2.84-36.41.97-45.3-4.16-8.88-5.13-3.02-11.61,13.07-14.45M45.19,7.97c-24.96,4.4-34.02,14.42-20.24,22.37,13.78,7.95,45.18,10.84,70.14,6.44,24.96-4.4,34.02-14.42,20.24-22.37-13.78-7.95-45.18-10.84-70.14-6.44h0Z"/>
      </g>
    </symbol>
    <symbol id="b" data-name="Anchor+Offset 3D Floor" viewBox="0 0 140.27 44.74">
      <g>
        <use width="140.27" height="44.74" xlink:href="#c"/>
        <use width="140.27" height="44.74" transform="translate(0)" xlink:href="#a"/>
      </g>
    </symbol>
    <symbol id="c" data-name="Offset 3D Floor" viewBox="0 0 140.27 44.74">
      <g>
        <polygon class="e" points="140.27 28.81 49.89 44.74 0 15.94 90.38 0 140.27 28.81"/>
        <polygon class="f" points="58.66 15.75 49.35 26.04 81.61 29 90.92 18.71 58.66 15.75 58.66 15.75"/>
      </g>
    </symbol>
  </defs>
  <use width="140.27" height="44.74" xlink:href="#b"/>
</svg>