<?xml version="1.0" encoding="UTF-8"?>
<svg id="d" data-name="Background" xmlns="http://www.w3.org/2000/svg" width="112.94" height="112.94" xmlns:xlink="http://www.w3.org/1999/xlink" viewBox="0 0 112.94 112.94">
  <defs>
    <style>
      .e {
        fill: none;
      }

      .f {
        fill: #ff6e00;
      }
    </style>
    <symbol id="a" data-name="Anchor 2D" viewBox="0 0 112.94 112.94">
      <g>
        <rect class="e" y="0" width="112.94" height="112.94"/>
        <path class="f" d="M56.47,20c20.11,0,36.47,16.36,36.47,36.47s-16.36,36.47-36.47,36.47-36.47-16.36-36.47-36.47S36.36,20,56.47,20M56.47,0C25.28,0,0,25.28,0,56.47s25.28,56.47,56.47,56.47,56.47-25.28,56.47-56.47S87.66,0,56.47,0h0Z"/>
      </g>
    </symbol>
    <symbol id="b" data-name="Anchor+Offset 2D" viewBox="0 0 112.94 112.94">
      <g>
        <use width="112.94" height="112.94" transform="translate(0 0)" xlink:href="#c"/>
        <use width="112.94" height="112.94" xlink:href="#a"/>
      </g>
    </symbol>
    <symbol id="c" data-name="Offset 2D" viewBox="0 0 112.94 112.94">
      <g>
        <rect class="e" y="0" width="112.94" height="112.94"/>
        <polygon class="f" points="56.47 30.5 30.5 56.47 56.47 82.44 82.44 56.47 56.47 30.5 56.47 30.5"/>
      </g>
    </symbol>
  </defs>
  <use width="112.94" height="112.94" xlink:href="#b"/>
</svg>