<?xml version="1.0" encoding="UTF-8"?>
<svg id="d" data-name="Background" xmlns="http://www.w3.org/2000/svg" width="88.69" height="112.94" xmlns:xlink="http://www.w3.org/1999/xlink" viewBox="0 0 88.69 112.94">
  <defs>
    <style>
      .e {
        fill: none;
      }

      .f {
        fill: #ff6e00;
      }
    </style>
    <symbol id="a" data-name="Anchor 3D Backwall" viewBox="0 0 88.69 112.94">
      <g>
        <polygon class="e" points="88.69 97.3 0 112.94 0 15.64 88.69 0 88.69 97.3"/>
        <path class="f" d="M44.34,25.05c15.79-2.78,28.64,9.05,28.64,26.37,0,17.33-12.85,33.69-28.64,36.47-15.79,2.78-28.64-9.05-28.64-26.37,0-17.33,12.85-33.69,28.64-36.47M44.34,7.82C19.85,12.14,0,37.42,0,64.29,0,91.16,19.85,109.44,44.34,105.12c24.49-4.32,44.34-29.6,44.34-56.47,0-26.87-19.85-45.15-44.34-40.83h0Z"/>
      </g>
    </symbol>
    <symbol id="b" data-name="Anchor+Offset 3D Backwall" viewBox="0 0 88.69 112.94">
      <g>
        <use width="88.69" height="112.94" xlink:href="#a"/>
        <use width="88.69" height="112.94" xlink:href="#c"/>
      </g>
    </symbol>
    <symbol id="c" data-name="Offset 3D Backwall" viewBox="0 0 88.69 112.94">
      <g>
        <polygon class="e" points="88.69 97.3 0 112.94 0 15.64 88.69 0 88.69 97.3"/>
        <polygon class="f" points="44.34 34.1 23.95 60.07 44.34 78.85 64.74 52.87 44.34 34.1 44.34 34.1"/>
      </g>
    </symbol>
  </defs>
  <use width="88.69" height="112.94" xlink:href="#b"/>
</svg>