<?xml version="1.0" encoding="UTF-8"?>
<svg id="b" data-name="Background" xmlns="http://www.w3.org/2000/svg" width="568.6" height="634.29" xmlns:xlink="http://www.w3.org/1999/xlink" viewBox="0 0 568.6 634.29">
  <defs>
    <style>
      .c {
        opacity: .7;
      }

      .c, .d {
        fill: #e5f0ff;
      }

      .e {
        fill: #b2d2ff;
      }

      .d, .f, .g, .h, .i, .j {
        stroke: #006aff;
        stroke-linecap: round;
        stroke-linejoin: round;
      }

      .d, .g, .i, .j {
        stroke-width: 2.5px;
      }

      .f {
        stroke-width: 7px;
      }

      .f, .g, .h {
        fill: none;
      }

      .h {
        stroke-width: 5px;
      }

      .i {
        fill: #fff;
      }

      .j {
        fill: #006aff;
      }
    </style>
    <symbol id="a" data-name="Augmented Chair" viewBox="0 0 568.6 634.29">
      <g>
        <path class="i" d="M547.2,216.9c5.1-1.71,8.41-6.28,8.43-11.66.03-5.38-3.24-9.99-8.32-11.74l-11.82-4.09-4.27,14.37,3.95,1.36"/>
        <path class="i" d="M46.72,541.35c-3.02.95-6.22.43-8.77-1.44-2.56-1.87-4.02-4.76-4.02-7.93v-249.81c0-30.7,19.65-57.6,48.89-66.95l171.6-54.83,5.08-17.34-181.24,57.91c-35.47,11.33-59.31,43.97-59.31,81.21v249.81c0,7.99,3.7,15.29,10.15,20.01,4.33,3.17,9.4,4.81,14.57,4.81,2.53,0,5.07-.39,7.58-1.18l213.36-67.69-4.53-14.27-213.36,67.69Z"/>
        <g>
          <g>
            <polygon class="c" points="267.6 259.71 492.6 331.44 254.29 396.6 29.3 324.88 267.6 259.71"/>
            <path class="e" d="M492.6,331.44l-238.31,65.16c-15.54,4.25-26.37,18.31-26.5,34.42l-.27,32.34,237.27-64.32c5.7-1.55,10.18-5.96,11.81-11.65l16-55.95Z"/>
            <path class="c" d="M227.79,431.02c.14-16.11,10.96-30.17,26.5-34.42L29.3,324.88c-15.54,4.25-26.37,18.31-26.5,34.42l-.19,22.91c-.05,5.6,3.56,10.58,8.9,12.29l216.01,68.86h0l.27-32.33Z"/>
          </g>
          <g>
            <g>
              <polygon class="g" points="267.6 259.71 492.6 331.44 254.29 396.6 29.3 324.88 267.6 259.71"/>
              <polygon class="g" points="267.6 259.71 492.6 331.44 254.29 396.6 29.3 324.88 267.6 259.71"/>
            </g>
            <path class="g" d="M492.6,331.44l-238.31,65.16c-15.54,4.25-26.37,18.31-26.5,34.42l-.27,32.34,237.27-64.32c5.7-1.55,10.18-5.96,11.81-11.65l16-55.95Z"/>
            <g>
              <path class="g" d="M227.79,431.02c.14-16.11,10.96-30.17,26.5-34.42L29.3,324.88c-15.54,4.25-26.37,18.31-26.5,34.42l-.19,22.91c-.05,5.6,3.56,10.58,8.9,12.29l216.01,68.86h0l.27-32.33Z"/>
              <path class="g" d="M227.79,431.02c.14-16.11,10.96-30.17,26.5-34.42L29.3,324.88c-15.54,4.25-26.37,18.31-26.5,34.42l-.19,22.91c-.05,5.6,3.56,10.58,8.9,12.29l216.01,68.86h0l.27-32.33Z"/>
            </g>
          </g>
          <path class="h" d="M227.51,463.46l-.1.03v-.06S11.47,394.59,11.47,394.59c-5.41-1.73-9.02-6.7-8.97-12.38l.19-22.91c.14-16.08,11.07-30.28,26.58-34.52l238.31-65.16,225.14,71.76-16.03,56.05c-1.62,5.68-6.18,10.17-11.88,11.72l-237.2,64.3v.06s-.1-.03-.1-.03Z"/>
        </g>
        <g>
          <g>
            <path class="e" d="M449.54,333.33l72.14-245.74h0c4.36-10.13,15.46-15.57,26.14-12.8l12.24,3.18c4.35,1.13,6.89,5.64,5.61,9.94l-68.06,228.93c-.76,2.56-2.8,4.54-5.39,5.22l-42.69,11.26,72.14-245.74"/>
            <path class="c" d="M521.68,87.59c4.36-10.13,15.46-15.57,26.14-12.8l12.24,3.18L322.83,3.32c-10.68-2.77-21.78,2.66-26.14,12.79l-69.61,237.59c-1.31,4.49,1.2,9.2,5.65,10.62l216.8,69,72.14-245.74h0Z"/>
          </g>
          <g>
            <path class="g" d="M449.54,333.33l72.14-245.74h0c4.36-10.13,15.46-15.57,26.14-12.8l12.24,3.18c4.35,1.13,6.89,5.64,5.61,9.94l-68.06,228.93c-.76,2.56-2.8,4.54-5.39,5.22l-42.69,11.26,72.14-245.74"/>
            <g>
              <path class="g" d="M521.68,87.59c4.36-10.13,15.46-15.57,26.14-12.8l12.24,3.18L322.83,3.32c-10.68-2.77-21.78,2.66-26.14,12.79l-69.61,237.59c-1.31,4.49,1.2,9.2,5.65,10.62l216.8,69,72.14-245.74h0Z"/>
              <path class="g" d="M521.68,87.59c4.36-10.13,15.46-15.57,26.14-12.8l12.24,3.18L322.83,3.32c-10.68-2.77-21.78,2.66-26.14,12.79l-69.61,237.59c-1.31,4.49,1.2,9.2,5.65,10.62l216.8,69,72.14-245.74h0Z"/>
            </g>
          </g>
          <path class="h" d="M449.41,333.39l-216.7-68.97c-4.47-1.42-7.04-6.24-5.72-10.74L296.6,16.09c3.55-8.26,11.64-13.59,20.61-13.59,1.9,0,3.8.24,5.65.72l237.23,74.65c2.13.55,3.9,1.91,4.98,3.83,1.08,1.91,1.33,4.13.7,6.24l-68.06,228.94c-.77,2.58-2.86,4.6-5.46,5.29l-42.63,11.25v.04s-.08-.02-.08-.02l-.15.04.02-.08Z"/>
        </g>
        <path class="i" d="M547.2,216.9l-228.06,76.43c-28.5,9.55-47.65,36.17-47.65,66.23v96.32s0,15.71,0,15.71v135.56c0,3.52,1.63,6.74,4.48,8.81,2.85,2.07,6.41,2.64,9.76,1.57l3.79-1.22,4.71,14.21-3.91,1.26c-2.64.85-5.34,1.27-8.01,1.27-5.37,0-10.64-1.7-15.16-4.99-6.76-4.93-10.64-12.55-10.64-20.91v-247.59c0-36.51,23.26-68.83,57.87-80.43l220.78-73.99"/>
        <g>
          <path class="f" d="M491.61,225.1l-22.29-6.97-162.09,51.79c-23.45,7.49-41.41,25.4-49.45,47.62l-.03.07c-1.44,3.61.58,7.68,4.28,8.84l19.02,5.95h0l2.95.92c.73-2.31,1.59-4.57,2.58-6.77,7.16-15.95,20.82-28.61,38.23-34.17l166.79-53.29v-13.99h0Z"/>
          <g>
            <path class="i" d="M276.79,323.5l7.21,9.83-21.97-6.87c-3.71-1.16-5.72-5.23-4.28-8.84l.03-.07,19.02,5.95Z"/>
            <path class="d" d="M276.79,323.5l-19.02-5.95c8.05-22.23,26-40.13,49.45-47.63l162.09-51.79,22.29,6.97-166.26,53.12c-22.62,7.23-40.12,24.14-48.55,45.27Z"/>
            <path class="j" d="M276.77,323.56l.03-.07c8.44-21.13,25.94-38.05,48.55-45.27l166.26-53.12h0v13.99s-166.79,53.29-166.79,53.29c-17.41,5.56-31.07,18.22-38.23,34.17-.99,2.2-1.85,4.45-2.58,6.77l-2.95-.92c-3.71-1.16-5.72-5.23-4.28-8.84Z"/>
          </g>
        </g>
        <path class="i" d="M290.32,631.77l232.16-74.72c5.43-1.75,9.06-6.75,9.04-12.46-.02-5.7-3.69-10.68-9.13-12.39l-211.27-66.27c-8.77-2.75-18.03-2.73-26.78.04l-12.84,4.07v15.71s17.37-5.51,17.37-5.51c5.81-1.84,11.96-1.85,17.77-.03l205.45,64.45-226.35,72.85"/>
        <g>
          <path class="f" d="M249.44,149.32l-22.29-6.97-162.09,51.79c-23.45,7.49-41.41,25.4-49.45,47.62l-.03.07c-1.44,3.61.58,7.68,4.28,8.84l19.02,5.95h0l2.95.92c.73-2.31,1.59-4.57,2.58-6.77,7.16-15.95,20.82-28.61,38.23-34.17l166.79-53.29v-13.99h0Z"/>
          <g>
            <path class="i" d="M34.63,247.71l7.21,9.83-21.97-6.87c-3.71-1.16-5.72-5.23-4.28-8.84l.03-.07,19.02,5.95Z"/>
            <path class="d" d="M34.63,247.71l-19.02-5.95c8.05-22.23,26-40.13,49.45-47.63l162.09-51.79,22.29,6.97-166.26,53.12c-22.62,7.23-40.12,24.14-48.55,45.27Z"/>
            <path class="j" d="M34.6,247.78l.03-.07c8.44-21.13,25.94-38.05,48.55-45.27l166.26-53.12h0v13.99s-166.79,53.29-166.79,53.29c-17.41,5.56-31.07,18.22-38.23,34.17-.99,2.2-1.85,4.45-2.58,6.77l-2.95-.92c-3.71-1.16-5.72-5.23-4.28-8.84Z"/>
          </g>
        </g>
      </g>
    </symbol>
  </defs>
  <use width="568.6" height="634.29" xlink:href="#a"/>
</svg>