<?xml version="1.0" encoding="UTF-8"?>
<svg id="b" data-name="Background" xmlns="http://www.w3.org/2000/svg" width="267.81" height="347.58" xmlns:xlink="http://www.w3.org/1999/xlink" viewBox="0 0 267.81 347.58">
  <defs>
    <style>
      .c {
        fill: #b2d2ff;
      }

      .c, .d, .e {
        stroke: #006aff;
        stroke-linecap: round;
        stroke-linejoin: round;
      }

      .c, .e {
        stroke-width: 2.5px;
      }

      .d {
        fill: none;
        stroke-width: 5px;
      }

      .e {
        fill: #fff;
      }
    </style>
    <symbol id="a" data-name="Augmented Balloon" viewBox="0 0 267.81 347.58">
      <g>
        <g>
          <path class="d" d="M99.83,283.1c.68-.64,3.73-1.62,6.08-.74,1.83-.77,8.41-.24,10.57,1.25,1.38-.77,11.05-1.45,13.52,1.03,5.49-1.87,12.84.57,12.84.57,0,0,3.95-2.29,8.83-.77,2.64-2.05,6.08-1.25,6.62-1.17-16.02-17.47-55.24-7.28-58.45-.17Z"/>
          <polygon class="d" points="152.07 284.13 134.88 314.38 134.29 314.04 151.48 283.79 152.07 284.13"/>
          <polygon class="d" points="106.13 281.92 121.58 314.01 120.97 314.31 105.52 282.21 106.13 281.92"/>
          <polygon class="d" points="116.69 283.12 127.74 312.65 129.77 284.32 130.45 284.37 128.31 314.26 127.65 314.35 116.05 283.36 116.69 283.12"/>
          <polygon class="d" points="143.23 284.98 128.27 314.39 127.67 314.08 142.63 284.67 143.23 284.98"/>
          <path class="d" d="M25.25,61.93c-5.54,16.09-6.96,32.53-5.46,48.88-7.03,1.05-13.83,5.77-16.2,9.62-2.82-19.56-.38-38.63,10.19-55.92,2.01-2.45,5.77-5.25,11.48-2.58Z"/>
          <path class="d" d="M25.25,61.93h0c4.43-9.2,25.92-19.3,42.39-9.54-3.34,12.79-4.61,26.29-4.35,40.14,0,0-.01.01-.02.02-2.13.17-43.74,1.98-43.49,18.26h0c-1.5-16.35-.08-32.79,5.46-48.88Z"/>
          <path class="d" d="M25.25,61.93h0c2.45-7.12,5.71-14.17,9.88-21.11,12.72-22.81,36.92-29.76,52.03-27.95-9.55,11.99-15.81,25.32-19.52,39.52-16.47-9.76-37.96.33-42.39,9.54Z"/>
          <path class="d" d="M13.77,64.51c5.11-8.36,12.12-16.3,21.36-23.69-4.17,6.94-7.43,13.99-9.88,21.11-5.71-2.68-9.47.13-11.48,2.58Z"/>
          <path class="d" d="M63.28,92.55s.01-.01.02-.02c.39,20.74,4.21,42.28,9.65,63.45,0,0,0,0,0,0-18.6,8.8-37.01,12.94-37.01,12.94,0,0-.03.02-.07.04-8.18-18.74-14.26-38.38-16.07-58.15h0c-.26-16.27,41.36-18.09,43.49-18.26Z"/>
          <path class="d" d="M197.55,94.4c1.25-12.86,1.36-25.15-.08-36.43,11.7-2.39,41.22-9.76,47.55,19.87,1.33,11.15.56,22.8-1.76,34.64.49-11.06-27.57-18-45.7-18.09Z"/>
          <path class="d" d="M67.65,52.39s0,0,0,0c3.71-14.2,9.96-27.53,19.52-39.52,10.79-14.54,35.89-12.05,46.12-3.19l-.83,39.43c-22.15-15.68-56.33-8.59-64.8,3.28Z"/>
          <path class="d" d="M197.55,94.4h0c-7.84-6.36-48.14-13.41-65.88-8.14l.78-37.15s0,0,0,0c12.1-8.01,49.14-14.49,64.99,8.86,0,0,.01,0,.02,0,1.44,11.27,1.33,23.57.08,36.43Z"/>
          <path class="d" d="M131.65,86.26c-14.05-3.66-60.29-2.24-68.35,6.27-.26-13.85,1.01-27.35,4.35-40.14,0,0,0,0,0,0,8.46-11.87,42.64-18.96,64.8-3.28l-.78,37.15s-.02,0-.02,0Z"/>
          <path class="d" d="M197.54,94.4h0c-1.97,20.25-6.76,41.86-12.73,62.98,0,0-.02,0-.03-.01-12.3,2.85-48.64-.33-54.5-5.43l1.38-65.68c17.74-5.27,58.04,1.78,65.88,8.14Z"/>
          <path class="d" d="M131.65,86.26s.02,0,.02,0l-1.38,65.68h0c-4.15,1.92-39.81,7.98-57.34,4.04-5.44-21.17-9.26-42.71-9.65-63.45,8.06-8.5,54.3-9.93,68.35-6.27Z"/>
          <path class="d" d="M243.25,112.49c-3.69,18.8-11.3,38.11-20.65,56.77,0,0,0,0,0,0,0,0-14.87.74-37.77-11.87,5.98-21.13,10.77-42.74,12.73-62.98,18.13.08,46.19,7.03,45.7,18.09Z"/>
          <path class="d" d="M197.46,57.97c-2.3-18.01-8.57-33.4-20.5-44.22,19.43-9.14,45.09,14.21,52.21,25.25,9.25,11.81,14.17,24.94,15.84,38.84-6.33-29.63-35.85-22.26-47.55-19.87Z"/>
          <path class="d" d="M19.78,110.81c1.81,19.77,7.89,39.41,16.07,58.15-.82.42-9.55,5.02-11.21,9.77-10.33-19.09-18.27-38.94-21.06-58.3,2.37-3.85,9.17-8.57,16.2-9.62Z"/>
          <path class="d" d="M245.03,77.9s0-.04-.01-.06c-1.66-13.9-6.58-27.04-15.84-38.84,20.17,14.26,30.82,30.68,34.56,48.35-7.59-11.1-15.25-9.57-18.71-9.45Z"/>
          <path class="d" d="M243.25,112.52s0-.02,0-.03c2.33-11.85,3.1-23.49,1.76-34.64,0,.02,0,.04.01.06,3.46-.11,11.12-1.64,18.71,9.45,2.49,11.79,1.91,24.14-.98,36.79-1.22-2.29-5.71-8.53-19.5-11.62Z"/>
          <path class="d" d="M128.04,258.3c-8.36,1.84-18.96,1.42-20.83,1.04-9.66-28.84-24.54-65.51-34.26-103.36,17.53,3.94,53.19-2.12,57.34-4.04h0l-2.24,106.36s0,0,0,0Z"/>
          <polygon class="d" points="113.83 279.88 129.07 314.15 128.42 314.29 127.3 279.66 127.98 279.64 129.1 314.27 128.45 314.42 113.21 280.16 113.83 279.88"/>
          <path class="d" d="M128.04,258.3s0,0,0,0l-.45,21.55c-4.99-2.49-10.1-2.26-14.07.35-1.62-6.34-3.79-13.34-6.31-20.87,1.87.38,12.47.8,20.83-1.04Z"/>
          <polygon class="d" points="100.22 282.46 117.47 308.34 103.3 281.58 103.9 281.25 121.23 313.99 120.65 314.35 99.65 282.84 100.22 282.46"/>
          <path class="d" d="M91.66,262.27c2-.04,7.56-.68,15.53-2.94,0,0,.01,0,.02,0,2.52,7.52,4.69,14.53,6.31,20.87-3.74-.59-7.06-.2-9.81,1.3-2.98-5.44-7.15-11.91-12.05-19.23h0Z"/>
          <path class="d" d="M107.19,259.33c-7.97,2.26-13.53,2.9-15.53,2.94h0c-16.02-23.89-39.89-56.88-55.81-93.32.04-.02.07-.04.07-.04,0,0,18.41-4.14,37.01-12.94,0,0,0,0,0,0,9.72,37.85,24.6,74.52,34.26,103.36,0,0-.01,0-.02,0Z"/>
          <polygon class="d" points="142.96 279.82 129.07 314.41 128.44 314.16 142.33 279.56 142.96 279.82"/>
          <path class="d" d="M149.13,259.44h0c-3.4,9.24-5.79,16.33-6.53,20.53-4.55-4.2-10.68-2.27-15-.11,0,0-.01,0-.02,0l.45-21.55c7.87,2.58,21.09,1.14,21.09,1.14Z"/>
          <path class="d" d="M149.13,259.44s-13.22,1.44-21.09-1.14l2.24-106.36c5.86,5.1,42.2,8.29,54.5,5.43,0,0,.02,0,.03.01-11.31,39.97-26.88,78.19-35.68,102.05h0Z"/>
          <path class="d" d="M103.71,281.5c-1.45.27-3.07,1.01-3.88,1.6-3.76-5.11-8.78-11.36-14.55-18.53.92-.26,3.23-.97,6.38-2.3,4.9,7.31,9.08,13.79,12.05,19.23Z"/>
          <path class="d" d="M35.85,168.95c15.91,36.44,39.79,69.43,55.81,93.32-3.15,1.33-5.46,2.04-6.38,2.3-17.77-22.04-42.76-52.81-60.63-85.85,1.66-4.75,10.39-9.35,11.21-9.77Z"/>
          <polygon class="d" points="152.5 281.16 153.1 281.5 137.26 310.09 157.82 282.74 158.36 283.16 134.86 314.42 134.29 314.04 152.5 281.16"/>
          <path class="d" d="M164.55,262.09c-5.22,7.82-9.36,14.39-11.79,19.37-2.45-1.6-6.2-3.26-10.15-1.49.73-4.2,3.13-11.29,6.53-20.53,0,0,5.96,2.28,15.42,2.65Z"/>
          <path class="d" d="M149.13,259.44c8.8-23.86,24.37-62.08,35.68-102.05,22.91,12.61,37.77,11.87,37.77,11.87,0,0,0,0,0,0-18.11,36.14-42.72,69.87-58.04,92.83-9.45-.37-15.41-2.65-15.42-2.65Z"/>
          <path class="d" d="M164.56,262.09c2.75,2.16,6.73,3.39,8.21,3.81-5.04,6-9.91,11.81-14.49,17.37-.85-.75-4.1-1.63-5.53-1.8,2.43-4.99,6.58-11.56,11.79-19.37h0Z"/>
          <path class="d" d="M164.55,262.09c15.32-22.96,39.94-56.69,58.04-92.83.19.09,10.13,4.92,13.67,13.7-18.31,29.16-42.4,57.81-63.5,82.94-1.49-.41-5.47-1.65-8.21-3.81h0Z"/>
          <path class="d" d="M197.46,57.97s-.01,0-.02,0c-15.85-23.35-52.89-16.87-64.99-8.86,0,0,0,0,0,0l.83-39.43s0,0,0,0c15-14.77,36.81-2.99,43.63,4.09.02,0,.03-.01.05-.02,11.93,10.82,18.2,26.2,20.5,44.22Z"/>
          <path class="d" d="M222.59,169.26c9.35-18.67,16.96-37.98,20.65-56.77,0,0,0,.02,0,.03,13.79,3.1,18.29,9.34,19.5,11.62-4.4,19.22-14.12,39.14-26.48,58.82-3.54-8.78-13.49-13.61-13.67-13.7Z"/>
          <path class="d" d="M117.75,340.98c.34.01,5.29.69,10.26.68,4.95,0,9.92-.7,10.37-.68.76.02,1.24-.88,1.42-1.58,0,.5,0,.97,0,1.38-.18.7-.66,1.59-1.41,1.56-.46-.01-5.43.68-10.37.68-4.97,0-9.92-.67-10.26-.68-.6-.03-1.38-.62-1.6-1.16,0-.42,0-.89-.01-1.4.21.55,1,1.17,1.61,1.2Z"/>
          <path class="d" d="M117.75,342.35c.34.01,5.29.69,10.26.68,4.95,0,9.92-.7,10.37-.68.75.03,1.23-.87,1.41-1.56,0,.26,0,.5,0,.7-.18.69-.66,1.57-1.4,1.54-.46-.02-5.43.68-10.37.68-4.97,0-9.92-.67-10.26-.68-.59-.03-1.35-.6-1.59-1.14,0-.21,0-.45,0-.71.23.54,1,1.14,1.6,1.16Z"/>
          <path class="d" d="M117.75,340.3c.34.01,5.29.69,10.26.68,4.95,0,9.92-.7,10.37-.68.76.02,1.24-.89,1.42-1.59,0,.23,0,.46,0,.69-.18.7-.66,1.6-1.42,1.58-.46-.01-5.43.67-10.37.68-4.97,0-9.92-.67-10.26-.68-.61-.02-1.41-.65-1.61-1.2,0-.23,0-.46,0-.69.2.56,1,1.19,1.62,1.21Z"/>
          <path class="d" d="M117.75,338.94c.34.01,5.29.69,10.26.68,4.95-.01,9.92-.7,10.37-.68.76.02,1.24-.89,1.42-1.59,0,.47,0,.93,0,1.36-.18.7-.66,1.61-1.42,1.59-.46-.02-5.43.67-10.37.68-4.97,0-9.92-.67-10.26-.68-.62-.02-1.42-.66-1.62-1.21,0-.44,0-.9,0-1.37.19.55,1,1.19,1.62,1.22Z"/>
          <path class="d" d="M117.75,343.03c.34.01,5.29.69,10.26.68,4.95,0,9.92-.7,10.37-.68.74.02,1.22-.85,1.4-1.54,0,.49-.01.82-.02.92-.06.68-.57,2.02-1.48,1.99-.45-.01-5.38.68-10.28.68-4.93,0-9.83-.67-10.17-.68-.67-.03-1.56-.78-1.65-1.36-.01-.1-.03-.52-.04-1.14.24.53,1,1.11,1.59,1.14Z"/>
          <path class="d" d="M138.38,330.76c-.46-.01-5.43.68-10.37.68-4.97,0-9.92-.66-10.26-.68-.52-.02-1.18-.48-1.49-.96.26-1.19,1.19-2.66,1.92-2.68.4,0,5.02.65,9.77.64,5.06-.01,10.26-.69,10.62-.64.56.09.96,1.42,1.12,2.39-.23.62-.67,1.26-1.31,1.25Z"/>
          <path class="d" d="M138.38,332.12c-.46-.01-5.43.68-10.37.69-4.97,0-9.92-.67-10.26-.69-.58-.02-1.33-.59-1.58-1.12,0-.35.02-.62.02-.76.01-.14.03-.29.07-.45.31.48.97.94,1.49.96.34.02,5.29.69,10.26.68,4.95,0,9.92-.69,10.37-.68.64.02,1.08-.62,1.31-1.25.04.26.07.5.08.68,0,.07,0,.23,0,.44-.2.69-.67,1.52-1.39,1.5Z"/>
          <path class="d" d="M117.75,334.85c.34.01,5.29.69,10.26.68,4.95,0,9.92-.7,10.37-.68.75.02,1.23-.86,1.41-1.56,0,.43,0,.88,0,1.35-.18.7-.66,1.6-1.41,1.57-.46-.01-5.43.68-10.37.68-4.97,0-9.92-.67-10.26-.68-.62-.02-1.42-.66-1.62-1.21,0-.46,0-.91,0-1.34.21.55,1,1.17,1.61,1.19Z"/>
          <path class="d" d="M117.75,338.26c.34.02,5.29.69,10.26.69,4.95,0,9.92-.7,10.37-.69.76.02,1.24-.88,1.42-1.59v.68c-.17.7-.66,1.61-1.42,1.59-.46-.01-5.43.67-10.37.68-4.97,0-9.92-.67-10.26-.68-.62-.03-1.43-.67-1.62-1.22,0-.23,0-.45,0-.69.19.55,1,1.2,1.62,1.22Z"/>
          <path class="d" d="M117.75,334.17c.34.01,5.29.69,10.26.68,4.95,0,9.92-.7,10.37-.68.75.02,1.22-.85,1.41-1.55,0,.22,0,.44,0,.67-.18.7-.66,1.58-1.41,1.56-.46-.01-5.43.68-10.37.68-4.97,0-9.92-.67-10.26-.68-.61-.03-1.4-.64-1.61-1.19,0-.23,0-.45,0-.67.22.55,1,1.15,1.61,1.18Z"/>
          <path class="d" d="M117.75,332.8c.34.01,5.29.69,10.26.68,4.95,0,9.92-.7,10.37-.68.73.02,1.21-.83,1.4-1.52,0,.38,0,.83,0,1.33-.18.7-.66,1.57-1.41,1.55-.46-.01-5.43.68-10.37.68-4.97,0-9.92-.67-10.26-.68-.61-.03-1.39-.63-1.61-1.18,0-.49,0-.93.01-1.32.24.53,1,1.11,1.59,1.14Z"/>
          <path class="d" d="M117.75,332.12c.34.02,5.29.69,10.26.69,4.95,0,9.92-.7,10.37-.69.73.02,1.2-.8,1.39-1.5,0,.18,0,.4,0,.66-.19.69-.66,1.54-1.4,1.52-.46-.02-5.43.67-10.37.68-4.97.01-9.92-.67-10.26-.68-.59-.03-1.35-.6-1.59-1.14,0-.25,0-.47.01-.66.25.53,1,1.09,1.58,1.12Z"/>
          <path class="d" d="M117.75,336.21c.34.01,5.29.69,10.26.68,4.95,0,9.92-.7,10.37-.68.76.03,1.23-.88,1.41-1.57,0,.22,0,.45,0,.68-.18.7-.66,1.6-1.41,1.58-.46-.01-5.43.68-10.37.68-4.97,0-9.92-.67-10.26-.68-.62-.03-1.43-.66-1.62-1.22,0-.23,0-.45,0-.68.2.55,1,1.19,1.62,1.21Z"/>
          <path class="d" d="M117.75,336.89c.34.01,5.29.69,10.26.68,4.95,0,9.92-.69,10.37-.68.76.02,1.24-.88,1.41-1.58,0,.45,0,.9,0,1.35-.18.71-.66,1.61-1.42,1.59-.46-.01-5.43.68-10.37.69-4.97,0-9.92-.67-10.26-.69-.62-.02-1.43-.67-1.62-1.22,0-.45,0-.91,0-1.36.19.56,1,1.19,1.62,1.22Z"/>
          <path class="d" d="M139.56,328.88c-.18.59-.53,1.28-1,1.42-2.19.24-6.34.73-10.52.75-4.11.02-8.25-.45-10.56-.68-.56-.23-.99-.6-1.13-.91.35-1.11,1.17-2.32,1.83-2.33.4,0,5.05.65,9.81.64,5.05-.01,10.22-.69,10.58-.64.44.07.79.92.99,1.76Z"/>
          <polygon class="d" points="135.11 313.77 137.95 327.41 136.76 327.41 134.08 314.97 128.8 315.14 128.8 327.82 127.15 327.82 127.15 315.08 121.64 315.19 119.6 327.52 118.29 327.52 120.39 313.77 135.11 313.77"/>
          <polygon class="d" points="124.63 336.64 124.46 339.56 120.92 339.35 121.09 336.43 124.63 336.64"/>
          <polygon class="d" points="124.04 337.07 123.93 339.07 121.5 338.92 121.62 336.92 124.04 337.07"/>
        </g>
        <g>
          <path class="e" d="M99.83,283.1c.68-.64,3.73-1.62,6.08-.74,1.83-.77,8.41-.24,10.57,1.25,1.38-.77,11.05-1.45,13.52,1.03,5.49-1.87,12.84.57,12.84.57,0,0,3.95-2.29,8.83-.77,2.64-2.05,6.08-1.25,6.62-1.17-16.02-17.47-55.24-7.28-58.45-.17Z"/>
          <polygon class="e" points="152.07 284.13 134.88 314.38 134.29 314.04 151.48 283.79 152.07 284.13"/>
          <polygon class="e" points="106.13 281.92 121.58 314.01 120.97 314.31 105.52 282.21 106.13 281.92"/>
          <polygon class="e" points="116.69 283.12 127.74 312.65 129.77 284.32 130.45 284.37 128.31 314.26 127.65 314.35 116.05 283.36 116.69 283.12"/>
          <polygon class="e" points="143.23 284.98 128.27 314.39 127.67 314.08 142.63 284.67 143.23 284.98"/>
          <path class="e" d="M25.25,61.93c-5.54,16.09-6.96,32.53-5.46,48.88-7.03,1.05-13.83,5.77-16.2,9.62-2.82-19.56-.38-38.63,10.19-55.92,2.01-2.45,5.77-5.25,11.48-2.58Z"/>
          <path class="c" d="M25.25,61.93h0c4.43-9.2,25.92-19.3,42.39-9.54-3.34,12.79-4.61,26.29-4.35,40.14,0,0-.01.01-.02.02-2.13.17-43.74,1.98-43.49,18.26h0c-1.5-16.35-.08-32.79,5.46-48.88Z"/>
          <path class="c" d="M25.25,61.93h0c2.45-7.12,5.71-14.17,9.88-21.11,12.72-22.81,36.92-29.76,52.03-27.95-9.55,11.99-15.81,25.32-19.52,39.52-16.47-9.76-37.96.33-42.39,9.54Z"/>
          <path class="e" d="M13.77,64.51c5.11-8.36,12.12-16.3,21.36-23.69-4.17,6.94-7.43,13.99-9.88,21.11-5.71-2.68-9.47.13-11.48,2.58Z"/>
          <path class="c" d="M63.28,92.55s.01-.01.02-.02c.39,20.74,4.21,42.28,9.65,63.45,0,0,0,0,0,0-18.6,8.8-37.01,12.94-37.01,12.94,0,0-.03.02-.07.04-8.18-18.74-14.26-38.38-16.07-58.15h0c-.26-16.27,41.36-18.09,43.49-18.26Z"/>
          <path class="e" d="M197.55,94.4c1.25-12.86,1.36-25.15-.08-36.43,11.7-2.39,41.22-9.76,47.55,19.87,1.33,11.15.56,22.8-1.76,34.64.49-11.06-27.57-18-45.7-18.09Z"/>
          <path class="e" d="M67.65,52.39s0,0,0,0c3.71-14.2,9.96-27.53,19.52-39.52,10.79-14.54,35.89-12.05,46.12-3.19l-.83,39.43c-22.15-15.68-56.33-8.59-64.8,3.28Z"/>
          <path class="c" d="M197.55,94.4h0c-7.84-6.36-48.14-13.41-65.88-8.14l.78-37.15s0,0,0,0c12.1-8.01,49.14-14.49,64.99,8.86,0,0,.01,0,.02,0,1.44,11.27,1.33,23.57.08,36.43Z"/>
          <path class="e" d="M131.65,86.26c-14.05-3.66-60.29-2.24-68.35,6.27-.26-13.85,1.01-27.35,4.35-40.14,0,0,0,0,0,0,8.46-11.87,42.64-18.96,64.8-3.28l-.78,37.15s-.02,0-.02,0Z"/>
          <path class="c" d="M197.54,94.4h0c-1.97,20.25-6.76,41.86-12.73,62.98,0,0-.02,0-.03-.01-12.3,2.85-48.64-.33-54.5-5.43l1.38-65.68c17.74-5.27,58.04,1.78,65.88,8.14Z"/>
          <path class="e" d="M131.65,86.26s.02,0,.02,0l-1.38,65.68h0c-4.15,1.92-39.81,7.98-57.34,4.04-5.44-21.17-9.26-42.71-9.65-63.45,8.06-8.5,54.3-9.93,68.35-6.27Z"/>
          <path class="e" d="M243.25,112.49c-3.69,18.8-11.3,38.11-20.65,56.77,0,0,0,0,0,0,0,0-14.87.74-37.77-11.87,5.98-21.13,10.77-42.74,12.73-62.98,18.13.08,46.19,7.03,45.7,18.09Z"/>
          <path class="e" d="M197.46,57.97c-2.3-18.01-8.57-33.4-20.5-44.22,19.43-9.14,45.09,14.21,52.21,25.25,9.25,11.81,14.17,24.94,15.84,38.84-6.33-29.63-35.85-22.26-47.55-19.87Z"/>
          <path class="e" d="M19.78,110.81c1.81,19.77,7.89,39.41,16.07,58.15-.82.42-9.55,5.02-11.21,9.77-10.33-19.09-18.27-38.94-21.06-58.3,2.37-3.85,9.17-8.57,16.2-9.62Z"/>
          <path class="c" d="M245.03,77.9s0-.04-.01-.06c-1.66-13.9-6.58-27.04-15.84-38.84,20.17,14.26,30.82,30.68,34.56,48.35-7.59-11.1-15.25-9.57-18.71-9.45Z"/>
          <path class="c" d="M243.25,112.52s0-.02,0-.03c2.33-11.85,3.1-23.49,1.76-34.64,0,.02,0,.04.01.06,3.46-.11,11.12-1.64,18.71,9.45,2.49,11.79,1.91,24.14-.98,36.79-1.22-2.29-5.71-8.53-19.5-11.62Z"/>
          <path class="e" d="M128.04,258.3c-8.36,1.84-18.96,1.42-20.83,1.04-9.66-28.84-24.54-65.51-34.26-103.36,17.53,3.94,53.19-2.12,57.34-4.04h0l-2.24,106.36s0,0,0,0Z"/>
          <polygon class="e" points="113.83 279.88 129.07 314.15 128.42 314.29 127.3 279.66 127.98 279.64 129.1 314.27 128.45 314.42 113.21 280.16 113.83 279.88"/>
          <path class="e" d="M128.04,258.3s0,0,0,0l-.45,21.55c-4.99-2.49-10.1-2.26-14.07.35-1.62-6.34-3.79-13.34-6.31-20.87,1.87.38,12.47.8,20.83-1.04Z"/>
          <polygon class="e" points="100.22 282.46 117.47 308.34 103.3 281.58 103.9 281.25 121.23 313.99 120.65 314.35 99.65 282.84 100.22 282.46"/>
          <path class="c" d="M91.66,262.27c2-.04,7.56-.68,15.53-2.94,0,0,.01,0,.02,0,2.52,7.52,4.69,14.53,6.31,20.87-3.74-.59-7.06-.2-9.81,1.3-2.98-5.44-7.15-11.91-12.05-19.23h0Z"/>
          <path class="c" d="M107.19,259.33c-7.97,2.26-13.53,2.9-15.53,2.94h0c-16.02-23.89-39.89-56.88-55.81-93.32.04-.02.07-.04.07-.04,0,0,18.41-4.14,37.01-12.94,0,0,0,0,0,0,9.72,37.85,24.6,74.52,34.26,103.36,0,0-.01,0-.02,0Z"/>
          <polygon class="e" points="142.96 279.82 129.07 314.41 128.44 314.16 142.33 279.56 142.96 279.82"/>
          <path class="c" d="M149.13,259.44h0c-3.4,9.24-5.79,16.33-6.53,20.53-4.55-4.2-10.68-2.27-15-.11,0,0-.01,0-.02,0l.45-21.55c7.87,2.58,21.09,1.14,21.09,1.14Z"/>
          <path class="c" d="M149.13,259.44s-13.22,1.44-21.09-1.14l2.24-106.36c5.86,5.1,42.2,8.29,54.5,5.43,0,0,.02,0,.03.01-11.31,39.97-26.88,78.19-35.68,102.05h0Z"/>
          <path class="e" d="M103.71,281.5c-1.45.27-3.07,1.01-3.88,1.6-3.76-5.11-8.78-11.36-14.55-18.53.92-.26,3.23-.97,6.38-2.3,4.9,7.31,9.08,13.79,12.05,19.23Z"/>
          <path class="e" d="M35.85,168.95c15.91,36.44,39.79,69.43,55.81,93.32-3.15,1.33-5.46,2.04-6.38,2.3-17.77-22.04-42.76-52.81-60.63-85.85,1.66-4.75,10.39-9.35,11.21-9.77Z"/>
          <polygon class="e" points="152.5 281.16 153.1 281.5 137.26 310.09 157.82 282.74 158.36 283.16 134.86 314.42 134.29 314.04 152.5 281.16"/>
          <path class="e" d="M164.55,262.09c-5.22,7.82-9.36,14.39-11.79,19.37-2.45-1.6-6.2-3.26-10.15-1.49.73-4.2,3.13-11.29,6.53-20.53,0,0,5.96,2.28,15.42,2.65Z"/>
          <path class="e" d="M149.13,259.44c8.8-23.86,24.37-62.08,35.68-102.05,22.91,12.61,37.77,11.87,37.77,11.87,0,0,0,0,0,0-18.11,36.14-42.72,69.87-58.04,92.83-9.45-.37-15.41-2.65-15.42-2.65Z"/>
          <path class="c" d="M164.56,262.09c2.75,2.16,6.73,3.39,8.21,3.81-5.04,6-9.91,11.81-14.49,17.37-.85-.75-4.1-1.63-5.53-1.8,2.43-4.99,6.58-11.56,11.79-19.37h0Z"/>
          <path class="c" d="M164.55,262.09c15.32-22.96,39.94-56.69,58.04-92.83.19.09,10.13,4.92,13.67,13.7-18.31,29.16-42.4,57.81-63.5,82.94-1.49-.41-5.47-1.65-8.21-3.81h0Z"/>
          <path class="c" d="M197.46,57.97s-.01,0-.02,0c-15.85-23.35-52.89-16.87-64.99-8.86,0,0,0,0,0,0l.83-39.43s0,0,0,0c15-14.77,36.81-2.99,43.63,4.09.02,0,.03-.01.05-.02,11.93,10.82,18.2,26.2,20.5,44.22Z"/>
          <path class="c" d="M222.59,169.26c9.35-18.67,16.96-37.98,20.65-56.77,0,0,0,.02,0,.03,13.79,3.1,18.29,9.34,19.5,11.62-4.4,19.22-14.12,39.14-26.48,58.82-3.54-8.78-13.49-13.61-13.67-13.7Z"/>
          <path class="e" d="M117.75,340.98c.34.01,5.29.69,10.26.68,4.95,0,9.92-.7,10.37-.68.76.02,1.24-.88,1.42-1.58,0,.5,0,.97,0,1.38-.18.7-.66,1.59-1.41,1.56-.46-.01-5.43.68-10.37.68-4.97,0-9.92-.67-10.26-.68-.6-.03-1.38-.62-1.6-1.16,0-.42,0-.89-.01-1.4.21.55,1,1.17,1.61,1.2Z"/>
          <path class="e" d="M117.75,342.35c.34.01,5.29.69,10.26.68,4.95,0,9.92-.7,10.37-.68.75.03,1.23-.87,1.41-1.56,0,.26,0,.5,0,.7-.18.69-.66,1.57-1.4,1.54-.46-.02-5.43.68-10.37.68-4.97,0-9.92-.67-10.26-.68-.59-.03-1.35-.6-1.59-1.14,0-.21,0-.45,0-.71.23.54,1,1.14,1.6,1.16Z"/>
          <path class="e" d="M117.75,340.3c.34.01,5.29.69,10.26.68,4.95,0,9.92-.7,10.37-.68.76.02,1.24-.89,1.42-1.59,0,.23,0,.46,0,.69-.18.7-.66,1.6-1.42,1.58-.46-.01-5.43.67-10.37.68-4.97,0-9.92-.67-10.26-.68-.61-.02-1.41-.65-1.61-1.2,0-.23,0-.46,0-.69.2.56,1,1.19,1.62,1.21Z"/>
          <path class="e" d="M117.75,338.94c.34.01,5.29.69,10.26.68,4.95-.01,9.92-.7,10.37-.68.76.02,1.24-.89,1.42-1.59,0,.47,0,.93,0,1.36-.18.7-.66,1.61-1.42,1.59-.46-.02-5.43.67-10.37.68-4.97,0-9.92-.67-10.26-.68-.62-.02-1.42-.66-1.62-1.21,0-.44,0-.9,0-1.37.19.55,1,1.19,1.62,1.22Z"/>
          <path class="e" d="M117.75,343.03c.34.01,5.29.69,10.26.68,4.95,0,9.92-.7,10.37-.68.74.02,1.22-.85,1.4-1.54,0,.49-.01.82-.02.92-.06.68-.57,2.02-1.48,1.99-.45-.01-5.38.68-10.28.68-4.93,0-9.83-.67-10.17-.68-.67-.03-1.56-.78-1.65-1.36-.01-.1-.03-.52-.04-1.14.24.53,1,1.11,1.59,1.14Z"/>
          <path class="e" d="M138.38,330.76c-.46-.01-5.43.68-10.37.68-4.97,0-9.92-.66-10.26-.68-.52-.02-1.18-.48-1.49-.96.26-1.19,1.19-2.66,1.92-2.68.4,0,5.02.65,9.77.64,5.06-.01,10.26-.69,10.62-.64.56.09.96,1.42,1.12,2.39-.23.62-.67,1.26-1.31,1.25Z"/>
          <path class="e" d="M138.38,332.12c-.46-.01-5.43.68-10.37.69-4.97,0-9.92-.67-10.26-.69-.58-.02-1.33-.59-1.58-1.12,0-.35.02-.62.02-.76.01-.14.03-.29.07-.45.31.48.97.94,1.49.96.34.02,5.29.69,10.26.68,4.95,0,9.92-.69,10.37-.68.64.02,1.08-.62,1.31-1.25.04.26.07.5.08.68,0,.07,0,.23,0,.44-.2.69-.67,1.52-1.39,1.5Z"/>
          <path class="e" d="M117.75,334.85c.34.01,5.29.69,10.26.68,4.95,0,9.92-.7,10.37-.68.75.02,1.23-.86,1.41-1.56,0,.43,0,.88,0,1.35-.18.7-.66,1.6-1.41,1.57-.46-.01-5.43.68-10.37.68-4.97,0-9.92-.67-10.26-.68-.62-.02-1.42-.66-1.62-1.21,0-.46,0-.91,0-1.34.21.55,1,1.17,1.61,1.19Z"/>
          <path class="e" d="M117.75,338.26c.34.02,5.29.69,10.26.69,4.95,0,9.92-.7,10.37-.69.76.02,1.24-.88,1.42-1.59v.68c-.17.7-.66,1.61-1.42,1.59-.46-.01-5.43.67-10.37.68-4.97,0-9.92-.67-10.26-.68-.62-.03-1.43-.67-1.62-1.22,0-.23,0-.45,0-.69.19.55,1,1.2,1.62,1.22Z"/>
          <path class="e" d="M117.75,334.17c.34.01,5.29.69,10.26.68,4.95,0,9.92-.7,10.37-.68.75.02,1.22-.85,1.41-1.55,0,.22,0,.44,0,.67-.18.7-.66,1.58-1.41,1.56-.46-.01-5.43.68-10.37.68-4.97,0-9.92-.67-10.26-.68-.61-.03-1.4-.64-1.61-1.19,0-.23,0-.45,0-.67.22.55,1,1.15,1.61,1.18Z"/>
          <path class="e" d="M117.75,332.8c.34.01,5.29.69,10.26.68,4.95,0,9.92-.7,10.37-.68.73.02,1.21-.83,1.4-1.52,0,.38,0,.83,0,1.33-.18.7-.66,1.57-1.41,1.55-.46-.01-5.43.68-10.37.68-4.97,0-9.92-.67-10.26-.68-.61-.03-1.39-.63-1.61-1.18,0-.49,0-.93.01-1.32.24.53,1,1.11,1.59,1.14Z"/>
          <path class="e" d="M117.75,332.12c.34.02,5.29.69,10.26.69,4.95,0,9.92-.7,10.37-.69.73.02,1.2-.8,1.39-1.5,0,.18,0,.4,0,.66-.19.69-.66,1.54-1.4,1.52-.46-.02-5.43.67-10.37.68-4.97.01-9.92-.67-10.26-.68-.59-.03-1.35-.6-1.59-1.14,0-.25,0-.47.01-.66.25.53,1,1.09,1.58,1.12Z"/>
          <path class="e" d="M117.75,336.21c.34.01,5.29.69,10.26.68,4.95,0,9.92-.7,10.37-.68.76.03,1.23-.88,1.41-1.57,0,.22,0,.45,0,.68-.18.7-.66,1.6-1.41,1.58-.46-.01-5.43.68-10.37.68-4.97,0-9.92-.67-10.26-.68-.62-.03-1.43-.66-1.62-1.22,0-.23,0-.45,0-.68.2.55,1,1.19,1.62,1.21Z"/>
          <path class="e" d="M117.75,336.89c.34.01,5.29.69,10.26.68,4.95,0,9.92-.69,10.37-.68.76.02,1.24-.88,1.41-1.58,0,.45,0,.9,0,1.35-.18.71-.66,1.61-1.42,1.59-.46-.01-5.43.68-10.37.69-4.97,0-9.92-.67-10.26-.69-.62-.02-1.43-.67-1.62-1.22,0-.45,0-.91,0-1.36.19.56,1,1.19,1.62,1.22Z"/>
          <path class="e" d="M139.56,328.88c-.18.59-.53,1.28-1,1.42-2.19.24-6.34.73-10.52.75-4.11.02-8.25-.45-10.56-.68-.56-.23-.99-.6-1.13-.91.35-1.11,1.17-2.32,1.83-2.33.4,0,5.05.65,9.81.64,5.05-.01,10.22-.69,10.58-.64.44.07.79.92.99,1.76Z"/>
          <polygon class="e" points="135.11 313.77 137.95 327.41 136.76 327.41 134.08 314.97 128.8 315.14 128.8 327.82 127.15 327.82 127.15 315.08 121.64 315.19 119.6 327.52 118.29 327.52 120.39 313.77 135.11 313.77"/>
          <polygon class="e" points="124.63 336.64 124.46 339.56 120.92 339.35 121.09 336.43 124.63 336.64"/>
          <polygon class="e" points="124.04 337.07 123.93 339.07 121.5 338.92 121.62 336.92 124.04 337.07"/>
        </g>
      </g>
    </symbol>
  </defs>
  <use width="267.81" height="347.58" xlink:href="#a"/>
</svg>