<?xml version="1.0" encoding="UTF-8"?>
<svg id="a" data-name="Background" xmlns="http://www.w3.org/2000/svg" width="378.55" height="419.3" viewBox="0 0 378.55 419.3">
  <defs>
    <style>
      .b {
        fill: #b2d2ff;
        opacity: .7;
      }

      .c {
        stroke-width: 8px;
      }

      .c, .d {
        fill: none;
        stroke: #006aff;
        stroke-linecap: round;
        stroke-linejoin: round;
      }

      .d {
        stroke-width: 4px;
      }
    </style>
  </defs>
  <g>
    <path class="d" d="M68.1,358.91c17.12,9.88,46.07,17.68,82.79,21.05,73.45,6.74,150.17-6.79,171.37-30.22,10.6-11.71,5.31-23.68-11.81-33.57-17.12-9.88-46.07-17.68-82.8-21.05-73.45-6.74-150.17,6.79-171.37,30.22-10.6,11.71-5.31,23.68,11.81,33.57h0Z"/>
    <g>
      <path class="b" d="M327,333.12h.08l-.21-.45c-.37-1.06-.87-2.12-1.48-3.17L189.24,37.6,51.41,333.12h.18c-2.94,9.13,3.17,18.09,16.51,25.8,17.12,9.88,46.07,17.68,82.79,21.05,73.45,6.74,150.17-6.79,171.37-30.22,5.04-5.57,6.45-11.2,4.74-16.63Z"/>
      <path class="d" d="M327,333.12h.08l-.21-.45c-.37-1.06-.87-2.12-1.48-3.17L189.24,37.6,51.41,333.12h.18c-2.94,9.13,3.17,18.09,16.51,25.8,17.12,9.88,46.07,17.68,82.79,21.05,73.45,6.74,150.17-6.79,171.37-30.22,5.04-5.57,6.45-11.2,4.74-16.63Z"/>
    </g>
  </g>
  <path class="c" d="M189.22,382.2c-3.53,0-7.1-.04-10.61-.13-9.35-.23-18.69-.77-27.76-1.6-15.36-1.41-29.69-3.62-42.58-6.58-13.98-3.21-25.84-7.18-35.26-11.8-1.81-.89-3.55-1.81-5.15-2.74-.75-.43-1.47-.87-2.18-1.32l-.45-.28c-.7-.45-1.38-.89-2.03-1.34l-.13-.09c-.64-.45-1.26-.9-1.86-1.36l-.22-.17c-.63-.49-1.24-.98-1.83-1.48-7.27-6.25-10.12-13.04-8.28-19.69h-.25L189.24,36.42l136.49,292.63c.68,1.13,1.25,2.35,1.67,3.58l.46.99h-.16c1.09,4.07.46,8.16-1.89,12.18l-.08.13c-.18.31-.37.62-.58.93l-.21.3c-.21.31-.37.54-.54.77-.08.11-.38.49-.38.49l-.11.14c-.11.15-.23.3-.35.44-.24.29-.49.58-.75.87l-.18.21c-5.32,5.88-14.13,11.23-26.18,15.91-26.51,10.29-65.6,16.2-107.23,16.2h0Z"/>
</svg>