<?xml version="1.0" encoding="UTF-8"?>
<svg id="b" data-name="Background" xmlns="http://www.w3.org/2000/svg" width="72.99" height="92.95" xmlns:xlink="http://www.w3.org/1999/xlink" viewBox="0 0 72.99 92.95">
  <defs>
    <style>
      .c {
        fill: none;
      }

      .d {
        fill: #fff;
      }

      .e {
        fill: #006aff;
      }
    </style>
    <symbol id="a" data-name="Augmented Info 3D Backwall" viewBox="0 0 72.99 92.95">
      <g>
        <polygon class="c" points="72.99 80.08 0 92.95 1.11 12.67 72.99 0 72.99 80.08"/>
        <path class="e" d="M37.05,6.34C17.21,9.84.86,30.44.56,52.5c-.31,22.25,15.79,37.56,35.94,34.01,20.15-3.55,36.49-24.59,36.49-46.78,0-22.01-16.1-36.89-35.94-33.4Z"/>
        <path class="d" d="M37.01,12.42c16.81-2.96,30.43,9.66,30.41,28.3-.02,18.77-13.85,36.54-30.88,39.54-17.03,3-30.65-9.93-30.41-28.74.24-18.68,14.07-36.14,30.88-39.1Z"/>
        <path class="e" d="M42.45,27.47c-.02,3.81-2.84,7.39-6.3,8s-6.23-1.99-6.2-5.8c.03-3.8,2.85-7.38,6.3-7.98,3.45-.61,6.22,1.98,6.2,5.78Z"/>
        <path class="e" d="M42.61,64.23c-.05,1.7.66,2.06,2.41,1.95l2.8-.43-.02,3.18-21.87,3.86.03-3.19,3.08-.61c1.84-.39,2.29-1.26,2.44-2.8l.15-19.08c.04-3.01-3.49-1.92-5.97-1.39l.03-3.13,17.07-3.69-.15,25.32Z"/>
      </g>
    </symbol>
  </defs>
  <use width="72.99" height="92.95" xlink:href="#a"/>
</svg>