<?xml version="1.0" encoding="UTF-8"?>
<svg id="b" data-name="Background" xmlns="http://www.w3.org/2000/svg" width="74.29" height="74.29" xmlns:xlink="http://www.w3.org/1999/xlink" viewBox="0 0 74.29 74.29">
  <defs>
    <style>
      .c {
        fill: none;
      }

      .d {
        fill: #fff;
      }

      .e {
        fill: #006aff;
      }
    </style>
    <symbol id="a" data-name="Augmented Info Flat" viewBox="0 0 74.29 74.29">
      <g>
        <rect class="c" x="0" width="74.29" height="74.29"/>
        <path class="e" d="M37.14,0C16.64,0,0,16.64,0,37.14s16.64,37.14,37.14,37.14,37.14-16.64,37.14-37.14S57.65,0,37.14,0Z"/>
        <path class="d" d="M37.14,5.71c17.35,0,31.43,14.08,31.43,31.43s-14.08,31.43-31.43,31.43S5.71,54.49,5.71,37.14,19.79,5.71,37.14,5.71Z"/>
        <path class="e" d="M42.86,20.71c0,3.55-2.88,6.43-6.43,6.43s-6.43-2.88-6.43-6.43,2.88-6.43,6.43-6.43,6.43,2.88,6.43,6.43Z"/>
        <path class="e" d="M43.24,54.84c-.04,1.56.69,2,2.47,2.18l2.86.06v2.93h-22.33v-2.93l3.14-.06c1.88-.06,2.33-.79,2.47-2.18v-17.61c.02-2.79-3.6-2.35-6.15-2.27v-2.9l17.52-.63v23.41Z"/>
      </g>
    </symbol>
  </defs>
  <use width="74.29" height="74.29" xlink:href="#a"/>
</svg>