<?xml version="1.0" encoding="UTF-8"?>
<svg id="a" data-name="Background" xmlns="http://www.w3.org/2000/svg" width="378.55" height="419.3" viewBox="0 0 378.55 419.3">
  <defs>
    <style>
      .b, .c {
        fill: #b2d2ff;
      }

      .c, .d {
        opacity: .7;
      }

      .e {
        stroke-width: 8px;
      }

      .e, .f {
        fill: none;
        stroke: #006aff;
        stroke-linecap: round;
        stroke-linejoin: round;
      }

      .f {
        stroke-width: 4px;
      }
    </style>
  </defs>
  <g>
    <path class="f" d="M54.89,351.05c18.99,10.96,51.1,19.61,91.82,23.35,81.46,7.47,166.55-7.53,190.05-33.51,11.75-12.99,5.89-26.27-13.1-37.23-18.99-10.96-51.1-19.61-91.82-23.35-81.45-7.47-166.55,7.53-190.05,33.51-11.75,12.99-5.89,26.27,13.1,37.23h0Z"/>
    <g>
      <g class="d">
        <path class="b" d="M54.89,115.64c18.99,10.96,51.1,19.61,91.82,23.35,81.46,7.47,166.55-7.53,190.05-33.51,11.75-12.99,5.89-26.27-13.1-37.23-18.99-10.96-51.1-19.61-91.82-23.35-81.45-7.47-166.55,7.53-190.05,33.51-11.75,12.99-5.89,26.27,13.1,37.23h0Z"/>
      </g>
      <path class="f" d="M54.89,115.64c18.99,10.96,51.1,19.61,91.82,23.35,81.46,7.47,166.55-7.53,190.05-33.51,11.75-12.99,5.89-26.27-13.1-37.23-18.99-10.96-51.1-19.61-91.82-23.35-81.45-7.47-166.55,7.53-190.05,33.51-11.75,12.99-5.89,26.27,13.1,37.23h0Z"/>
    </g>
    <g>
      <path class="c" d="M342.56,89.12c.96,5.37-.86,10.89-5.8,16.35-23.51,25.98-108.6,40.99-190.05,33.51-40.73-3.74-72.84-12.39-91.82-23.35-13.77-7.95-20.63-17.12-18.88-26.52h-.28v238.24h0c-.04,8.4,6.76,16.54,19.15,23.7,18.99,10.96,51.1,19.61,91.82,23.35,81.46,7.47,166.55-7.53,190.05-33.51,4.08-4.51,6.04-9.06,6.05-13.53h0V89.12h-.26Z"/>
      <path class="f" d="M342.56,89.12c.96,5.37-.86,10.89-5.8,16.35-23.51,25.98-108.6,40.99-190.05,33.51-40.73-3.74-72.84-12.39-91.82-23.35-13.77-7.95-20.63-17.12-18.88-26.52h-.28v238.24h0c-.04,8.4,6.76,16.54,19.15,23.7,18.99,10.96,51.1,19.61,91.82,23.35,81.46,7.47,166.55-7.53,190.05-33.51,4.08-4.51,6.04-9.06,6.05-13.53h0V89.12h-.26Z"/>
    </g>
  </g>
  <path class="e" d="M189.21,376.82c-14.33,0-28.65-.65-42.55-1.92-14.98-1.37-29.11-3.44-42-6.15-3.13-.66-6.22-1.36-9.2-2.09-1.97-.48-3.93-.99-5.82-1.5-1.88-.51-3.75-1.04-5.56-1.59-4.5-1.35-8.78-2.79-12.74-4.31-.79-.3-1.57-.61-2.34-.92-1.31-.52-2.57-1.06-3.81-1.6-.55-.24-1.09-.48-1.63-.73-2.46-1.11-4.77-2.26-6.87-3.4-.66-.36-1.31-.72-1.94-1.08l-.12-.07c-.7-.41-1.38-.82-2.05-1.23l-.6-.38c-.48-.3-.95-.6-1.4-.91l-.59-.4c-.53-.36-1.04-.72-1.54-1.08l-.28-.2c-.59-.43-1.15-.86-1.7-1.3l-.4-.33c-.42-.34-.82-.67-1.21-1.01l-.45-.39c-.41-.36-.8-.72-1.18-1.09l-.27-.26c-.47-.46-.92-.92-1.35-1.38l-.17-.19c-.36-.4-.71-.8-1.04-1.2l-.28-.35c-.31-.38-.6-.77-.88-1.15l-.2-.27c-.67-.95-1.26-1.93-1.76-2.91l-.14-.28c-.2-.42-.39-.83-.56-1.24l-.11-.27c-.4-1-.7-2.01-.91-3.02l-.02-.13c-.1-.52-.16-.96-.21-1.4l-.03-.27c-.03-.35-.05-.68-.06-1h0v-.5s0-238.74,0-238.74h.37c.76-3.57,2.72-7.11,5.82-10.55,18.96-20.96,79.79-35.6,147.92-35.6,14.33,0,28.65.65,42.55,1.92,39.47,3.62,72.15,11.94,92.03,23.41,11,6.35,17.58,13.53,19.07,20.81h.34v239.24h-.02c-.01.38-.04.76-.09,1.17l-.02.13c-.07.55-.15,1.04-.25,1.52l-.05.25c-.25,1.07-.6,2.16-1.07,3.22l-.16.36c-.21.45-.43.91-.68,1.36l-.13.25c-.29.51-.61,1.04-.96,1.57l-.23.33c-.29.42-.59.83-.91,1.25l-.33.43c-.41.51-.84,1.03-1.3,1.54-.74.81-1.55,1.63-2.41,2.43-.86.8-1.79,1.59-2.76,2.36-1.93,1.53-4.12,3.04-6.51,4.5-2.36,1.44-4.97,2.85-7.75,4.2-.7.34-1.4.67-2.12,1-1.41.65-2.91,1.3-4.45,1.94-1.52.63-3.11,1.26-4.72,1.86-29.35,10.99-72.06,17.3-117.18,17.3Z"/>
</svg>