<?xml version="1.0" encoding="UTF-8"?>
<svg id="b" data-name="Background" xmlns="http://www.w3.org/2000/svg" width="181.15" height="457.04" xmlns:xlink="http://www.w3.org/1999/xlink" viewBox="0 0 181.15 457.04">
  <defs>
    <style>
      .c {
        fill: none;
      }

      .d {
        fill: #fff;
      }

      .e {
        fill: #006aff;
      }
    </style>
    <symbol id="a" data-name="Augmented Info 3D Sidewall" viewBox="0 0 181.15 457.04">
      <g>
        <path class="e" d="M90.58,109.85c-33.67-19.44-60.99,17.95-60.99,83.46,0,65.51,27.33,134.45,60.99,153.89,33.67,19.44,60.99-17.95,60.99-83.46,0-65.51-27.33-134.45-60.99-153.89Z"/>
        <path class="d" d="M90.58,128.11c28.49,16.45,51.61,74.78,51.61,130.21,0,55.43-23.12,87.07-51.61,70.62-28.49-16.45-51.61-74.78-51.61-130.21,0-55.43,23.12-87.07,51.61-70.62Z"/>
        <path class="e" d="M99.96,181.45c0,11.34-4.73,17.81-10.56,14.45-5.83-3.37-10.56-15.29-10.56-26.63,0-11.34,4.73-17.81,10.56-14.45,5.83,3.37,10.56,15.29,10.56,26.63Z"/>
        <path class="e" d="M100.58,290.82c-.06,4.95,1.14,7.05,4.06,9.32l4.7,2.9v9.35s-36.66-21.17-36.66-21.17v-9.35s5.16,2.8,5.16,2.8c3.09,1.6,3.83-.31,4.06-4.63v-56.26c.03-8.89-5.91-10.92-10.09-13.07v-9.26s28.78,14.6,28.78,14.6v74.78Z"/>
        <polygon class="c" points="181.15 457.04 0 352.46 0 0 181.15 104.59 181.15 457.04"/>
      </g>
    </symbol>
  </defs>
  <use width="181.15" height="457.04" xlink:href="#a"/>
</svg>