<?xml version="1.0" encoding="UTF-8"?>
<svg id="a" data-name="Background" xmlns="http://www.w3.org/2000/svg" width="284.29" height="284.29" viewBox="0 0 284.29 284.29">
  <defs>
    <style>
      .b {
        fill: #3c00ab;
        opacity: .5;
      }
    </style>
  </defs>
  <path class="b" d="M64.32,137.95c-4.9-1.5-9.25-3.18-12.53-4.97-3.04-1.66-4.89-3.54-4.12-5.47.74-1.86,3.63-3.69,8.28-4.85,9.03-2.26,21.28-2.37,32.17-1.89,12.4.55,24.9,1.79,36.13,3.54,18.2,2.84,31.77,7.54,46.31,11.88,11.24,3.35,22.79,6.63,35.46,9.43,13.52,2.98,36.21,6.9,29.6,13.33-3.3,3.21-13.64,5.24-24.07,4.72-9.06-.45-17.08-2.34-23.65-4.27-8.29-2.44-16.31-4.96-25.48-7.08-10.67-2.47-22.78-4.18-35.67-5.06-15.54-1.07-30.72-2.33-44.52-4.95-6.2-1.18-12.42-2.65-17.92-4.34Z"/>
</svg>