<?xml version="1.0" encoding="UTF-8"?>
<svg id="a" data-name="Background" xmlns="http://www.w3.org/2000/svg" width="284.29" height="284.29" viewBox="0 0 284.29 284.29">
  <defs>
    <style>
      .b {
        fill: #3c00ab;
      }

      .c {
        opacity: .5;
      }
    </style>
  </defs>
  <g class="c">
    <g>
      <path class="b" d="M74.05,113.51c-5.81-1.9-12.27-3.59-19.16-4.86-6.38-1.18-13.64-1.88-21.05-1.57-7.14.3-14.16,1.45-18.61,3.28-8.63,3.55-9,8.34-7.09,12.59,2.18,4.84,7.03,9.72,13.83,14.09,11.02,7.09,29.16,12.36,45.92,18.01,12.96,4.37,25.62,8.86,36.46,13.79,11.55,5.26,26.72,14.1,51.4,11.46,12.33-1.32,20.06-5.37,18-9.44-1.79-3.54-9.07-6.66-16.57-9.21-9.44-3.22-19.15-6.34-27.37-9.9-9.57-4.15-16.19-8.87-19.66-13.9-4.19-6.07-9.13-11.99-19.3-17.36-4.57-2.42-10.27-4.83-16.8-6.97Z"/>
      <path class="b" d="M133.22,103.08c-1.96-2.58-3-5.22-2.7-7.76.27-2.35,2.26-4.69,7.04-6.52,4.6-1.77,11.38-3.05,18.59-3.28,14.01-.44,26.91,2,37.19,4.79,11.69,3.16,22.05,7.07,30.04,11.23,12.96,6.75,17.29,14.45,23.36,21.99,4.69,5.83,9.86,11.63,17.19,17.19,7.81,5.92,23.2,14.72,3.08,19.98-10.06,2.63-24.94,2.56-34.64-.16-8.44-2.37-12.84-5.99-15.63-9.38-3.52-4.26-6.63-8.54-11.72-12.66-5.92-4.79-14.93-9.09-26.43-12.71-13.87-4.36-26.96-8.85-35.81-14.45-3.98-2.52-7.36-5.35-9.56-8.25Z"/>
    </g>
  </g>
</svg>