<?xml version="1.0" encoding="UTF-8"?>
<svg id="a" data-name="Background" xmlns="http://www.w3.org/2000/svg" width="284.29" height="284.29" viewBox="0 0 284.29 284.29">
  <defs>
    <style>
      .b {
        fill: #3c00ab;
      }

      .c {
        opacity: .5;
      }
    </style>
  </defs>
  <g class="c">
    <path class="b" d="M212.64,163.11c1.96,2.58,3,5.22,2.7,7.76-.27,2.35-2.26,4.69-7.04,6.52-4.6,1.77-11.38,3.05-18.59,3.28-14.01.44-26.91-2-37.19-4.79-11.69-3.16-22.05-7.07-30.04-11.23-12.96-6.75-17.29-14.45-23.36-21.99-4.69-5.83-9.86-11.63-17.19-17.19-7.81-5.92-23.2-14.72-3.08-19.98,10.06-2.63,24.94-2.56,34.64.16,8.44,2.37,12.84,5.99,15.63,9.38,3.52,4.26,6.63,8.54,11.72,12.66,5.92,4.79,14.93,9.09,26.43,12.71,13.87,4.36,26.96,8.85,35.81,14.45,3.98,2.52,7.36,5.35,9.56,8.25Z"/>
  </g>
</svg>