<?xml version="1.0" encoding="UTF-8"?>
<svg id="a" data-name="Background" xmlns="http://www.w3.org/2000/svg" width="718.21" height="957.38" viewBox="0 0 718.21 957.38">
  <defs>
    <style>
      .b {
        fill: #fff;
        stroke: #3c00ab;
        stroke-linecap: round;
        stroke-linejoin: round;
        stroke-width: 5px;
      }
    </style>
  </defs>
  <path class="b" d="M652.69,294.29c-2.73-6.38-8-10.95-15.47-12.15-6.4.04-12.24,2.51-17.61,5.85-3.67,2.32-7.15,5.17-10.55,8.27-33.48,35.53-79.7,62.78-115.35,94.38-1.63,1.02-3.92.26-5.83.39-5.79-.36-11.13-1.52-16.2-5.46,15.07-32.67,44.27-56.84,59.89-89.46.97-1.91,3.09-4.53,3.62-6.42.81-1.51,3.16-5.34,4.12-6.87.16-1.05.65-1.77,1.25-2.74,9.34-14.17,18.06-32.68,27.4-45.94,1.18-1.19,1.89-2.99,2.85-4.23.53-.44.98-.93,1.3-1.57,4.68-8.06,10.34-17.05,14.56-25.15,5.58-9.62,12.98-20.13,13.05-31.23.3-8.36-4.28-14.99-12.09-20.01-9.3-4.23-18.6-5.78-24.85-2.26-3.03,1.52-5.5,4.32-7.34,7.68-4.87,6.6-9.08,13.64-13.06,20.77-4.34,7.73-8.49,15.58-13.29,23.21-20.81,40.27-50.14,74.24-75.77,110.76-4.03,6.39-6.69,15.54-12.9,19.93-4.41,3.25-9.32,3.89-12.06,1.87-5.82-4.66,1.54-15.75,4.94-20.78,5.18-7.16,10.65-14.02,15.88-21.2,3.69-6.44,8.71-12.76,11.89-19.6.97-1.79,2.53-3.76,3.13-5.72,25.35-47.63,46.08-98.19,74.18-142.72,10.35-20.89-4.82-34.63-25.86-36.61-11.72-.49-20.74,9.61-26.31,19.29-6.87,14.08-14.85,27.07-22.22,40.97-3.13,5.21-4.65,11.17-8.64,15.79-10.63,16.21-23.49,36.76-32.91,53.6-12.92,28.81-25.26,58.56-39.82,86.81-5.08,8.67-20.32,9.38-26.23,1.08-5.42-7.34-2.96-17.31-.57-25.53,10.18-28.86,15.17-58.99,23.05-88.5,5.11-21.3,13.64-44.8,21.69-67.38,4.53-15.53,17.72-38.82-1.03-49.57-13.65-9.03-27.95-5.41-37.63,6.49-3.01,3.68-5.38,8.51-8.21,12.53-8.51,16.05-12.88,33.56-17.62,50.71-2.29,5.57-4.85,11.06-7.42,16.55-25.83,47.99-27.34,106-49.65,156.83-4.19,10.58-6.51,22.23-12.87,31.75-2.77,5.13-4.95,10.53-8.16,15.21-2.06,3.13-4.68,5.94-7.64,8.32-9.18,8.13-16.24,22.17-27.53,27.54-12.34,4.79-26.65,9.71-39.68,1.65-19.86-15.88-33.94-39.83-44.73-62.24-6.83-26.58-68.33-84.6-98.03-49.26-4.11,6.35-5.04,13.44-2.47,17.78,2.23,4.2,5.34,7.21,8.94,10.88,10.28,13.22,20.83,26.11,29.08,41.22,3.41,6.26,8.83,11.39,10.11,18.63,6.01,10.72,12.65,20.37,18.66,30.68,6.01,10.32,11.22,21.46,14.07,35.09.78,4.58,1.34,10.27,2.75,15.09,4.74,15.63,12.31,29.65,19.08,43.69,6.81,13.82,13.47,26.81,16.05,40.91,7.11,87.27-89.86,228.87-155.94,325.8v68.85l47.23,18.83h152.43c26.48-44.42,77.67-140.24,92.7-173.44,15.32-33.84,34.36-65.57,50.19-99.11,3.47-7.36,6.65-14.16,9.99-20.26,15.1-24.71,39.74-44.32,58.59-66.26,11.19-13.03,21.58-28.53,32.26-43.01,10.32-14.1,19.04-28.19,25.85-42.89,8.82-15.37,17.44-30.15,27.66-43.9,2.23-3.23,4.55-6.47,5.94-10.18,2.2-5.42,5.08-10.29,8.43-14.76,11.81-15.74,29.55-26.55,44.46-38.58,17.38-12.39,34.92-27.54,50.26-43.01,12.35-6.36,20.68-19.16,30.24-29.45,4.76-5.72,9.73-11.6,13.34-18.07,4.36-5.77,5.25-13.48,2.41-20.13Z"/>
</svg>