<?xml version="1.0" encoding="UTF-8"?>
<svg id="a" data-name="Background" xmlns="http://www.w3.org/2000/svg" width="1484.76" height="1420.5" viewBox="0 0 1484.76 1420.5">
  <defs>
    <style>
      .b, .c {
        fill: #3c00ab;
      }

      .d, .e, .f {
        fill: #fff;
      }

      .g {
        fill: #e0d6f2;
      }

      .g, .c, .e, .f, .h, .i, .j, .k {
        stroke: #3c00ab;
        stroke-linecap: round;
        stroke-linejoin: round;
      }

      .g, .c, .e, .h {
        stroke-width: 2.5px;
      }

      .f {
        stroke-width: 5px;
      }

      .h, .i, .j, .k {
        fill: none;
      }

      .i {
        stroke-width: 8px;
      }

      .j {
        stroke-width: 6px;
      }

      .k {
        stroke-width: 7px;
      }
    </style>
  </defs>
  <g>
    <path class="i" d="M742.38,1.25c-200.19,0-289.8,86.9-327.32,197.36-27.43,80.78-31.18,180.98,19.36,298.81h615.92c50.53-117.83,46.79-218.04,19.36-298.81C1032.19,88.15,942.57,1.25,742.38,1.25Z"/>
    <path class="i" d="M1441.62,1258.53c-32.3-135.66-106.14-169.64-169.8-179.74-1.5-.24-2.99-.47-4.48-.68-115.77-16.53-267.68-35.88-335.28-89.5-39.02-53.61-27.04-146.58-16.89-212.33l-172.78,17.62-172.79-17.62c10.15,65.75,22.13,158.73-16.89,212.33-67.6,53.61-219.51,72.97-335.28,89.5-1.48.21-2.98.44-4.48.68-63.66,10.1-137.5,44.08-169.8,179.74-14.71,61.79-29.42,160.72-29.42,160.72h1457.32s-14.71-98.93-29.42-160.72Z"/>
    <path class="i" d="M441.41,418.98c-4.53-.41-9.26.38-13.11,2.8-4.49,2.82-7.47,7.62-9,12.7-4.57,15.26-1.61,31.65,2.12,46.73,4.62,18.72,7.44,37.82,9.75,56.95,4,33.24,19.88,61.92,35.59,72.02,9.6,6.18,24.25,4.96,31.19-8.91l-19.21-157.55c-6.66-18.97-27.22-23.81-37.32-24.74Z"/>
    <path class="i" d="M477.74,517.22c-.78-5.89-.51-11.83-.87-17.75-.44-7.12-2.71-12.69-4.74-19.39-2.74-9.07-2.47-16.23-12.4-20.28-2.09-.85-4.78-1.28-6.37.32-1.47,1.48-1.24,3.9-.76,5.93,2.37,10.16,6.2,19.93,8.18,30.19,1.6,8.28-1.24,14.88-3.43,21.94-.94,3.05-1.76,6.18-2.04,9.56-.85,10.17,2.44,21.47,9.52,29,7.3,7.75,12.16,13.91,13.14,25.2.11,1.54.32,3.41,1.73,4.04,1.83.83,3.63-1.25,4.33-3.13,3.15-8.46-1.07-19.16-1.86-27.81-1.16-12.64-2.76-25.23-4.43-37.82Z"/>
    <path class="i" d="M461.68,448.17c-1.38-4.5-3.77-8.5-7.88-11.02-7.8-4.77-17.69-2.58-22.3,5.34-1.37,2.36-1.71,5.15-2.02,7.86-.2,1.77-.37,3.71.61,5.19"/>
    <path class="i" d="M1056.47,421.78c-3.85-2.42-8.58-3.21-13.11-2.8-10.1.92-30.66,5.77-37.32,24.74l-19.21,157.55c6.94,13.87,21.59,15.09,31.19,8.91,15.71-10.1,31.59-38.78,35.59-72.02,2.3-19.13,5.12-38.22,9.75-56.95,3.72-15.08,6.69-31.47,2.12-46.73-1.52-5.08-4.5-9.88-9-12.7Z"/>
    <path class="i" d="M1025.03,459.8c-9.93,4.05-9.66,11.2-12.4,20.28-2.02,6.7-4.29,12.27-4.74,19.39-.37,5.92-.09,11.86-.87,17.75-1.67,12.58-3.27,25.18-4.43,37.82-.79,8.66-5.02,19.35-1.86,27.81.7,1.88,2.5,3.96,4.33,3.13,1.41-.64,1.62-2.5,1.73-4.04.98-11.3,5.84-17.45,13.14-25.2,7.09-7.53,10.38-18.83,9.52-29-.28-3.39-1.1-6.52-2.04-9.56-2.18-7.06-5.03-13.65-3.43-21.94,1.98-10.26,5.81-20.03,8.18-30.19.47-2.03.71-4.45-.76-5.93-1.6-1.6-4.28-1.17-6.37-.32Z"/>
    <path class="i" d="M1054.67,455.55c.98-1.49.81-3.42.61-5.19-.31-2.71-.65-5.51-2.02-7.86-4.61-7.92-14.51-10.12-22.3-5.34-4.11,2.51-6.5,6.52-7.88,11.02"/>
    <path class="i" d="M970.79,275.38c-32.56-121.19-104.7-136.89-227.88-142.66h-.08c-123.18,5.78-195.32,21.47-227.88,142.66-8,29.8-19.58,49.16-31.13,80.41-9.38,25.37-18.06,77.18-17.52,131.45.47,47.15,13.63,74.66,24,126.64,10.59,53.09,22.22,113.93,64.4,152.64,70.98,65.14,166.48,113.95,262.37,74.68,46.05-18.86,89.73-48.23,122.99-85.38,36.86-41.17,44.9-89.38,55.39-141.94,10.37-51.98,23.53-79.49,24-126.65.54-54.27-8.14-106.07-17.52-131.45-11.55-31.24-23.13-50.61-31.13-80.41Z"/>
    <path class="i" d="M797.01,590.41c-3.87-2.62-9.28-1.87-13.51-.58-1.56.48-3.11,1.04-4.55,1.8-.98.52-2.01,1.15-2.76,1.96-1.59,1.71,1.27,2.41,2.57,2.72,2.83.67,5.76.63,8.63.26,2.29-.29,4.61-.74,6.74-1.65.89-.38,2.01-.85,2.62-1.63.42-.53,1.17-1.55.89-2.24-.11-.28-.37-.48-.62-.65Z"/>
    <path class="i" d="M798.73,602.02c7.92,0,19.59-9.19,18.84-24.59-.84-11.52-9.3-24.22-16.99-31.6"/>
    <path class="i" d="M687.36,590.53s3.54-1.39,9.01-.66c17.6,3.09,24.62,23.81,46.02,23.41,21.4.4,28.42-20.32,46.02-23.41,5.47-.73,9.01.66,9.01.66"/>
    <path class="i" d="M705.81,591.63c-1.44-.77-2.99-1.32-4.55-1.8-4.22-1.29-9.64-2.04-13.51.58-.25.17-.51.37-.62.65-.28.68.47,1.7.89,2.24.61.78,1.73,1.24,2.62,1.63,2.13.92,4.45,1.36,6.74,1.65,2.87.36,5.8.4,8.63-.26,1.29-.31,4.16-1,2.57-2.72-.76-.81-1.79-1.44-2.76-1.96Z"/>
    <path class="i" d="M684.18,545.84c-7.69,7.38-16.15,20.08-16.99,31.6-.74,15.4,10.92,24.58,18.84,24.59"/>
    <path class="i" d="M770.39,769.47c-.76-4.19-16.27-9.86-28.01-9.86s-27.25,5.67-28.01,9.86"/>
    <g>
      <g>
        <path class="i" d="M643.6,688.81c7.34,10.44,18.16,21.21,37.67,31.01,15.21,7.64,39.83,12.78,61.12,12.79,21.29,0,45.91-5.14,61.12-12.79,19.51-9.81,30.33-20.57,37.67-31.01"/>
        <path class="i" d="M841.7,687.95c-1.25,0-22.21,1.07-36.58-4.42-30.58-11.67-48.3-8.57-62.74-3.02-14.44-5.54-32.16-8.64-62.74,3.02-14.37,5.48-35.33,4.41-36.58,4.42,2.17,0,6.34,2.22,8.5,2.89,42.5,13.23,89.18,17.46,133.96,11.15,18.12-2.55,35.78-7.07,52.88-12.82.77-.26,2.59-1.22,3.29-1.22Z"/>
      </g>
      <g>
        <path class="i" d="M643.6,688.81c7.34,10.44,18.16,21.21,37.67,31.01,15.21,7.64,39.83,12.78,61.12,12.79,21.29,0,45.91-5.14,61.12-12.79,19.51-9.81,30.33-20.57,37.67-31.01"/>
        <path class="i" d="M841.7,687.95c-1.25,0-22.21,1.07-36.58-4.42-30.58-11.67-48.3-8.57-62.74-3.02-14.44-5.54-32.16-8.64-62.74,3.02-14.37,5.48-35.33,4.41-36.58,4.42,2.17,0,6.34,2.22,8.5,2.89,42.5,13.23,89.18,17.46,133.96,11.15,18.12-2.55,35.78-7.07,52.88-12.82.77-.26,2.59-1.22,3.29-1.22Z"/>
      </g>
      <g>
        <path class="i" d="M643.6,688.81c7.34,10.44,18.16,21.21,37.67,31.01,15.21,7.64,39.83,12.78,61.12,12.79,21.29,0,45.91-5.14,61.12-12.79,19.51-9.81,30.33-20.57,37.67-31.01"/>
        <path class="i" d="M841.7,687.95c-1.25,0-22.21,1.07-36.58-4.42-30.58-11.67-48.3-8.57-62.74-3.02-14.44-5.54-32.16-8.64-62.74,3.02-14.37,5.48-35.33,4.41-36.58,4.42,2.17,0,6.34,2.22,8.5,2.89,42.5,13.23,89.18,17.46,133.96,11.15,18.12-2.55,35.78-7.07,52.88-12.82.77-.26,2.59-1.22,3.29-1.22Z"/>
      </g>
    </g>
    <path class="i" d="M1280.88,1072.96c-1.52-.24-3.04-.47-4.55-.69-93.88-13.41-211.15-28.63-289.68-61.89-31.75,85.89-94.72,172.41-244.26,172.41s-212.51-86.52-244.26-172.41c-78.53,33.26-195.8,48.49-289.68,61.89-1.51.22-3.03.45-4.55.69-64.75,10.27-139.85,44.83-172.71,182.82-14.97,62.85-29.93,163.47-29.93,163.47h1482.26s-14.96-100.62-29.93-163.47c-32.85-137.98-107.96-172.55-172.71-182.82Z"/>
    <path class="i" d="M838.7,104.1c-14.17,7.84-22.56,14.49-33.39,26.14-14.6,15.72-33.78,27.35-61.13,37-22.78,8.04-35.03,5.55-58.45,12.29-31.9,9.25-64.25,18.7-92.42,35.96-66.61,40.83-98.71,104.96-126.79,176.56-34.58-76.81-16.32-173.31,44.11-233.07,40.84-40.39,97.58-63.43,155.32-70.56,57.75-7.13,116.59.78,172.75,15.68Z"/>
    <path class="i" d="M942,244.82c23.87,25.57,34.46,55.25,49.92,84.9-3.03-5.82,12.6-26.85,11.81-36.13-1.4-16.6-6.8-33.74-12.6-49.21-11.48-30.6-29.31-58.76-52.36-81.54-22.16-21.91-49.01-38.7-77.95-49.42-18.3-6.78-40.63-16.97-60.48-15.04-31.33,3.06-21.15,24.96-10.19,40.29,17.54,24.52,49.05,38.81,75.11,52.25,26.27,13.55,55.95,31.62,76.74,53.88Z"/>
    <path class="i" d="M1011.13,390.93c3.07,14.3,10.49,84.22,10.49,97.49,0,0,10.96-45.1,18.06-59.06,5.64-11.1,21.93-18.25,21.93-18.25l-50.48-20.18Z"/>
    <path class="i" d="M473.63,390.93c-3.07,14.3-10.49,84.22-10.49,97.49,0,0-10.96-45.1-18.06-59.06-5.64-11.1-21.93-18.25-21.93-18.25l50.48-20.18Z"/>
    <g>
      <g>
        <g>
          <path class="i" d="M618.53,434.25c7.21-.21,13.22,5.46,13.43,12.67.2,7.21-5.48,13.23-12.7,13.44-7.21.21-13.22-5.46-13.42-12.67-.2-7.21,5.48-13.23,12.7-13.44Z"/>
          <path class="i" d="M625.81,434.72c-3.18.09-5.68,2.75-5.59,5.92.09,3.18,2.74,5.68,5.92,5.59,3.18-.09,5.68-2.75,5.59-5.92-.09-3.18-2.74-5.68-5.91-5.58Z"/>
          <path class="i" d="M564.96,452.54c20.14,17.57,41.81,21.98,64.6,18.66,14.94-2.18,29.4-11.79,45.29-13.44"/>
          <path class="i" d="M596.31,369.35c4.23-.66,8.5-1.13,12.78-1.4,19.42-1.2,39.29,1.95,57.02,10.09,8.58,3.94,19.09,6.94,26.03,13.64,5.54,5.35.06,10.42-6.31,10.61-18.51.54-34.55-8.61-51.22-15.24-18.11-7.2-39-6.47-57.72-2.15-9.01,2.08-17.8,5.06-26.34,8.6-4.08,1.69-11.7,7.39-16.22,6.31-7.36-1.77,11.74-14.09,13.43-15.06,7.54-4.33,15.98-6.79,24.2-9.49,7.95-2.61,16.1-4.62,24.36-5.91Z"/>
          <path class="i" d="M559.77,439.15c17.34-12.29,39.39-17.65,55.13-17.37,21.75.31,46.26,8.56,60.94,26.42"/>
          <circle class="i" cx="619.1" cy="447.31" r="24.98"/>
        </g>
        <g>
          <path class="i" d="M618.53,434.25c7.21-.21,13.22,5.46,13.43,12.67.2,7.21-5.48,13.23-12.7,13.44-7.21.21-13.22-5.46-13.42-12.67-.2-7.21,5.48-13.23,12.7-13.44Z"/>
          <path class="i" d="M625.81,434.72c-3.18.09-5.68,2.75-5.59,5.92.09,3.18,2.74,5.68,5.92,5.59,3.18-.09,5.68-2.75,5.59-5.92-.09-3.18-2.74-5.68-5.91-5.58Z"/>
          <path class="i" d="M564.96,452.54c20.14,17.57,41.81,21.98,64.6,18.66,14.94-2.18,29.4-11.79,45.29-13.44"/>
          <path class="i" d="M596.31,369.35c4.23-.66,8.5-1.13,12.78-1.4,19.42-1.2,39.29,1.95,57.02,10.09,8.58,3.94,19.09,6.94,26.03,13.64,5.54,5.35.06,10.42-6.31,10.61-18.51.54-34.55-8.61-51.22-15.24-18.11-7.2-39-6.47-57.72-2.15-9.01,2.08-17.8,5.06-26.34,8.6-4.08,1.69-11.7,7.39-16.22,6.31-7.36-1.77,11.74-14.09,13.43-15.06,7.54-4.33,15.98-6.79,24.2-9.49,7.95-2.61,16.1-4.62,24.36-5.91Z"/>
          <path class="i" d="M559.77,439.15c17.34-12.29,39.39-17.65,55.13-17.37,21.75.31,46.26,8.56,60.94,26.42"/>
          <circle class="i" cx="619.1" cy="447.31" r="24.98"/>
        </g>
        <g>
          <path class="i" d="M618.53,434.25c7.21-.21,13.22,5.46,13.43,12.67.2,7.21-5.48,13.23-12.7,13.44-7.21.21-13.22-5.46-13.42-12.67-.2-7.21,5.48-13.23,12.7-13.44Z"/>
          <path class="i" d="M625.81,434.72c-3.18.09-5.68,2.75-5.59,5.92.09,3.18,2.74,5.68,5.92,5.59,3.18-.09,5.68-2.75,5.59-5.92-.09-3.18-2.74-5.68-5.91-5.58Z"/>
          <path class="i" d="M564.96,452.54c20.14,17.57,41.81,21.98,64.6,18.66,14.94-2.18,29.4-11.79,45.29-13.44"/>
          <path class="i" d="M596.31,369.35c4.23-.66,8.5-1.13,12.78-1.4,19.42-1.2,39.29,1.95,57.02,10.09,8.58,3.94,19.09,6.94,26.03,13.64,5.54,5.35.06,10.42-6.31,10.61-18.51.54-34.55-8.61-51.22-15.24-18.11-7.2-39-6.47-57.72-2.15-9.01,2.08-17.8,5.06-26.34,8.6-4.08,1.69-11.7,7.39-16.22,6.31-7.36-1.77,11.74-14.09,13.43-15.06,7.54-4.33,15.98-6.79,24.2-9.49,7.95-2.61,16.1-4.62,24.36-5.91Z"/>
          <path class="i" d="M559.77,439.15c17.34-12.29,39.39-17.65,55.13-17.37,21.75.31,46.26,8.56,60.94,26.42"/>
          <circle class="i" cx="619.1" cy="447.31" r="24.98"/>
        </g>
      </g>
      <g>
        <g>
          <path class="i" d="M866.24,434.25c-7.21-.21-13.22,5.46-13.43,12.67-.2,7.21,5.48,13.23,12.7,13.44,7.21.21,13.22-5.46,13.42-12.67.2-7.21-5.48-13.23-12.7-13.44Z"/>
          <path class="i" d="M858.96,434.72c3.18.09,5.68,2.75,5.59,5.92-.09,3.18-2.74,5.68-5.92,5.59-3.18-.09-5.68-2.75-5.59-5.92.09-3.18,2.74-5.68,5.91-5.58Z"/>
          <path class="i" d="M919.81,452.54c-20.14,17.57-41.81,21.98-64.6,18.66-14.94-2.18-29.4-11.79-45.29-13.44"/>
          <path class="i" d="M888.45,369.35c-4.23-.66-8.5-1.13-12.78-1.4-19.42-1.2-39.29,1.95-57.02,10.09-8.58,3.94-19.09,6.94-26.03,13.64-5.54,5.35-.06,10.42,6.31,10.61,18.51.54,34.55-8.61,51.22-15.24,18.11-7.2,39-6.47,57.72-2.15,9.01,2.08,17.8,5.06,26.34,8.6,4.08,1.69,11.7,7.39,16.22,6.31,7.36-1.77-11.74-14.09-13.43-15.06-7.54-4.33-15.98-6.79-24.2-9.49-7.95-2.61-16.1-4.62-24.36-5.91Z"/>
          <path class="i" d="M924.99,439.15c-17.34-12.29-39.39-17.65-55.13-17.37-21.75.31-46.26,8.56-60.94,26.42"/>
          <circle class="i" cx="865.67" cy="447.31" r="24.98"/>
        </g>
        <g>
          <path class="i" d="M866.24,434.25c-7.21-.21-13.22,5.46-13.43,12.67-.2,7.21,5.48,13.23,12.7,13.44,7.21.21,13.22-5.46,13.42-12.67.2-7.21-5.48-13.23-12.7-13.44Z"/>
          <path class="i" d="M858.96,434.72c3.18.09,5.68,2.75,5.59,5.92-.09,3.18-2.74,5.68-5.92,5.59-3.18-.09-5.68-2.75-5.59-5.92.09-3.18,2.74-5.68,5.91-5.58Z"/>
          <path class="i" d="M919.81,452.54c-20.14,17.57-41.81,21.98-64.6,18.66-14.94-2.18-29.4-11.79-45.29-13.44"/>
          <path class="i" d="M888.45,369.35c-4.23-.66-8.5-1.13-12.78-1.4-19.42-1.2-39.29,1.95-57.02,10.09-8.58,3.94-19.09,6.94-26.03,13.64-5.54,5.35-.06,10.42,6.31,10.61,18.51.54,34.55-8.61,51.22-15.24,18.11-7.2,39-6.47,57.72-2.15,9.01,2.08,17.8,5.06,26.34,8.6,4.08,1.69,11.7,7.39,16.22,6.31,7.36-1.77-11.74-14.09-13.43-15.06-7.54-4.33-15.98-6.79-24.2-9.49-7.95-2.61-16.1-4.62-24.36-5.91Z"/>
          <path class="i" d="M924.99,439.15c-17.34-12.29-39.39-17.65-55.13-17.37-21.75.31-46.26,8.56-60.94,26.42"/>
          <circle class="i" cx="865.67" cy="447.31" r="24.98"/>
        </g>
        <g>
          <path class="i" d="M866.24,434.25c-7.21-.21-13.22,5.46-13.43,12.67-.2,7.21,5.48,13.23,12.7,13.44,7.21.21,13.22-5.46,13.42-12.67.2-7.21-5.48-13.23-12.7-13.44Z"/>
          <path class="i" d="M858.96,434.72c3.18.09,5.68,2.75,5.59,5.92-.09,3.18-2.74,5.68-5.92,5.59-3.18-.09-5.68-2.75-5.59-5.92.09-3.18,2.74-5.68,5.91-5.58Z"/>
          <path class="i" d="M919.81,452.54c-20.14,17.57-41.81,21.98-64.6,18.66-14.94-2.18-29.4-11.79-45.29-13.44"/>
          <path class="i" d="M888.45,369.35c-4.23-.66-8.5-1.13-12.78-1.4-19.42-1.2-39.29,1.95-57.02,10.09-8.58,3.94-19.09,6.94-26.03,13.64-5.54,5.35-.06,10.42,6.31,10.61,18.51.54,34.55-8.61,51.22-15.24,18.11-7.2,39-6.47,57.72-2.15,9.01,2.08,17.8,5.06,26.34,8.6,4.08,1.69,11.7,7.39,16.22,6.31,7.36-1.77-11.74-14.09-13.43-15.06-7.54-4.33-15.98-6.79-24.2-9.49-7.95-2.61-16.1-4.62-24.36-5.91Z"/>
          <path class="i" d="M924.99,439.15c-17.34-12.29-39.39-17.65-55.13-17.37-21.75.31-46.26,8.56-60.94,26.42"/>
          <circle class="i" cx="865.67" cy="447.31" r="24.98"/>
        </g>
      </g>
    </g>
  </g>
  <g>
    <path class="c" d="M742.38,1.25c-200.19,0-289.8,86.9-327.32,197.36-27.43,80.78-31.18,180.98,19.36,298.81h615.92c50.53-117.83,46.79-218.04,19.36-298.81C1032.19,88.15,942.57,1.25,742.38,1.25Z"/>
    <path class="e" d="M1441.62,1258.53c-32.3-135.66-106.14-169.64-169.8-179.74-1.5-.24-2.99-.47-4.48-.68-115.77-16.53-267.68-35.88-335.28-89.5-39.02-53.61-27.04-146.58-16.89-212.33l-172.78,17.62-172.79-17.62c10.15,65.75,22.13,158.73-16.89,212.33-67.6,53.61-219.51,72.97-335.28,89.5-1.48.21-2.98.44-4.48.68-63.66,10.1-137.5,44.08-169.8,179.74-14.71,61.79-29.42,160.72-29.42,160.72h1457.32s-14.71-98.93-29.42-160.72Z"/>
    <path class="e" d="M441.41,418.98c-4.53-.41-9.26.38-13.11,2.8-4.49,2.82-7.47,7.62-9,12.7-4.57,15.26-1.61,31.65,2.12,46.73,4.62,18.72,7.44,37.82,9.75,56.95,4,33.24,19.88,61.92,35.59,72.02,9.6,6.18,24.25,4.96,31.19-8.91l-19.21-157.55c-6.66-18.97-27.22-23.81-37.32-24.74Z"/>
    <path class="e" d="M477.74,517.22c-.78-5.89-.51-11.83-.87-17.75-.44-7.12-2.71-12.69-4.74-19.39-2.74-9.07-2.47-16.23-12.4-20.28-2.09-.85-4.78-1.28-6.37.32-1.47,1.48-1.24,3.9-.76,5.93,2.37,10.16,6.2,19.93,8.18,30.19,1.6,8.28-1.24,14.88-3.43,21.94-.94,3.05-1.76,6.18-2.04,9.56-.85,10.17,2.44,21.47,9.52,29,7.3,7.75,12.16,13.91,13.14,25.2.11,1.54.32,3.41,1.73,4.04,1.83.83,3.63-1.25,4.33-3.13,3.15-8.46-1.07-19.16-1.86-27.81-1.16-12.64-2.76-25.23-4.43-37.82Z"/>
    <path class="e" d="M461.68,448.17c-1.38-4.5-3.77-8.5-7.88-11.02-7.8-4.77-17.69-2.58-22.3,5.34-1.37,2.36-1.71,5.15-2.02,7.86-.2,1.77-.37,3.71.61,5.19"/>
    <path class="e" d="M1056.47,421.78c-3.85-2.42-8.58-3.21-13.11-2.8-10.1.92-30.66,5.77-37.32,24.74l-19.21,157.55c6.94,13.87,21.59,15.09,31.19,8.91,15.71-10.1,31.59-38.78,35.59-72.02,2.3-19.13,5.12-38.22,9.75-56.95,3.72-15.08,6.69-31.47,2.12-46.73-1.52-5.08-4.5-9.88-9-12.7Z"/>
    <path class="e" d="M1025.03,459.8c-9.93,4.05-9.66,11.2-12.4,20.28-2.02,6.7-4.29,12.27-4.74,19.39-.37,5.92-.09,11.86-.87,17.75-1.67,12.58-3.27,25.18-4.43,37.82-.79,8.66-5.02,19.35-1.86,27.81.7,1.88,2.5,3.96,4.33,3.13,1.41-.64,1.62-2.5,1.73-4.04.98-11.3,5.84-17.45,13.14-25.2,7.09-7.53,10.38-18.83,9.52-29-.28-3.39-1.1-6.52-2.04-9.56-2.18-7.06-5.03-13.65-3.43-21.94,1.98-10.26,5.81-20.03,8.18-30.19.47-2.03.71-4.45-.76-5.93-1.6-1.6-4.28-1.17-6.37-.32Z"/>
    <path class="e" d="M1054.67,455.55c.98-1.49.81-3.42.61-5.19-.31-2.71-.65-5.51-2.02-7.86-4.61-7.92-14.51-10.12-22.3-5.34-4.11,2.51-6.5,6.52-7.88,11.02"/>
    <path class="f" d="M970.79,275.38c-32.56-121.19-104.7-136.89-227.88-142.66h-.08c-123.18,5.78-195.32,21.47-227.88,142.66-8,29.8-19.58,49.16-31.13,80.41-9.38,25.37-18.06,77.18-17.52,131.45.47,47.15,13.63,74.66,24,126.64,10.59,53.09,22.22,113.93,64.4,152.64,70.98,65.14,166.48,113.95,262.37,74.68,46.05-18.86,89.73-48.23,122.99-85.38,36.86-41.17,44.9-89.38,55.39-141.94,10.37-51.98,23.53-79.49,24-126.65.54-54.27-8.14-106.07-17.52-131.45-11.55-31.24-23.13-50.61-31.13-80.41Z"/>
    <path class="c" d="M797.01,590.41c-3.87-2.62-9.28-1.87-13.51-.58-1.56.48-3.11,1.04-4.55,1.8-.98.52-2.01,1.15-2.76,1.96-1.59,1.71,1.27,2.41,2.57,2.72,2.83.67,5.76.63,8.63.26,2.29-.29,4.61-.74,6.74-1.65.89-.38,2.01-.85,2.62-1.63.42-.53,1.17-1.55.89-2.24-.11-.28-.37-.48-.62-.65Z"/>
    <path class="h" d="M798.73,602.02c7.92,0,19.59-9.19,18.84-24.59-.84-11.52-9.3-24.22-16.99-31.6"/>
    <path class="h" d="M687.36,590.53s3.54-1.39,9.01-.66c17.6,3.09,24.62,23.81,46.02,23.41,21.4.4,28.42-20.32,46.02-23.41,5.47-.73,9.01.66,9.01.66"/>
    <path class="c" d="M705.81,591.63c-1.44-.77-2.99-1.32-4.55-1.8-4.22-1.29-9.64-2.04-13.51.58-.25.17-.51.37-.62.65-.28.68.47,1.7.89,2.24.61.78,1.73,1.24,2.62,1.63,2.13.92,4.45,1.36,6.74,1.65,2.87.36,5.8.4,8.63-.26,1.29-.31,4.16-1,2.57-2.72-.76-.81-1.79-1.44-2.76-1.96Z"/>
    <path class="h" d="M684.18,545.84c-7.69,7.38-16.15,20.08-16.99,31.6-.74,15.4,10.92,24.58,18.84,24.59"/>
    <path class="e" d="M770.39,769.47c-.76-4.19-16.27-9.86-28.01-9.86s-27.25,5.67-28.01,9.86"/>
    <g>
      <g>
        <path class="j" d="M643.6,688.81c7.34,10.44,18.16,21.21,37.67,31.01,15.21,7.64,39.83,12.78,61.12,12.79,21.29,0,45.91-5.14,61.12-12.79,19.51-9.81,30.33-20.57,37.67-31.01"/>
        <path class="j" d="M841.7,687.95c-1.25,0-22.21,1.07-36.58-4.42-30.58-11.67-48.3-8.57-62.74-3.02-14.44-5.54-32.16-8.64-62.74,3.02-14.37,5.48-35.33,4.41-36.58,4.42,2.17,0,6.34,2.22,8.5,2.89,42.5,13.23,89.18,17.46,133.96,11.15,18.12-2.55,35.78-7.07,52.88-12.82.77-.26,2.59-1.22,3.29-1.22Z"/>
      </g>
      <g>
        <path class="e" d="M643.6,688.81c7.34,10.44,18.16,21.21,37.67,31.01,15.21,7.64,39.83,12.78,61.12,12.79,21.29,0,45.91-5.14,61.12-12.79,19.51-9.81,30.33-20.57,37.67-31.01"/>
        <path class="e" d="M841.7,687.95c-1.25,0-22.21,1.07-36.58-4.42-30.58-11.67-48.3-8.57-62.74-3.02-14.44-5.54-32.16-8.64-62.74,3.02-14.37,5.48-35.33,4.41-36.58,4.42,2.17,0,6.34,2.22,8.5,2.89,42.5,13.23,89.18,17.46,133.96,11.15,18.12-2.55,35.78-7.07,52.88-12.82.77-.26,2.59-1.22,3.29-1.22Z"/>
      </g>
    </g>
    <path class="g" d="M1280.88,1072.96c-1.52-.24-3.04-.47-4.55-.69-93.88-13.41-211.15-28.63-289.68-61.89-31.75,85.89-94.72,172.41-244.26,172.41s-212.51-86.52-244.26-172.41c-78.53,33.26-195.8,48.49-289.68,61.89-1.51.22-3.03.45-4.55.69-64.75,10.27-139.85,44.83-172.71,182.82-14.97,62.85-29.93,163.47-29.93,163.47h1482.26s-14.96-100.62-29.93-163.47c-32.85-137.98-107.96-172.55-172.71-182.82Z"/>
    <path class="b" d="M838.7,104.1c-14.17,7.84-22.56,14.49-33.39,26.14-14.6,15.72-33.78,27.35-61.13,37-22.78,8.04-35.03,5.55-58.45,12.29-31.9,9.25-64.25,18.7-92.42,35.96-66.61,40.83-98.71,104.96-126.79,176.56-34.58-76.81-16.32-173.31,44.11-233.07,40.84-40.39,97.58-63.43,155.32-70.56,57.75-7.13,116.59.78,172.75,15.68Z"/>
    <path class="b" d="M942,244.82c23.87,25.57,34.46,55.25,49.92,84.9-3.03-5.82,12.6-26.85,11.81-36.13-1.4-16.6-6.8-33.74-12.6-49.21-11.48-30.6-29.31-58.76-52.36-81.54-22.16-21.91-49.01-38.7-77.95-49.42-18.3-6.78-40.63-16.97-60.48-15.04-31.33,3.06-21.15,24.96-10.19,40.29,17.54,24.52,49.05,38.81,75.11,52.25,26.27,13.55,55.95,31.62,76.74,53.88Z"/>
    <path class="c" d="M1011.13,390.93c3.07,14.3,10.49,84.22,10.49,97.49,0,0,10.96-45.1,18.06-59.06,5.64-11.1,21.93-18.25,21.93-18.25l-50.48-20.18Z"/>
    <path class="c" d="M473.63,390.93c-3.07,14.3-10.49,84.22-10.49,97.49,0,0-10.96-45.1-18.06-59.06-5.64-11.1-21.93-18.25-21.93-18.25l50.48-20.18Z"/>
    <g>
      <g>
        <path class="b" d="M618.53,434.25c7.21-.21,13.22,5.46,13.43,12.67.2,7.21-5.48,13.23-12.7,13.44-7.21.21-13.22-5.46-13.42-12.67-.2-7.21,5.48-13.23,12.7-13.44Z"/>
        <path class="d" d="M625.81,434.72c-3.18.09-5.68,2.75-5.59,5.92.09,3.18,2.74,5.68,5.92,5.59,3.18-.09,5.68-2.75,5.59-5.92-.09-3.18-2.74-5.68-5.91-5.58Z"/>
        <path class="h" d="M564.96,452.54c20.14,17.57,41.81,21.98,64.6,18.66,14.94-2.18,29.4-11.79,45.29-13.44"/>
        <path class="c" d="M596.31,369.35c4.23-.66,8.5-1.13,12.78-1.4,19.42-1.2,39.29,1.95,57.02,10.09,8.58,3.94,19.09,6.94,26.03,13.64,5.54,5.35.06,10.42-6.31,10.61-18.51.54-34.55-8.61-51.22-15.24-18.11-7.2-39-6.47-57.72-2.15-9.01,2.08-17.8,5.06-26.34,8.6-4.08,1.69-11.7,7.39-16.22,6.31-7.36-1.77,11.74-14.09,13.43-15.06,7.54-4.33,15.98-6.79,24.2-9.49,7.95-2.61,16.1-4.62,24.36-5.91Z"/>
        <path class="k" d="M559.77,439.15c17.34-12.29,39.39-17.65,55.13-17.37,21.75.31,46.26,8.56,60.94,26.42"/>
        <circle class="h" cx="619.1" cy="447.31" r="24.98"/>
      </g>
      <g>
        <path class="b" d="M866.24,434.25c-7.21-.21-13.22,5.46-13.43,12.67-.2,7.21,5.48,13.23,12.7,13.44,7.21.21,13.22-5.46,13.42-12.67.2-7.21-5.48-13.23-12.7-13.44Z"/>
        <path class="d" d="M858.96,434.72c3.18.09,5.68,2.75,5.59,5.92-.09,3.18-2.74,5.68-5.92,5.59-3.18-.09-5.68-2.75-5.59-5.92.09-3.18,2.74-5.68,5.91-5.58Z"/>
        <path class="h" d="M919.81,452.54c-20.14,17.57-41.81,21.98-64.6,18.66-14.94-2.18-29.4-11.79-45.29-13.44"/>
        <path class="c" d="M888.45,369.35c-4.23-.66-8.5-1.13-12.78-1.4-19.42-1.2-39.29,1.95-57.02,10.09-8.58,3.94-19.09,6.94-26.03,13.64-5.54,5.35-.06,10.42,6.31,10.61,18.51.54,34.55-8.61,51.22-15.24,18.11-7.2,39-6.47,57.72-2.15,9.01,2.08,17.8,5.06,26.34,8.6,4.08,1.69,11.7,7.39,16.22,6.31,7.36-1.77-11.74-14.09-13.43-15.06-7.54-4.33-15.98-6.79-24.2-9.49-7.95-2.61-16.1-4.62-24.36-5.91Z"/>
        <path class="k" d="M924.99,439.15c-17.34-12.29-39.39-17.65-55.13-17.37-21.75.31-46.26,8.56-60.94,26.42"/>
        <circle class="h" cx="865.67" cy="447.31" r="24.98"/>
      </g>
    </g>
  </g>
</svg>