<?xml version="1.0" encoding="UTF-8"?>
<svg id="a" data-name="Background" xmlns="http://www.w3.org/2000/svg" width="718.21" height="957.38" viewBox="0 0 718.21 957.38">
  <defs>
    <style>
      .b {
        fill: #fff;
        stroke: #3c00ab;
        stroke-linecap: round;
        stroke-linejoin: round;
        stroke-width: 5px;
      }
    </style>
  </defs>
  <path class="b" d="M719.28,893.06c-64.98-96.17-179.56-254.6-171.86-349.21,2.57-14.1,9.23-27.09,16.05-40.91,6.77-14.04,14.34-28.06,19.08-43.69,1.41-4.82,1.97-10.51,2.75-15.09,2.85-13.63,8.07-24.76,14.07-35.09,6.01-10.32,12.64-19.96,18.66-30.68,1.28-7.24,6.7-12.37,10.11-18.63,8.25-15.11,18.8-28,29.08-41.22,3.6-3.66,6.71-6.67,8.94-10.88,2.57-4.34,1.64-11.43-2.47-17.78-29.7-35.34-91.19,22.68-98.03,49.26-10.79,22.41-24.87,46.35-44.73,62.24-13.03,8.06-27.34,3.14-39.68-1.65-11.29-5.37-18.35-19.41-27.53-27.54-2.95-2.37-5.57-5.18-7.64-8.32-3.21-4.68-5.39-10.08-8.16-15.21-6.36-9.51-8.69-21.17-12.87-31.75-22.31-50.84-23.82-108.85-49.65-156.83-2.57-5.48-5.13-10.98-7.42-16.55-4.74-17.15-9.11-34.67-17.62-50.71-2.82-4.02-5.19-8.86-8.21-12.53-9.68-11.9-23.98-15.52-37.63-6.49-18.75,10.75-5.56,34.04-1.03,49.57,8.05,22.59,16.58,46.09,21.69,67.38,7.89,29.51,12.87,59.63,23.05,88.5,2.39,8.22,4.84,18.19-.57,25.53-5.91,8.3-21.15,7.59-26.23-1.08-14.56-28.25-26.9-58-39.82-86.81-9.42-16.84-22.27-37.4-32.91-53.6-3.99-4.63-5.51-10.58-8.64-15.79-7.38-13.9-15.35-26.89-22.22-40.97-5.58-9.68-14.6-19.78-26.31-19.29-21.04,1.98-36.2,15.72-25.86,36.61,28.09,44.53,48.83,95.09,74.18,142.72.6,1.96,2.16,3.93,3.13,5.72,3.18,6.84,8.2,13.16,11.89,19.6,5.22,7.18,10.7,14.05,15.88,21.2,3.39,5.03,10.76,16.12,4.94,20.78-2.75,2.02-7.65,1.38-12.06-1.87-6.2-4.39-8.87-13.53-12.9-19.93-25.63-36.51-54.97-70.48-75.77-110.76-4.8-7.63-8.95-15.48-13.29-23.21-3.98-7.12-8.19-14.17-13.06-20.77-1.83-3.36-4.31-6.17-7.34-7.68-6.25-3.53-15.55-1.97-24.85,2.26-7.81,5.02-12.39,11.65-12.09,20.01.07,11.1,7.47,21.61,13.05,31.23,4.21,8.09,9.88,17.09,14.56,25.15.33.64.78,1.13,1.3,1.57.95,1.24,1.67,3.04,2.85,4.23,9.35,13.26,18.06,31.78,27.4,45.94.6.96,1.1,1.69,1.25,2.74.96,1.53,3.32,5.36,4.12,6.87.53,1.89,2.65,4.52,3.62,6.42,15.62,32.63,44.82,56.79,59.89,89.46-5.06,3.93-10.41,5.09-16.2,5.46-1.91-.13-4.2.63-5.83-.39-35.65-31.6-81.87-58.85-115.35-94.38-3.4-3.1-6.89-5.95-10.55-8.27-5.37-3.34-11.21-5.82-17.61-5.85-7.48,1.2-12.74,5.76-15.47,12.15-2.83,6.64-1.95,14.35,2.41,20.13,3.61,6.47,8.58,12.34,13.34,18.07,9.56,10.29,17.89,23.09,30.24,29.45,15.35,15.46,32.88,30.62,50.26,43.01,14.91,12.02,32.65,22.84,44.46,38.58,3.36,4.47,6.23,9.35,8.43,14.76,1.39,3.7,3.71,6.95,5.94,10.18,10.22,13.75,18.83,28.53,27.66,43.9,6.81,14.7,15.53,28.79,25.85,42.89,10.68,14.48,21.06,29.98,32.26,43.01,18.86,21.95,43.49,41.55,58.59,66.26,3.34,6.1,6.52,12.9,9.99,20.26,15.83,33.54,34.88,65.28,50.19,99.11,14.42,31.85,62.12,121.35,89.36,167.79h169.94l48.97-19.52v-39.1Z"/>
</svg>