<?xml version="1.0" encoding="UTF-8"?>
<svg id="a" data-name="Background" xmlns="http://www.w3.org/2000/svg" width="718.21" height="957.38" viewBox="0 0 718.21 957.38">
  <defs>
    <style>
      .b, .c {
        stroke-width: 2.5px;
      }

      .b, .c, .d, .e {
        stroke: #3c00ab;
        stroke-linecap: round;
        stroke-linejoin: round;
      }

      .b, .e {
        fill: #fff;
      }

      .c, .d {
        fill: none;
      }

      .d {
        stroke-width: 8px;
      }

      .e {
        stroke-width: 2px;
      }
    </style>
  </defs>
  <g>
    <path class="d" d="M719.28,818.38c-28.36-48.62-54.22-93.19-57.23-99.01-7.54-14.57-15.33-29.64-24.93-44.75-.17-.27-.3-.56-.37-.87-.23-.28-.51-.61-.74-1.03l-2.14-3.02c-.22-.32-.38-.68-.47-1.05-.11-.15-.29-.38-.42-.55-.31-.39-.66-.83-.95-1.33l-2.73-3.85c-.22-.31-.38-.67-.46-1.04-.12-.19-.39-.53-.57-.77-.33-.43-.71-.9-1.02-1.43l-4.12-5.83c-.41-.5-.77-1.05-1.08-1.54-.22-.34-.54-.83-.71-1.02-.45-.29-.81-.69-1.04-1.17-16.54-33.84-25.5-67.33-27.37-102.39-.13-2.48-.22-4.94-.3-7.33-.2-5.81-.39-11.3-1.22-16.81-2.46-16.29-7.29-33.44-11.97-50.02-1.68-5.94-3.82-11.79-6.09-17.98-.91-2.47-1.82-4.97-2.72-7.51-1.42-4.02-2.84-8.05-4.27-12.09-4.54-12.86-9.23-26.16-14.01-39.34-1.45-4.01-2.88-8.04-4.31-12.08-7.61-21.47-15.47-43.67-28.32-65.54l-.99-1.69c-5-8.5-9.72-16.52-13.95-25.21-4.33-8.88-9.29-17.27-14.53-26.16l-.2-.33c-2.36-4-4.5-8.16-6.57-12.17-2.48-4.81-5.04-9.79-7.95-14.41-.18-.28-.3-.59-.38-.91-.06-.08-.13-.16-.2-.24-.26-.33-.58-.72-.85-1.19l-4.55-6.42c-.4-.47-.72-.98-1.01-1.44-.16-.25-.39-.62-.53-.79-.32-.2-.6-.47-.83-.78l-1.16-1.64c-.4-.47-.72-.98-1.01-1.44-.16-.25-.39-.62-.53-.79-.27-.17-.51-.38-.71-.63-6.17-7.61-13.09-10.29-19.02-11.89-1.15-.3-2.33-.5-3.52-.61h-.29c-8-.31-15.55-.59-23.99,4.38-.24.14-.49.25-.76.31-.09.04-.31.16-.61.37s-.48.37-.56.44c-.17.24-.38.45-.63.62-7.57,5.06-14.98,15.41-13.42,25.04,2.64,16.12,11.13,33.84,26.68,55.69-14.07-18.66-22.18-35.39-26.81-48.56-2.18-6.36-4.19-13.26-6.8-18.69-2.4-4.99-5.02-10.33-7.38-15.86-.83-1.95-1.65-3.87-2.48-5.75-.34-.78-.67-1.59-1-2.4-.92-2.26-1.88-4.6-3.12-6.36-3.24-4.57-7.92-8.14-12.85-11.69-4.07-2.93-9.13-6.58-13.29-7.42-9.9-2-20.68,2.39-30.86,7.42-.2.1-.41.18-.63.23-.08.04-.22.12-.39.24-.17.12-.29.22-.36.28-.18.28-.4.52-.66.72-2.88,2.27-5.41,4.97-7.49,8-1.82,2.66-3.28,5.56-4.52,8.53-.84,2.01-1.83,4-2.15,6.18-.29,1.95-.19,4-.1,6.04.09,2.23.35,4.46.84,6.58-.85-1.84-1.67-3.72-2.5-5.59-1.59-3.55-3.48-6.75-6.12-9.54-1.25-1.32-2.61-2.54-4.04-3.67-2.45-1.94-5.1-3.59-7.76-5.22-1.33-.81-2.62-1.65-3.91-2.49-3.84-2.49-7.48-4.84-11.49-6.11-.65-.2-1.32-.31-2-.34-.04,0-.08,0-.11,0-7.87-.66-17.01,2.42-27.94,9.4-.16.1-.33.19-.51.26-.3.12-.93.47-1.66.98-.73.52-1.27.99-1.48,1.24-.1.12-.22.23-.34.33-8.44,7.06-10.28,16.25-11.01,25.12-.52,6.36-.97,18.52,1.96,28.48,0,1.47.98,3.42,1.37,4.85.46,1.68.9,3.37,1.33,5.06,1.51,5.93,2.8,11.92,4.09,17.9,1.33,6.2,2.6,12.43,4.29,18.54.21.76.42,1.52.63,2.27,1.86,6.56,3.66,13.18,5.77,19.66.3.92.73,2.55,1.48,3.18-3.57-3.02-6.87-6.37-9.77-10.05-7.37-9.36-11.73-21.19-16.37-32.04-4.76-11.15-9.69-22.67-17.66-34.42l-1.91-2.7c-2.52-3.56-4.31-6.99-6.04-10.3-1.41-2.71-2.75-5.27-4.47-7.92-.16-.25-.27-.47-.35-.75-.16-.42-.94-1.53-1.25-1.79-.2-.14-.39-.31-.55-.51-1.88-2.23-3.69-4.64-5.42-6.96,0,0-4.1-5.79-4.12-5.83-15.91-24.86-25.12-48.62-34.03-71.59-.94-2.42-1.87-4.83-2.82-7.24-.78-1.99-1.53-3.99-2.28-6-3.22-8.59-6.22-17.97-12.45-24.79-7.35-8.05-18.8-13.23-29.89-12.06-11.81,1.24-20.07,9.75-23.73,20.54-2.62,7.72-2.46,16.1-1.26,24.1,1.98,13.23,6.62,28.94,13.74,46.59,1.26,3.12,2.6,6.23,3.89,9.24,2.11,4.9,4.29,9.97,6.11,15.06,1.67,4.66,3.16,9.39,4.61,13.97,1.03,3.25,2.09,6.6,3.2,9.89,2.66,7.9,5.94,15.81,9.35,23.89l.21.51c3.3,7.84,6.72,15.95,10.84,23.8,8.13,15.47,17.42,31.46,26.41,46.92l1.6,2.74c1.46,2.51,2.93,4.98,4.4,7.43,3.6,6.02,6.99,11.7,9.99,17.66,4.27,8.5,7.72,17.12,10.62,24.53.95,2.43,1.64,4.94,2.3,7.36.44,1.59.85,3.1,1.33,4.58,1.23,3.8,2.56,7.51,4.19,11.92,3.17,8.62,6.51,17.24,9.74,25.59,5.9,15.26,12,31.04,17.05,46.69.36,1.1.03,2.31-.84,3.08-.08.07-.16.14-.25.2-.84.6-1.95.71-2.91.27-8-3.68-15.63-9.95-23.01-16.01l-1.42-1.16c-8.33-6.83-16.68-13.83-23.5-19.7-.18-.16-.34-.33-.48-.53l-1.91-2.7c-.07-.11-.14-.22-.2-.33-3.77-7.19-9-13.2-14.94-19.76l-.73-.8c-5.14-5.67-10.46-11.54-15.84-15.72-10.46-8.11-22.38-13.66-35.43-16.47-.04,0-.09-.02-.13-.03-1.07-.28-2.18-.47-3.32-.57l-1.01-.1c-4.48-.42-10.07-.94-15.43-.56-5.25.37-11.78.83-16.7,3.23-.87.42-1.73.93-2.55,1.52-3.75,2.66-6.88,6.87-8.36,11.29-1.48,4.4-.96,10.06,1.39,15.14.08.17.14.35.19.53,4.06,2.53,8.12,5.03,12.19,7.54,6.88,4.24,13.99,8.62,20.98,13.07.63.4,1.08,1.03,1.26,1.76.2.82.56,1.67,1.07,2.53.16.27.27.55.34.85.09.16.26.4.38.54.28.18.53.4.74.66,1.64,2.06,3.3,3.73,5.07,5.5l.73.73c.52.53,1.25,1.16,2.02,1.84,1.77,1.54,3.6,3.14,4.61,4.78.64,1.04.98,2.36,1.31,3.64.12.45.23.9.35,1.3,1.33,4.27,3.05,8.68,5.1,13.11.93,2,1.7,4.03,2.46,6,1.56,4.08,3.04,7.93,5.73,11.55.14.19.26.4.35.62.39.94,1.76,2.87,2.52,3.56.13.12.25.25.36.38,4.73,6.12,10.3,11.89,17.51,18.15,5.39,4.68,10.05,10.08,14.98,15.79,1.03,1.19,2.07,2.4,3.12,3.6,12.05,13.79,24.2,28.92,34.93,42.28.36.38.6.79.8,1.12.24.15.45.34.64.56,15.2,18.1,32.95,30.62,50.12,42.72l2.76,1.94c17.38,12.27,35.22,25.44,54.52,40.24,7.3,5.6,14.84,11.12,22.14,16.46,28.76,21.05,58.5,42.82,84.85,77.21.39.44.68.92.95,1.34.09.14.21.34.3.47.31.19.59.45.81.75,1.26,1.71,2.24,3.36,3.19,4.95.33.56.66,1.11,1.01,1.67.17.27.29.57.36.87.04.05.08.1.12.15.25.31.56.69.82,1.14l4.07,5.76c.35.41.62.84.84,1.2.06.09.11.18.16.27.31.2.59.45.81.75,5.44,7.44,11.26,13.7,16.88,19.75,4.92,5.29,10,10.76,14.88,17.05.03.03,12.11,17.1,12.11,17.1.21.3.37.64.45.99.12.24.53.77.8,1.13.37.48.79,1.01,1.13,1.59l.83,1.17c.22.31.38.67.46,1.04.12.19.38.53.57.77.34.44.73.93,1.05,1.48,5.35,8.09,37.88,62.73,70.69,118.06h186.59v-138.95Z"/>
    <path class="d" d="M234.04,564.23c-14.79-29.26-14.7-62.91-22.93-93.16"/>
    <path class="d" d="M237.84,319.66c5.26,6.42,11.02,11.56,17.67,15.08,2.43,1.28,5.05,2.43,7.65,3.39"/>
    <path class="d" d="M240.77,264.72c9.43,23.06,13.7,51.66,23.43,73.5"/>
    <path class="d" d="M301.59,212.64c16.71,32.1,25.77,70.32,52.58,88.02.18.04.35.07.52.1"/>
    <path class="d" d="M91.55,95.5c3.41-1.48,7-2.12,10.3-2.04,2.14.06,4.36.5,6.57,1.48,6.76,3.01,11.18,13.26,11.61,21.83-4.93-.09-9.45,1.41-14,2.74-5.16,1.52-9.99,4.31-14.71,7.29-2.24,1.41-4.53,2.84-6.35,4.78-2.16-2.12-3.67-7.79-4.52-10.78-1.14-4.02-1.48-8.29-.5-12.38,1.5-6.26,6.02-10.5,11.59-12.92Z"/>
    <path class="d" d="M66.55,419.21c2.74,3.77,5.01,8.06,6.01,12.65.08.35.22,3.53.26,3.56-4.98-2.71-10.03-5.83-15.3-8.59-4.96-3.16-11.83-5.66-13.89-9.96-1.14-2.39,1.19-7.61,3.97-9.25,3.71-2.18,8.67,1.38,11.45,3.63,2.66,2.15,5.26,4.9,7.49,7.97Z"/>
  </g>
  <g>
    <path class="e" d="M719.28,818.38c-28.36-48.62-54.22-93.19-57.23-99.01-7.54-14.57-15.33-29.64-24.93-44.75-.17-.27-.3-.56-.37-.87-.23-.28-.51-.61-.74-1.03l-2.14-3.02c-.22-.32-.38-.68-.47-1.05-.11-.15-.29-.38-.42-.55-.31-.39-.66-.83-.95-1.33l-2.73-3.85c-.22-.31-.38-.67-.46-1.04-.12-.19-.39-.53-.57-.77-.33-.43-.71-.9-1.02-1.43l-4.12-5.83c-.41-.5-.77-1.05-1.08-1.54-.22-.34-.54-.83-.71-1.02-.45-.29-.81-.69-1.04-1.17-16.54-33.84-25.5-67.33-27.37-102.39-.13-2.48-.22-4.94-.3-7.33-.2-5.81-.39-11.3-1.22-16.81-2.46-16.29-7.29-33.44-11.97-50.02-1.68-5.94-3.82-11.79-6.09-17.98-.91-2.47-1.82-4.97-2.72-7.51-1.42-4.02-2.84-8.05-4.27-12.09-4.54-12.86-9.23-26.16-14.01-39.34-1.45-4.01-2.88-8.04-4.31-12.08-7.61-21.47-15.47-43.67-28.32-65.54l-.99-1.69c-5-8.5-9.72-16.52-13.95-25.21-4.33-8.88-9.29-17.27-14.53-26.16l-.2-.33c-2.36-4-4.5-8.16-6.57-12.17-2.48-4.81-5.04-9.79-7.95-14.41-.18-.28-.3-.59-.38-.91-.06-.08-.13-.16-.2-.24-.26-.33-.58-.72-.85-1.19l-4.55-6.42c-.4-.47-.72-.98-1.01-1.44-.16-.25-.39-.62-.53-.79-.32-.2-.6-.47-.83-.78l-1.16-1.64c-.4-.47-.72-.98-1.01-1.44-.16-.25-.39-.62-.53-.79-.27-.17-.51-.38-.71-.63-6.17-7.61-13.09-10.29-19.02-11.89-1.15-.3-2.33-.5-3.52-.61h-.29c-8-.31-15.55-.59-23.99,4.38-.24.14-.49.25-.76.31-.09.04-.31.16-.61.37s-.48.37-.56.44c-.17.24-.38.45-.63.62-7.57,5.06-14.98,15.41-13.42,25.04,2.64,16.12,11.13,33.84,26.68,55.69-14.07-18.66-22.18-35.39-26.81-48.56-2.18-6.36-4.19-13.26-6.8-18.69-2.4-4.99-5.02-10.33-7.38-15.86-.83-1.95-1.65-3.87-2.48-5.75-.34-.78-.67-1.59-1-2.4-.92-2.26-1.88-4.6-3.12-6.36-3.24-4.57-7.92-8.14-12.85-11.69-4.07-2.93-9.13-6.58-13.29-7.42-9.9-2-20.68,2.39-30.86,7.42-.2.1-.41.18-.63.23-.08.04-.22.12-.39.24-.17.12-.29.22-.36.28-.18.28-.4.52-.66.72-2.88,2.27-5.41,4.97-7.49,8-1.82,2.66-3.28,5.56-4.52,8.53-.84,2.01-1.83,4-2.15,6.18-.29,1.95-.19,4-.1,6.04.09,2.23.35,4.46.84,6.58-.85-1.84-1.67-3.72-2.5-5.59-1.59-3.55-3.48-6.75-6.12-9.54-1.25-1.32-2.61-2.54-4.04-3.67-2.45-1.94-5.1-3.59-7.76-5.22-1.33-.81-2.62-1.65-3.91-2.49-3.84-2.49-7.48-4.84-11.49-6.11-.65-.2-1.32-.31-2-.34-.04,0-.08,0-.11,0-7.87-.66-17.01,2.42-27.94,9.4-.16.1-.33.19-.51.26-.3.12-.93.47-1.66.98-.73.52-1.27.99-1.48,1.24-.1.12-.22.23-.34.33-8.44,7.06-10.28,16.25-11.01,25.12-.52,6.36-.97,18.52,1.96,28.48,0,1.47.98,3.42,1.37,4.85.46,1.68.9,3.37,1.33,5.06,1.51,5.93,2.8,11.92,4.09,17.9,1.33,6.2,2.6,12.43,4.29,18.54.21.76.42,1.52.63,2.27,1.86,6.56,3.66,13.18,5.77,19.66.3.92.73,2.55,1.48,3.18-3.57-3.02-6.87-6.37-9.77-10.05-7.37-9.36-11.73-21.19-16.37-32.04-4.76-11.15-9.69-22.67-17.66-34.42l-1.91-2.7c-2.52-3.56-4.31-6.99-6.04-10.3-1.41-2.71-2.75-5.27-4.47-7.92-.16-.25-.27-.47-.35-.75-.16-.42-.94-1.53-1.25-1.79-.2-.14-.39-.31-.55-.51-1.88-2.23-3.69-4.64-5.42-6.96,0,0-4.1-5.79-4.12-5.83-15.91-24.86-25.12-48.62-34.03-71.59-.94-2.42-1.87-4.83-2.82-7.24-.78-1.99-1.53-3.99-2.28-6-3.22-8.59-6.22-17.97-12.45-24.79-7.35-8.05-18.8-13.23-29.89-12.06-11.81,1.24-20.07,9.75-23.73,20.54-2.62,7.72-2.46,16.1-1.26,24.1,1.98,13.23,6.62,28.94,13.74,46.59,1.26,3.12,2.6,6.23,3.89,9.24,2.11,4.9,4.29,9.97,6.11,15.06,1.67,4.66,3.16,9.39,4.61,13.97,1.03,3.25,2.09,6.6,3.2,9.89,2.66,7.9,5.94,15.81,9.35,23.89l.21.51c3.3,7.84,6.72,15.95,10.84,23.8,8.13,15.47,17.42,31.46,26.41,46.92l1.6,2.74c1.46,2.51,2.93,4.98,4.4,7.43,3.6,6.02,6.99,11.7,9.99,17.66,4.27,8.5,7.72,17.12,10.62,24.53.95,2.43,1.64,4.94,2.3,7.36.44,1.59.85,3.1,1.33,4.58,1.23,3.8,2.56,7.51,4.19,11.92,3.17,8.62,6.51,17.24,9.74,25.59,5.9,15.26,12,31.04,17.05,46.69.36,1.1.03,2.31-.84,3.08-.08.07-.16.14-.25.2-.84.6-1.95.71-2.91.27-8-3.68-15.63-9.95-23.01-16.01l-1.42-1.16c-8.33-6.83-16.68-13.83-23.5-19.7-.18-.16-.34-.33-.48-.53l-1.91-2.7c-.07-.11-.14-.22-.2-.33-3.77-7.19-9-13.2-14.94-19.76l-.73-.8c-5.14-5.67-10.46-11.54-15.84-15.72-10.46-8.11-22.38-13.66-35.43-16.47-.04,0-.09-.02-.13-.03-1.07-.28-2.18-.47-3.32-.57l-1.01-.1c-4.48-.42-10.07-.94-15.43-.56-5.25.37-11.78.83-16.7,3.23-.87.42-1.73.93-2.55,1.52-3.75,2.66-6.88,6.87-8.36,11.29-1.48,4.4-.96,10.06,1.39,15.14.08.17.14.35.19.53,4.06,2.53,8.12,5.03,12.19,7.54,6.88,4.24,13.99,8.62,20.98,13.07.63.4,1.08,1.03,1.26,1.76.2.82.56,1.67,1.07,2.53.16.27.27.55.34.85.09.16.26.4.38.54.28.18.53.4.74.66,1.64,2.06,3.3,3.73,5.07,5.5l.73.73c.52.53,1.25,1.16,2.02,1.84,1.77,1.54,3.6,3.14,4.61,4.78.64,1.04.98,2.36,1.31,3.64.12.45.23.9.35,1.3,1.33,4.27,3.05,8.68,5.1,13.11.93,2,1.7,4.03,2.46,6,1.56,4.08,3.04,7.93,5.73,11.55.14.19.26.4.35.62.39.94,1.76,2.87,2.52,3.56.13.12.25.25.36.38,4.73,6.12,10.3,11.89,17.51,18.15,5.39,4.68,10.05,10.08,14.98,15.79,1.03,1.19,2.07,2.4,3.12,3.6,12.05,13.79,24.2,28.92,34.93,42.28.36.38.6.79.8,1.12.24.15.45.34.64.56,15.2,18.1,32.95,30.62,50.12,42.72l2.76,1.94c17.38,12.27,35.22,25.44,54.52,40.24,7.3,5.6,14.84,11.12,22.14,16.46,28.76,21.05,58.5,42.82,84.85,77.21.39.44.68.92.95,1.34.09.14.21.34.3.47.31.19.59.45.81.75,1.26,1.71,2.24,3.36,3.19,4.95.33.56.66,1.11,1.01,1.67.17.27.29.57.36.87.04.05.08.1.12.15.25.31.56.69.82,1.14l4.07,5.76c.35.41.62.84.84,1.2.06.09.11.18.16.27.31.2.59.45.81.75,5.44,7.44,11.26,13.7,16.88,19.75,4.92,5.29,10,10.76,14.88,17.05.03.03,12.11,17.1,12.11,17.1.21.3.37.64.45.99.12.24.53.77.8,1.13.37.48.79,1.01,1.13,1.59l.83,1.17c.22.31.38.67.46,1.04.12.19.38.53.57.77.34.44.73.93,1.05,1.48,5.35,8.09,37.88,62.73,70.69,118.06h186.59v-138.95Z"/>
    <path class="c" d="M234.04,564.23c-14.79-29.26-14.7-62.91-22.93-93.16"/>
    <path class="c" d="M237.84,319.66c5.26,6.42,11.02,11.56,17.67,15.08,2.43,1.28,5.05,2.43,7.65,3.39"/>
    <path class="c" d="M240.77,264.72c9.43,23.06,13.7,51.66,23.43,73.5"/>
    <path class="c" d="M301.59,212.64c16.71,32.1,25.77,70.32,52.58,88.02.18.04.35.07.52.1"/>
    <path class="b" d="M91.55,95.5c3.41-1.48,7-2.12,10.3-2.04,2.14.06,4.36.5,6.57,1.48,6.76,3.01,11.18,13.26,11.61,21.83-4.93-.09-9.45,1.41-14,2.74-5.16,1.52-9.99,4.31-14.71,7.29-2.24,1.41-4.53,2.84-6.35,4.78-2.16-2.12-3.67-7.79-4.52-10.78-1.14-4.02-1.48-8.29-.5-12.38,1.5-6.26,6.02-10.5,11.59-12.92Z"/>
    <path class="b" d="M66.55,419.21c2.74,3.77,5.01,8.06,6.01,12.65.08.35.22,3.53.26,3.56-4.98-2.71-10.03-5.83-15.3-8.59-4.96-3.16-11.83-5.66-13.89-9.96-1.14-2.39,1.19-7.61,3.97-9.25,3.71-2.18,8.67,1.38,11.45,3.63,2.66,2.15,5.26,4.9,7.49,7.97Z"/>
  </g>
</svg>