<?xml version="1.0" encoding="UTF-8"?>
<svg id="b" data-name="Background" xmlns="http://www.w3.org/2000/svg" width="284.29" height="284.29" xmlns:xlink="http://www.w3.org/1999/xlink" viewBox="0 0 284.29 284.29">
  <defs>
    <style>
      .c {
        fill: none;
      }

      .d {
        fill: #3c00ab;
      }
    </style>
    <symbol id="a" data-name="User 2D" viewBox="0 0 284.29 284.29">
      <g>
        <g>
          <path class="d" d="M116.66,72.68c-1.66-6.06-3.99-11.91-7.09-17.06-2.87-4.77-6.85-8.88-12.1-10.93-5.06-1.98-11-2.17-16.03-.01-9.75,4.19-15.47,13.98-19.07,23.49-4.1,10.82-6.47,22.69-6.99,34.24-.83,18.71,5.11,36.24,9.72,54.06,3.56,13.78,6.79,27.69,8.3,41.87,1.61,15.11,1.51,38.95,20.82,42.51,9.65,1.78,19.39-3.8,22.68-12.99,2.86-7.98,1.62-17.1-.4-25.13-2.55-10.12-5.39-20.11-6.74-30.5-1.57-12.09-.54-24.28,2.92-35.97,4.17-14.09,7.68-28.16,7.11-43-.25-6.67-1.26-13.76-3.12-20.57Z"/>
          <path class="d" d="M167.64,72.68c1.66-6.06,3.99-11.91,7.09-17.06,2.87-4.77,6.85-8.88,12.1-10.93,5.06-1.98,11-2.17,16.03-.01,9.75,4.19,15.47,13.98,19.07,23.49,4.1,10.82,6.47,22.69,6.99,34.24.83,18.71-5.11,36.24-9.72,54.06-3.56,13.78-6.79,27.69-8.3,41.87-1.61,15.11-1.51,38.95-20.82,42.51-9.65,1.78-19.39-3.8-22.68-12.99-2.86-7.98-1.62-17.1.4-25.13,2.55-10.12,5.39-20.11,6.74-30.5,1.57-12.09.54-24.28-2.92-35.97-4.17-14.09-7.68-28.16-7.11-43,.25-6.67,1.26-13.76,3.12-20.57Z"/>
        </g>
        <rect class="c" x="0" y="0" width="284.29" height="284.29"/>
      </g>
    </symbol>
  </defs>
  <use width="284.29" height="284.29" xlink:href="#a"/>
</svg>