<?xml version="1.0" encoding="UTF-8"?>
<svg id="a" data-name="Background" xmlns="http://www.w3.org/2000/svg" width="284.29" height="284.29" viewBox="0 0 284.29 284.29">
  <defs>
    <style>
      .b {
        fill: #3c00ab;
        opacity: .5;
      }
    </style>
  </defs>
  <path class="b" d="M175.49,107.85c4.9-1.5,9.25-3.18,12.53-4.97,3.04-1.66,4.89-3.54,4.12-5.47-.74-1.86-3.63-3.69-8.28-4.85-9.03-2.26-21.28-2.37-32.17-1.89-12.4.55-24.9,1.79-36.13,3.54-18.2,2.84-31.77,7.54-46.31,11.88-11.24,3.35-22.79,6.63-35.46,9.43-13.52,2.98-36.21,6.9-29.6,13.33,3.3,3.21,13.64,5.24,24.07,4.72,9.06-.45,17.08-2.34,23.65-4.27,8.29-2.44,16.31-4.96,25.48-7.08,10.67-2.47,22.78-4.18,35.67-5.06,15.54-1.07,30.72-2.33,44.52-4.95,6.2-1.18,12.42-2.65,17.92-4.34Z"/>
  <path class="b" d="M236.36,140.36c6.61-.5,13.38-.76,19.87-.67,6.01.08,11.97.61,16.65,1.86,4.5,1.2,7.75,2.97,8.3,4.85,1.06,3.65-5.27,6.99-12.44,9.66-8.16,3.03-18.2,5.71-28.9,7.77-17.34,3.34-37.07,4.44-56.37,5.99-14.93,1.2-29.81,2.52-44.05,4.41-15.18,2.01-37.78,5.98-51.14.72-6.68-2.63-6.42-6.5.6-9.01,6.1-2.19,15.4-3.32,24.07-4.03,10.93-.9,21.89-1.69,32.46-3,12.29-1.52,23.34-3.85,32.65-6.83,11.22-3.59,22.77-6.98,37.16-9.26,6.47-1.03,13.71-1.89,21.15-2.46Z"/>
</svg>