<?xml version="1.0" encoding="UTF-8"?>
<svg id="a" data-name="Background" xmlns="http://www.w3.org/2000/svg" width="718.21" height="957.38" viewBox="0 0 718.21 957.38">
  <defs>
    <style>
      .b, .c {
        stroke-width: 2.5px;
      }

      .b, .c, .d, .e {
        stroke: #3c00ab;
        stroke-linecap: round;
        stroke-linejoin: round;
      }

      .b, .e {
        fill: #fff;
      }

      .c, .d {
        fill: none;
      }

      .d {
        stroke-width: 8px;
      }

      .e {
        stroke-width: 2px;
      }
    </style>
  </defs>
  <g>
    <path class="d" d="M661.04,402.17c-1.48-4.41-4.61-8.63-8.36-11.29-.82-.58-1.68-1.09-2.55-1.52-4.92-2.4-11.45-2.86-16.7-3.23-5.37-.38-10.95.14-15.44.56l-1.01.1c-1.14.09-2.25.28-3.32.57-.04.01-.09.02-.13.03-13.05,2.81-24.97,8.35-35.43,16.47-5.38,4.18-10.7,10.04-15.84,15.72l-.73.8c-5.95,6.56-11.18,12.57-14.94,19.76-.06.11-.13.23-.2.33l-1.91,2.7c-.14.19-.3.37-.48.53-6.82,5.87-15.17,12.87-23.5,19.7l-1.42,1.16c-7.38,6.06-15.01,12.33-23.01,16.01-.96.44-2.06.33-2.91-.27-.09-.06-.17-.13-.25-.2-.87-.77-1.2-1.98-.84-3.08,5.05-15.65,11.15-31.43,17.05-46.69,3.23-8.34,6.56-16.97,9.74-25.59,1.62-4.41,2.96-8.13,4.19-11.92.48-1.48.89-2.99,1.33-4.58.66-2.42,1.35-4.93,2.3-7.36,2.9-7.41,6.35-16.03,10.62-24.53,3-5.96,6.39-11.64,9.99-17.66,1.47-2.45,2.94-4.92,4.4-7.43l1.6-2.74c8.99-15.46,18.29-31.45,26.41-46.92,4.12-7.84,7.54-15.95,10.84-23.8l.21-.51c3.41-8.09,6.68-16,9.35-23.89,1.11-3.29,2.17-6.65,3.2-9.89,1.45-4.58,2.95-9.31,4.61-13.97,1.82-5.09,4-10.16,6.11-15.06,1.29-3.01,2.63-6.11,3.89-9.24,7.13-17.65,11.76-33.36,13.74-46.59,1.2-8.01,1.36-16.38-1.26-24.1-3.66-10.79-11.93-19.29-23.73-20.54-11.09-1.17-22.53,4.02-29.89,12.06-6.24,6.82-9.24,16.2-12.45,24.79-.75,2.01-1.5,4.01-2.28,6-.94,2.41-1.88,4.82-2.82,7.24-8.91,22.97-18.12,46.72-34.03,71.59-.02.04-4.12,5.83-4.12,5.83-1.72,2.32-3.54,4.73-5.42,6.96-.16.19-.35.36-.55.51-.31.26-1.09,1.36-1.25,1.79-.08.28-.19.51-.35.75-1.72,2.65-3.05,5.21-4.47,7.92-1.73,3.31-3.52,6.74-6.04,10.3l-1.91,2.7c-7.97,11.74-12.9,23.27-17.66,34.42-4.64,10.86-8.99,22.69-16.37,32.04-2.9,3.68-6.2,7.03-9.77,10.05.75-.63,1.18-2.26,1.48-3.18,2.11-6.48,3.91-13.1,5.77-19.66.21-.76.43-1.51.64-2.27,1.69-6.12,2.95-12.34,4.29-18.54,1.29-5.98,2.58-11.97,4.09-17.9.43-1.69.87-3.38,1.33-5.06.39-1.43,1.37-3.38,1.37-4.85,2.92-9.95,2.48-22.11,1.96-28.48-.73-8.88-2.57-18.06-11.01-25.12-.12-.1-.24-.21-.34-.33-.21-.24-.75-.72-1.48-1.24-.73-.52-1.36-.87-1.66-.98-.18-.07-.35-.16-.51-.26-10.93-6.98-20.07-10.06-27.94-9.4-.04,0-.08,0-.11,0-.68.03-1.35.15-2,.34-4.01,1.26-7.64,3.62-11.49,6.11-1.29.84-2.59,1.68-3.91,2.49-2.66,1.63-5.31,3.28-7.76,5.22-1.43,1.13-2.79,2.35-4.04,3.67-2.64,2.79-4.54,5.98-6.12,9.54-.83,1.87-1.65,3.75-2.5,5.59.49-2.12.75-4.35.84-6.58.08-2.05.19-4.09-.1-6.04-.32-2.17-1.31-4.17-2.15-6.18-1.24-2.98-2.7-5.87-4.52-8.53-2.07-3.03-4.6-5.73-7.49-8-.26-.2-.48-.45-.66-.72-.07-.06-.19-.16-.36-.28-.17-.12-.31-.2-.39-.24-.22-.05-.43-.13-.63-.23-10.17-5.03-20.96-9.41-30.86-7.42-4.16.84-9.23,4.49-13.29,7.42-4.92,3.55-9.61,7.11-12.85,11.69-1.24,1.76-2.2,4.1-3.12,6.36-.33.81-.66,1.61-1,2.4-.82,1.88-1.64,3.81-2.48,5.75-2.37,5.53-4.98,10.88-7.38,15.86-2.61,5.43-4.63,12.32-6.8,18.69-4.63,13.17-12.74,29.9-26.81,48.56,15.55-21.84,24.04-39.57,26.68-55.69,1.56-9.63-5.84-19.99-13.42-25.04-.25-.17-.46-.38-.63-.62-.08-.07-.26-.24-.56-.44s-.51-.32-.61-.37c-.27-.07-.52-.17-.76-.31-8.44-4.97-16-4.69-23.99-4.39h-.29c-1.19.12-2.37.32-3.52.62-5.93,1.6-12.85,4.27-19.02,11.89-.2.25-.44.46-.71.63-.14.17-.37.54-.53.79-.29.46-.62.97-1.01,1.44l-1.16,1.64c-.22.31-.5.58-.83.78-.14.17-.37.54-.53.79-.29.46-.62.97-1.01,1.44l-4.55,6.42c-.27.47-.59.86-.85,1.19-.07.08-.13.16-.2.24-.07.32-.2.63-.38.91-2.91,4.62-5.47,9.59-7.95,14.41-2.07,4.02-4.21,8.17-6.57,12.17l-.2.33c-5.25,8.89-10.2,17.28-14.54,26.16-4.24,8.68-8.96,16.71-13.95,25.21l-.99,1.69c-12.85,21.86-20.71,44.07-28.32,65.54-1.43,4.04-2.86,8.06-4.31,12.08-4.78,13.18-9.47,26.48-14.01,39.34-1.43,4.04-2.85,8.07-4.27,12.09-.9,2.54-1.82,5.04-2.72,7.51-2.27,6.19-4.42,12.04-6.09,17.98-4.67,16.58-9.5,33.73-11.97,50.02-.83,5.52-1.02,11-1.22,16.81-.08,2.38-.16,4.85-.3,7.33-1.87,35.06-10.82,68.55-27.37,102.39-.23.48-.59.88-1.04,1.17-.17.19-.49.68-.71,1.02-.31.49-.67,1.04-1.08,1.54l-4.12,5.83c-.31.53-.69,1.01-1.02,1.43-.19.24-.45.58-.57.77-.08.37-.24.73-.46,1.04l-2.73,3.85c-.29.5-.64.94-.95,1.33-.13.17-.31.4-.42.55-.08.38-.24.73-.47,1.05l-2.14,3.02c-.23.42-.51.75-.74,1.03-.08.3-.2.6-.37.87-9.6,15.11-17.39,30.18-24.93,44.75-2.41,4.66-19.48,34.19-40.75,70.74v167.23h170.12c32.81-55.33,65.34-109.97,70.69-118.06.32-.55.7-1.04,1.05-1.48.19-.24.45-.58.57-.77.08-.37.24-.73.46-1.04l.83-1.17c.35-.57.76-1.11,1.13-1.59.27-.36.68-.88.8-1.13.09-.36.24-.69.45-.99,0,0,12.08-17.07,12.11-17.1,4.89-6.29,9.97-11.76,14.88-17.05,5.62-6.05,11.44-12.31,16.88-19.75.22-.3.49-.55.81-.75.05-.09.11-.18.16-.27.22-.36.49-.79.84-1.2l4.07-5.76c.26-.45.57-.83.82-1.14.04-.05.08-.1.12-.15.07-.31.19-.6.36-.87.34-.56.68-1.11,1.01-1.67.95-1.59,1.93-3.24,3.19-4.95.22-.3.49-.55.81-.75.09-.14.22-.33.3-.47.27-.42.56-.9.95-1.34,26.35-34.39,56.09-56.16,84.85-77.21,7.29-5.34,14.84-10.86,22.14-16.46,19.3-14.81,37.13-27.97,54.52-40.24l2.76-1.94c17.17-12.1,34.93-24.62,50.12-42.72.18-.22.4-.41.64-.56.2-.34.45-.74.8-1.12,10.73-13.36,22.88-28.48,34.93-42.28,1.05-1.21,2.09-2.41,3.12-3.6,4.93-5.71,9.59-11.11,14.98-15.79,7.21-6.26,12.78-12.02,17.51-18.15.11-.14.23-.27.36-.38.76-.68,2.13-2.61,2.52-3.56.09-.22.21-.43.35-.62,2.7-3.63,4.17-7.48,5.73-11.55.75-1.97,1.53-4,2.46-6,2.05-4.43,3.76-8.84,5.1-13.11.12-.4.24-.85.35-1.3.33-1.28.67-2.6,1.31-3.64,1.01-1.64,2.84-3.24,4.61-4.78.77-.67,1.5-1.31,2.02-1.84l.73-.73c1.76-1.77,3.43-3.44,5.07-5.5.21-.26.46-.49.74-.66.12-.14.29-.38.38-.54.07-.3.18-.59.34-.85.5-.85.86-1.7,1.07-2.53.18-.73.63-1.36,1.26-1.76,6.98-4.45,14.1-8.83,20.98-13.07,4.06-2.5,8.13-5.01,12.19-7.54.04-.18.11-.36.19-.53,2.35-5.08,2.87-10.74,1.39-15.14Z"/>
    <path class="d" d="M470.87,564.23c14.79-29.26,14.7-62.91,22.93-93.16"/>
    <path class="d" d="M467.08,319.66c-5.26,6.42-11.02,11.56-17.67,15.08-2.43,1.28-5.05,2.43-7.65,3.39"/>
    <path class="d" d="M464.14,264.72c-9.43,23.06-13.7,51.66-23.43,73.5"/>
    <path class="d" d="M403.32,212.64c-16.71,32.1-25.77,70.32-52.58,88.02-.18.04-.35.07-.52.1"/>
    <path class="d" d="M613.37,95.5c-3.41-1.48-7-2.12-10.3-2.04-2.14.06-4.36.5-6.57,1.48-6.76,3.01-11.18,13.26-11.61,21.83,4.93-.09,9.45,1.41,14,2.74,5.16,1.52,9.99,4.31,14.71,7.29,2.24,1.41,4.53,2.84,6.35,4.78,2.16-2.12,3.67-7.79,4.52-10.78,1.14-4.02,1.48-8.29.5-12.38-1.5-6.26-6.02-10.5-11.59-12.92Z"/>
    <path class="d" d="M638.36,419.21c-2.74,3.77-5.01,8.06-6.01,12.65-.08.35-.22,3.53-.26,3.56,4.98-2.71,10.03-5.83,15.3-8.59,4.96-3.16,11.83-5.66,13.89-9.96,1.14-2.39-1.19-7.61-3.97-9.25-3.71-2.18-8.67,1.38-11.45,3.63-2.66,2.15-5.26,4.9-7.49,7.97Z"/>
  </g>
  <g>
    <path class="e" d="M661.04,402.17c-1.48-4.41-4.61-8.63-8.36-11.29-.82-.58-1.68-1.09-2.55-1.52-4.92-2.4-11.45-2.86-16.7-3.23-5.37-.38-10.95.14-15.44.56l-1.01.1c-1.14.09-2.25.28-3.32.57-.04.01-.09.02-.13.03-13.05,2.81-24.97,8.35-35.43,16.47-5.38,4.18-10.7,10.04-15.84,15.72l-.73.8c-5.95,6.56-11.18,12.57-14.94,19.76-.06.11-.13.23-.2.33l-1.91,2.7c-.14.19-.3.37-.48.53-6.82,5.87-15.17,12.87-23.5,19.7l-1.42,1.16c-7.38,6.06-15.01,12.33-23.01,16.01-.96.44-2.06.33-2.91-.27-.09-.06-.17-.13-.25-.2-.87-.77-1.2-1.98-.84-3.08,5.05-15.65,11.15-31.43,17.05-46.69,3.23-8.34,6.56-16.97,9.74-25.59,1.62-4.41,2.96-8.13,4.19-11.92.48-1.48.89-2.99,1.33-4.58.66-2.42,1.35-4.93,2.3-7.36,2.9-7.41,6.35-16.03,10.62-24.53,3-5.96,6.39-11.64,9.99-17.66,1.47-2.45,2.94-4.92,4.4-7.43l1.6-2.74c8.99-15.46,18.29-31.45,26.41-46.92,4.12-7.84,7.54-15.95,10.84-23.8l.21-.51c3.41-8.09,6.68-16,9.35-23.89,1.11-3.29,2.17-6.65,3.2-9.89,1.45-4.58,2.95-9.31,4.61-13.97,1.82-5.09,4-10.16,6.11-15.06,1.29-3.01,2.63-6.11,3.89-9.24,7.13-17.65,11.76-33.36,13.74-46.59,1.2-8.01,1.36-16.38-1.26-24.1-3.66-10.79-11.93-19.29-23.73-20.54-11.09-1.17-22.53,4.02-29.89,12.06-6.24,6.82-9.24,16.2-12.45,24.79-.75,2.01-1.5,4.01-2.28,6-.94,2.41-1.88,4.82-2.82,7.24-8.91,22.97-18.12,46.72-34.03,71.59-.02.04-4.12,5.83-4.12,5.83-1.72,2.32-3.54,4.73-5.42,6.96-.16.19-.35.36-.55.51-.31.26-1.09,1.36-1.25,1.79-.08.28-.19.51-.35.75-1.72,2.65-3.05,5.21-4.47,7.92-1.73,3.31-3.52,6.74-6.04,10.3l-1.91,2.7c-7.97,11.74-12.9,23.27-17.66,34.42-4.64,10.86-8.99,22.69-16.37,32.04-2.9,3.68-6.2,7.03-9.77,10.05.75-.63,1.18-2.26,1.48-3.18,2.11-6.48,3.91-13.1,5.77-19.66.21-.76.43-1.51.64-2.27,1.69-6.12,2.95-12.34,4.29-18.54,1.29-5.98,2.58-11.97,4.09-17.9.43-1.69.87-3.38,1.33-5.06.39-1.43,1.37-3.38,1.37-4.85,2.92-9.95,2.48-22.11,1.96-28.48-.73-8.88-2.57-18.06-11.01-25.12-.12-.1-.24-.21-.34-.33-.21-.24-.75-.72-1.48-1.24-.73-.52-1.36-.87-1.66-.98-.18-.07-.35-.16-.51-.26-10.93-6.98-20.07-10.06-27.94-9.4-.04,0-.08,0-.11,0-.68.03-1.35.15-2,.34-4.01,1.26-7.64,3.62-11.49,6.11-1.29.84-2.59,1.68-3.91,2.49-2.66,1.63-5.31,3.28-7.76,5.22-1.43,1.13-2.79,2.35-4.04,3.67-2.64,2.79-4.54,5.98-6.12,9.54-.83,1.87-1.65,3.75-2.5,5.59.49-2.12.75-4.35.84-6.58.08-2.05.19-4.09-.1-6.04-.32-2.17-1.31-4.17-2.15-6.18-1.24-2.98-2.7-5.87-4.52-8.53-2.07-3.03-4.6-5.73-7.49-8-.26-.2-.48-.45-.66-.72-.07-.06-.19-.16-.36-.28-.17-.12-.31-.2-.39-.24-.22-.05-.43-.13-.63-.23-10.17-5.03-20.96-9.41-30.86-7.42-4.16.84-9.23,4.49-13.29,7.42-4.92,3.55-9.61,7.11-12.85,11.69-1.24,1.76-2.2,4.1-3.12,6.36-.33.81-.66,1.61-1,2.4-.82,1.88-1.64,3.81-2.48,5.75-2.37,5.53-4.98,10.88-7.38,15.86-2.61,5.43-4.63,12.32-6.8,18.69-4.63,13.17-12.74,29.9-26.81,48.56,15.55-21.84,24.04-39.57,26.68-55.69,1.56-9.63-5.84-19.99-13.42-25.04-.25-.17-.46-.38-.63-.62-.08-.07-.26-.24-.56-.44s-.51-.32-.61-.37c-.27-.07-.52-.17-.76-.31-8.44-4.97-16-4.69-23.99-4.39h-.29c-1.19.12-2.37.32-3.52.62-5.93,1.6-12.85,4.27-19.02,11.89-.2.25-.44.46-.71.63-.14.17-.37.54-.53.79-.29.46-.62.97-1.01,1.44l-1.16,1.64c-.22.31-.5.58-.83.78-.14.17-.37.54-.53.79-.29.46-.62.97-1.01,1.44l-4.55,6.42c-.27.47-.59.86-.85,1.19-.07.08-.13.16-.2.24-.07.32-.2.63-.38.91-2.91,4.62-5.47,9.59-7.95,14.41-2.07,4.02-4.21,8.17-6.57,12.17l-.2.33c-5.25,8.89-10.2,17.28-14.54,26.16-4.24,8.68-8.96,16.71-13.95,25.21l-.99,1.69c-12.85,21.86-20.71,44.07-28.32,65.54-1.43,4.04-2.86,8.06-4.31,12.08-4.78,13.18-9.47,26.48-14.01,39.34-1.43,4.04-2.85,8.07-4.27,12.09-.9,2.54-1.82,5.04-2.72,7.51-2.27,6.19-4.42,12.04-6.09,17.98-4.67,16.58-9.5,33.73-11.97,50.02-.83,5.52-1.02,11-1.22,16.81-.08,2.38-.16,4.85-.3,7.33-1.87,35.06-10.82,68.55-27.37,102.39-.23.48-.59.88-1.04,1.17-.17.19-.49.68-.71,1.02-.31.49-.67,1.04-1.08,1.54l-4.12,5.83c-.31.53-.69,1.01-1.02,1.43-.19.24-.45.58-.57.77-.08.37-.24.73-.46,1.04l-2.73,3.85c-.29.5-.64.94-.95,1.33-.13.17-.31.4-.42.55-.08.38-.24.73-.47,1.05l-2.14,3.02c-.23.42-.51.75-.74,1.03-.08.3-.2.6-.37.87-9.6,15.11-17.39,30.18-24.93,44.75-2.41,4.66-19.48,34.19-40.75,70.74v167.23h170.12c32.81-55.33,65.34-109.97,70.69-118.06.32-.55.7-1.04,1.05-1.48.19-.24.45-.58.57-.77.08-.37.24-.73.46-1.04l.83-1.17c.35-.57.76-1.11,1.13-1.59.27-.36.68-.88.8-1.13.09-.36.24-.69.45-.99,0,0,12.08-17.07,12.11-17.1,4.89-6.29,9.97-11.76,14.88-17.05,5.62-6.05,11.44-12.31,16.88-19.75.22-.3.49-.55.81-.75.05-.09.11-.18.16-.27.22-.36.49-.79.84-1.2l4.07-5.76c.26-.45.57-.83.82-1.14.04-.05.08-.1.12-.15.07-.31.19-.6.36-.87.34-.56.68-1.11,1.01-1.67.95-1.59,1.93-3.24,3.19-4.95.22-.3.49-.55.81-.75.09-.14.22-.33.3-.47.27-.42.56-.9.95-1.34,26.35-34.39,56.09-56.16,84.85-77.21,7.29-5.34,14.84-10.86,22.14-16.46,19.3-14.81,37.13-27.97,54.52-40.24l2.76-1.94c17.17-12.1,34.93-24.62,50.12-42.72.18-.22.4-.41.64-.56.2-.34.45-.74.8-1.12,10.73-13.36,22.88-28.48,34.93-42.28,1.05-1.21,2.09-2.41,3.12-3.6,4.93-5.71,9.59-11.11,14.98-15.79,7.21-6.26,12.78-12.02,17.51-18.15.11-.14.23-.27.36-.38.76-.68,2.13-2.61,2.52-3.56.09-.22.21-.43.35-.62,2.7-3.63,4.17-7.48,5.73-11.55.75-1.97,1.53-4,2.46-6,2.05-4.43,3.76-8.84,5.1-13.11.12-.4.24-.85.35-1.3.33-1.28.67-2.6,1.31-3.64,1.01-1.64,2.84-3.24,4.61-4.78.77-.67,1.5-1.31,2.02-1.84l.73-.73c1.76-1.77,3.43-3.44,5.07-5.5.21-.26.46-.49.74-.66.12-.14.29-.38.38-.54.07-.3.18-.59.34-.85.5-.85.86-1.7,1.07-2.53.18-.73.63-1.36,1.26-1.76,6.98-4.45,14.1-8.83,20.98-13.07,4.06-2.5,8.13-5.01,12.19-7.54.04-.18.11-.36.19-.53,2.35-5.08,2.87-10.74,1.39-15.14Z"/>
    <path class="c" d="M470.87,564.23c14.79-29.26,14.7-62.91,22.93-93.16"/>
    <path class="c" d="M467.08,319.66c-5.26,6.42-11.02,11.56-17.67,15.08-2.43,1.28-5.05,2.43-7.65,3.39"/>
    <path class="c" d="M464.14,264.72c-9.43,23.06-13.7,51.66-23.43,73.5"/>
    <path class="c" d="M403.32,212.64c-16.71,32.1-25.77,70.32-52.58,88.02-.18.04-.35.07-.52.1"/>
    <path class="b" d="M613.37,95.5c-3.41-1.48-7-2.12-10.3-2.04-2.14.06-4.36.5-6.57,1.48-6.76,3.01-11.18,13.26-11.61,21.83,4.93-.09,9.45,1.41,14,2.74,5.16,1.52,9.99,4.31,14.71,7.29,2.24,1.41,4.53,2.84,6.35,4.78,2.16-2.12,3.67-7.79,4.52-10.78,1.14-4.02,1.48-8.29.5-12.38-1.5-6.26-6.02-10.5-11.59-12.92Z"/>
    <path class="b" d="M638.36,419.21c-2.74,3.77-5.01,8.06-6.01,12.65-.08.35-.22,3.53-.26,3.56,4.98-2.71,10.03-5.83,15.3-8.59,4.96-3.16,11.83-5.66,13.89-9.96,1.14-2.39-1.19-7.61-3.97-9.25-3.71-2.18-8.67,1.38-11.45,3.63-2.66,2.15-5.26,4.9-7.49,7.97Z"/>
  </g>
</svg>