<?xml version="1.0" encoding="UTF-8"?>
<svg id="a" data-name="Background" xmlns="http://www.w3.org/2000/svg" width="284.29" height="284.29" viewBox="0 0 284.29 284.29">
  <defs>
    <style>
      .b {
        fill: #3c00ab;
      }

      .c {
        opacity: .5;
      }
    </style>
  </defs>
  <g class="c">
    <path class="b" d="M125.56,111.76c-5.81-1.9-12.27-3.59-19.16-4.86-6.38-1.18-13.64-1.88-21.05-1.57-7.14.3-14.16,1.45-18.61,3.28-8.63,3.55-9,8.34-7.09,12.59,2.18,4.84,7.03,9.72,13.83,14.09,11.02,7.09,29.16,12.36,45.92,18.01,12.96,4.37,25.62,8.86,36.46,13.79,11.55,5.26,26.72,14.1,51.4,11.46,12.33-1.32,20.06-5.37,18-9.44-1.79-3.54-9.07-6.66-16.57-9.21-9.44-3.22-19.15-6.34-27.37-9.9-9.57-4.15-16.19-8.87-19.66-13.9-4.19-6.07-9.13-11.99-19.3-17.36-4.57-2.42-10.27-4.83-16.8-6.97Z"/>
  </g>
</svg>